<svg width="36" height="36" viewBox="0 0 36 36" fill="none" xmlns="http://www.w3.org/2000/svg">
<path fill-rule="evenodd" clip-rule="evenodd" d="M18 36C27.9411 36 36 27.9411 36 18C36 8.05888 27.9411 0 18 0C8.05888 0 0 8.05888 0 18C0 27.9411 8.05888 36 18 36Z" fill="#7ED3F7"/>
<path fill-rule="evenodd" clip-rule="evenodd" d="M16.0233 15.3782H20.6263V19.4354C22.3396 19.6964 23.9592 20.2457 25.4337 21.0291C25.9136 20.0141 26.1817 18.8787 26.1817 17.6815C26.1817 13.3385 22.6619 9.81836 18.3248 9.81836C13.9876 9.81836 10.4727 13.3385 10.4727 17.6815C10.4727 18.8762 10.7385 20.0092 11.2162 21.024C12.6932 20.2408 14.3102 19.6938 16.0233 19.4329V15.3782Z" fill="#005992"/>
<path fill-rule="evenodd" clip-rule="evenodd" d="M18.3246 25.5273C21.0715 25.5273 23.4887 24.1159 24.8943 21.9775C22.9325 20.9383 20.6928 20.3496 18.3172 20.3496C15.947 20.3496 13.7119 20.9357 11.7549 21.9729C13.1579 24.1133 15.5754 25.5273 18.3246 25.5273Z" fill="#D71249"/>
</svg>
