<svg width="24" height="24" viewBox="0 0 24 24" fill="none" xmlns="http://www.w3.org/2000/svg">
<path d="M15.3265 0.00027144C14.66 0.00973865 14.0234 0.278791 13.5521 0.75024L11.7307 2.57159H12.8573L13.7144 3.4287H2.57205L3.42915 4.28581H10.0165L9.15938 5.14291H10.286L11.1431 6.00002H4.28626L5.14337 6.85713H7.44517L0.750693 13.5516C0.512706 13.7894 0.323914 14.0718 0.195107 14.3826C0.0662986 14.6934 0 15.0265 0 15.3629C0 15.6993 0.0662986 16.0325 0.195107 16.3433C0.323914 16.6541 0.512706 16.9364 0.750693 17.1742L6.82578 23.2493C7.06357 23.4873 7.34594 23.6761 7.65673 23.8049C7.96752 23.9337 8.30066 24 8.63708 24C8.97351 24 9.30664 23.9337 9.61744 23.8049C9.92823 23.6761 10.2106 23.4873 10.4484 23.2493L23.2498 10.4479C23.4877 10.2101 23.6765 9.92778 23.8053 9.61699C23.9342 9.30619 24.0005 8.97306 24.0005 8.63663C24.0005 8.3002 23.9342 7.96707 23.8053 7.65628C23.6765 7.34548 23.4877 7.06312 23.2498 6.82532L17.1747 0.75024C16.9325 0.507952 16.6441 0.316734 16.3266 0.187912C16.0092 0.0590898 15.6691 -0.0047167 15.3265 0.00027144ZM19.7577 9.09197L20.3637 9.69797L18.1523 11.9094L17.5446 11.3034L19.7577 9.09197ZM8.83797 10.766C8.89544 10.7629 8.95294 10.7715 9.00705 10.7911C9.41603 10.9382 9.78746 11.1739 10.0948 11.4812C10.4021 11.7885 10.6378 12.16 10.7849 12.5689C10.8233 12.6759 10.8176 12.7938 10.7691 12.8966C10.7206 12.9995 10.6332 13.0788 10.5262 13.1172C10.4192 13.1556 10.3014 13.1499 10.1985 13.1014C10.0957 13.0529 10.0164 12.9656 9.97799 12.8586C9.8736 12.5686 9.70649 12.3053 9.48859 12.0874C9.27069 11.8695 9.00738 11.7024 8.71744 11.598C8.62395 11.5649 8.54482 11.5005 8.49355 11.4156C8.44227 11.3307 8.42201 11.2307 8.43623 11.1325C8.45045 11.0344 8.49826 10.9442 8.57152 10.8774C8.64477 10.8106 8.73894 10.7712 8.83797 10.766ZM16.9386 11.9094L17.5446 12.5154L15.3332 14.7268L14.7272 14.1208L16.9386 11.9094ZM8.28721 12.2475C8.3303 12.2472 8.3732 12.2534 8.41444 12.2659C8.62477 12.3318 8.816 12.4477 8.9717 12.6037C9.1274 12.7597 9.24293 12.9511 9.30837 13.1616C9.33619 13.2681 9.32196 13.3812 9.26863 13.4775C9.2153 13.5738 9.12696 13.6459 9.02193 13.6788C8.91689 13.7117 8.80321 13.703 8.70444 13.6544C8.60568 13.6058 8.52941 13.521 8.49144 13.4177C8.46716 13.3393 8.42413 13.268 8.36608 13.2099C8.30804 13.1519 8.23672 13.1088 8.15831 13.0845C8.06088 13.0536 7.97772 12.9889 7.92383 12.902C7.86994 12.8152 7.84887 12.7119 7.86443 12.6109C7.87999 12.5098 7.93115 12.4177 8.00868 12.3511C8.0862 12.2844 8.18499 12.2477 8.28721 12.2475ZM5.14337 13.2687C5.35845 13.2586 5.57264 13.3026 5.76627 13.3968C5.9599 13.491 6.12678 13.6323 6.25158 13.8077L4.90063 15.1587L3.84097 14.099L4.29463 13.6437C4.521 13.4174 4.82364 13.2837 5.14337 13.2687ZM6.56797 14.099L7.47698 15.008L6.11264 16.3707L5.20363 15.4617L6.56797 14.099ZM3.53797 14.402L4.59763 15.4617L3.24668 16.8126C3.09431 16.7043 2.9674 16.564 2.8748 16.4016C2.7822 16.2392 2.72613 16.0585 2.71052 15.8722C2.6949 15.6859 2.7201 15.4984 2.78437 15.3229C2.84863 15.1473 2.95042 14.9879 3.08263 14.8557L3.53797 14.402ZM14.1212 14.7268L14.7272 15.3328L12.5158 17.5442L11.9098 16.9382L14.1212 14.7268ZM7.76658 15.3227C7.91935 15.4309 8.04665 15.5712 8.13958 15.7337C8.23252 15.8962 8.28884 16.077 8.30463 16.2635C8.32041 16.4501 8.29527 16.6378 8.23096 16.8136C8.16665 16.9894 8.06473 17.149 7.93231 17.2814L7.47698 17.735L6.41564 16.6737L7.76658 15.3227ZM4.90063 15.7647L5.80963 16.6737L4.44697 18.038L3.53797 17.129L4.90063 15.7647ZM6.11264 16.9767L7.17398 18.038L6.71864 18.4934C6.58633 18.6255 6.42679 18.7272 6.25116 18.7913C6.07552 18.8554 5.88801 18.8805 5.7017 18.8647C5.51539 18.8489 5.33476 18.7927 5.17241 18.6999C5.01006 18.6072 4.86989 18.4801 4.76169 18.3276L6.11264 16.9767ZM11.3038 17.5442L11.9098 18.1519L9.69842 20.3633L9.09242 19.7573L11.3038 17.5442Z" fill="#0075FF"/>
</svg>
