<svg width="200" height="200" viewBox="0 0 200 200" fill="none" xmlns="http://www.w3.org/2000/svg">
<path opacity="0.800279" d="M100 169.5C99.9289 169.5 99.8579 169.5 99.7868 169.5C99.6885 169.499 99.5902 169.499 99.492 169.498L99.4884 169.998C97.7773 169.986 96.0808 169.912 94.401 169.779L94.4404 169.281C94.1047 169.254 93.7696 169.225 93.4352 169.194L93.3886 169.692C91.6875 169.533 90.0041 169.312 88.3406 169.033L88.4233 168.54C88.0904 168.484 87.7583 168.426 87.427 168.366L87.3372 168.858C85.6597 168.551 84.003 168.185 82.3696 167.761L82.4952 167.277C82.168 167.192 81.8419 167.105 81.5167 167.015L81.384 167.498C79.741 167.045 78.1223 166.535 76.5301 165.968L76.6977 165.497C76.3801 165.384 76.0637 165.269 75.7483 165.152L75.5738 165.62C73.9779 165.026 72.4096 164.375 70.8712 163.67L71.0795 163.216C70.7733 163.075 70.4683 162.933 70.1644 162.788L69.9495 163.24C68.4134 162.508 66.908 161.723 65.436 160.885L65.6833 160.451C65.3903 160.284 65.0987 160.115 64.8084 159.945L64.5548 160.376C63.0898 159.514 61.659 158.6 60.2648 157.637L60.5489 157.225C60.2715 157.034 59.9956 156.84 59.7211 156.645L59.431 157.052C58.0476 156.067 56.7016 155.032 55.3954 153.951L55.7142 153.566C55.4545 153.351 55.1964 153.134 54.9399 152.915L54.6156 153.296C53.3236 152.195 52.0722 151.047 50.8638 149.856L51.2148 149.5C50.9748 149.263 50.7365 149.025 50.5 148.785L50.1439 149.136C48.9528 147.928 47.8054 146.676 46.7042 145.384L47.0847 145.06C46.8661 144.804 46.6493 144.545 46.4343 144.286L46.0491 144.605C44.9681 143.298 43.9335 141.952 42.948 140.569L43.3552 140.279C43.1597 140.004 42.9661 139.728 42.7745 139.451L42.3631 139.735C41.4001 138.341 40.4864 136.91 39.6245 135.445L40.0554 135.192C39.8846 134.901 39.7159 134.61 39.5492 134.317L39.1146 134.564C38.2772 133.092 37.4916 131.587 36.7603 130.05L37.2118 129.836C37.0671 129.532 36.9247 129.227 36.7843 128.921L36.3298 129.129C35.6248 127.59 34.974 126.022 34.3797 124.426L34.8483 124.252C34.7309 123.936 34.6156 123.62 34.5027 123.302L34.0316 123.47C33.4651 121.878 32.9546 120.259 32.5025 118.616L32.9845 118.483C32.895 118.158 32.8079 117.832 32.723 117.505L32.239 117.63C31.8152 115.997 31.4489 114.34 31.1424 112.663L31.6343 112.573C31.5737 112.242 31.5156 111.91 31.4597 111.577L30.9666 111.659C30.6877 109.996 30.4675 108.312 30.3081 106.611L30.806 106.565C30.7746 106.23 30.7457 105.895 30.7191 105.56L30.2207 105.599C30.0877 103.919 30.0141 102.223 30.0018 100.512L30.5018 100.508C30.5006 100.339 30.5 100.169 30.5 100C30.5 99.8305 30.5006 99.6612 30.5018 99.492L30.0018 99.4884C30.0141 97.7773 30.0877 96.0808 30.2207 94.401L30.7191 94.4404C30.7457 94.1047 30.7746 93.7696 30.806 93.4352L30.3081 93.3886C30.4675 91.6875 30.6877 90.0041 30.9666 88.3406L31.4597 88.4233C31.5156 88.0904 31.5737 87.7583 31.6343 87.427L31.1424 87.3372C31.4489 85.6597 31.8152 84.003 32.239 82.3696L32.723 82.4952C32.8079 82.168 32.895 81.8419 32.9845 81.5167L32.5025 81.384C32.9546 79.741 33.4651 78.1223 34.0316 76.5301L34.5027 76.6977C34.6156 76.3801 34.7309 76.0637 34.8483 75.7483L34.3797 75.5738C34.974 73.9779 35.6248 72.4096 36.3298 70.8712L36.7843 71.0795C36.9247 70.7733 37.0671 70.4683 37.2118 70.1644L36.7603 69.9495C37.4916 68.4134 38.2772 66.908 39.1146 65.436L39.5492 65.6833C39.7159 65.3903 39.8846 65.0987 40.0554 64.8084L39.6245 64.5548C40.4864 63.0898 41.4001 61.659 42.3631 60.2648L42.7745 60.5489C42.9661 60.2715 43.1597 59.9956 43.3552 59.7211L42.948 59.431C43.9335 58.0476 44.968 56.7016 46.0491 55.3954L46.4343 55.7142C46.6493 55.4545 46.8661 55.1964 47.0847 54.9399L46.7042 54.6156C47.8054 53.3236 48.9528 52.0722 50.1438 50.8638L50.4999 51.2148C50.7365 50.9748 50.9748 50.7365 51.2148 50.5L50.8638 50.1439C52.0721 48.9528 53.3236 47.8054 54.6156 46.7042L54.9399 47.0847C55.1964 46.8661 55.4545 46.6493 55.7142 46.4343L55.3954 46.0491C56.7015 44.9681 58.0476 43.9335 59.431 42.948L59.7211 43.3552C59.9956 43.1597 60.2715 42.9661 60.5489 42.7745L60.2648 42.3631C61.659 41.4001 63.0898 40.4864 64.5548 39.6245L64.8084 40.0554C65.0987 39.8846 65.3903 39.7159 65.6833 39.5492L65.436 39.1146C66.908 38.2772 68.4133 37.4916 69.9495 36.7603L70.1644 37.2118C70.4682 37.0671 70.7733 36.9247 71.0795 36.7843L70.8712 36.3298C72.4096 35.6248 73.9779 34.974 75.5738 34.3797L75.7483 34.8483C76.0637 34.7309 76.3801 34.6156 76.6977 34.5027L76.5301 34.0316C78.1223 33.4651 79.741 32.9546 81.384 32.5025L81.5167 32.9845C81.8419 32.895 82.168 32.8079 82.4951 32.723L82.3696 32.239C84.003 31.8152 85.6597 31.4489 87.3372 31.1424L87.427 31.6343C87.7583 31.5737 88.0904 31.5156 88.4233 31.4597L88.3406 30.9666C90.0041 30.6877 91.6875 30.4675 93.3886 30.3081L93.4352 30.806C93.7696 30.7746 94.1047 30.7457 94.4404 30.7191L94.401 30.2207C96.0808 30.0877 97.7773 30.0141 99.4884 30.0018L99.492 30.5018C99.6612 30.5006 99.8305 30.5 100 30.5C100.169 30.5 100.339 30.5006 100.508 30.5018L100.512 30.0018C102.223 30.0141 103.919 30.0877 105.599 30.2207L105.56 30.7191C105.895 30.7457 106.23 30.7746 106.565 30.806L106.611 30.3081C108.312 30.4675 109.996 30.6877 111.659 30.9666L111.577 31.4597C111.91 31.5156 112.242 31.5737 112.573 31.6343L112.663 31.1424C114.34 31.4489 115.997 31.8152 117.63 32.239L117.505 32.723C117.832 32.8079 118.158 32.895 118.483 32.9845L118.616 32.5025C120.259 32.9546 121.878 33.4651 123.47 34.0316L123.302 34.5027C123.62 34.6156 123.936 34.7309 124.252 34.8483L124.426 34.3797C126.022 34.974 127.59 35.6248 129.129 36.3298L128.921 36.7843C129.227 36.9247 129.532 37.0671 129.836 37.2118L130.05 36.7603C131.587 37.4916 133.092 38.2772 134.564 39.1146L134.317 39.5492C134.61 39.7159 134.901 39.8846 135.192 40.0554L135.445 39.6245C136.91 40.4864 138.341 41.4001 139.735 42.3631L139.451 42.7745C139.728 42.9661 140.004 43.1597 140.279 43.3552L140.569 42.948C141.952 43.9335 143.298 44.968 144.605 46.0491L144.286 46.4343C144.545 46.6493 144.804 46.8661 145.06 47.0847L145.384 46.7042C146.676 47.8054 147.928 48.9528 149.136 50.1438L148.785 50.4999C149.025 50.7365 149.263 50.9748 149.5 51.2148L149.856 50.8638C151.047 52.0721 152.195 53.3236 153.296 54.6156L152.915 54.9399C153.134 55.1964 153.351 55.4545 153.566 55.7142L153.951 55.3954C155.032 56.7015 156.067 58.0476 157.052 59.431L156.645 59.7211C156.84 59.9956 157.034 60.2715 157.225 60.5489L157.637 60.2648C158.6 61.659 159.514 63.0898 160.376 64.5548L159.945 64.8084C160.115 65.0987 160.284 65.3903 160.451 65.6833L160.885 65.436C161.723 66.908 162.508 68.4133 163.24 69.9495L162.788 70.1644C162.933 70.4682 163.075 70.7733 163.216 71.0795L163.67 70.8712C164.375 72.4096 165.026 73.9779 165.62 75.5738L165.152 75.7483C165.269 76.0637 165.384 76.3801 165.497 76.6977L165.968 76.5301C166.535 78.1223 167.045 79.741 167.498 81.384L167.015 81.5167C167.105 81.8419 167.192 82.168 167.277 82.4951L167.761 82.3696C168.185 84.003 168.551 85.6597 168.858 87.3372L168.366 87.427C168.426 87.7583 168.484 88.0904 168.54 88.4233L169.033 88.3406C169.312 90.0041 169.533 91.6875 169.692 93.3886L169.194 93.4352C169.225 93.7696 169.254 94.1047 169.281 94.4404L169.779 94.401C169.912 96.0808 169.986 97.7773 169.998 99.4884L169.498 99.492C169.499 99.6612 169.5 99.8305 169.5 100C169.5 100.169 169.499 100.339 169.498 100.508L169.998 100.512C169.986 102.223 169.912 103.919 169.779 105.599L169.281 105.56C169.254 105.895 169.225 106.23 169.194 106.565L169.692 106.611C169.533 108.312 169.312 109.996 169.033 111.659L168.54 111.577C168.484 111.91 168.426 112.242 168.366 112.573L168.858 112.663C168.551 114.34 168.185 115.997 167.761 117.63L167.277 117.505C167.192 117.832 167.105 118.158 167.015 118.483L167.498 118.616C167.045 120.259 166.535 121.878 165.968 123.47L165.497 123.302C165.384 123.62 165.269 123.936 165.152 124.252L165.62 124.426C165.026 126.022 164.375 127.59 163.67 129.129L163.216 128.921C163.075 129.227 162.933 129.532 162.788 129.836L163.24 130.05C162.508 131.587 161.723 133.092 160.885 134.564L160.451 134.317C160.284 134.61 160.115 134.901 159.945 135.192L160.376 135.445C159.514 136.91 158.6 138.341 157.637 139.735L157.225 139.451C157.034 139.728 156.84 140.004 156.645 140.279L157.052 140.569C156.067 141.952 155.032 143.298 153.951 144.605L153.566 144.286C153.351 144.545 153.134 144.804 152.915 145.06L153.296 145.384C152.195 146.676 151.047 147.928 149.856 149.136L149.5 148.785C149.263 149.025 149.025 149.263 148.785 149.5L149.136 149.856C147.928 151.047 146.676 152.195 145.384 153.296L145.06 152.915C144.804 153.134 144.545 153.351 144.286 153.566L144.605 153.951C143.298 155.032 141.952 156.067 140.569 157.052L140.279 156.645C140.004 156.84 139.728 157.034 139.451 157.225L139.735 157.637C138.341 158.6 136.91 159.514 135.445 160.376L135.192 159.945C134.901 160.115 134.61 160.284 134.317 160.451L134.564 160.885C133.092 161.723 131.587 162.508 130.05 163.24L129.836 162.788C129.532 162.933 129.227 163.075 128.921 163.216L129.129 163.67C127.59 164.375 126.022 165.026 124.426 165.62L124.252 165.152C123.936 165.269 123.62 165.384 123.302 165.497L123.47 165.968C121.878 166.535 120.259 167.045 118.616 167.498L118.483 167.015C118.158 167.105 117.832 167.192 117.505 167.277L117.63 167.761C115.997 168.185 114.34 168.551 112.663 168.858L112.573 168.366C112.242 168.426 111.91 168.484 111.577 168.54L111.659 169.033C109.996 169.312 108.312 169.533 106.611 169.692L106.565 169.194C106.23 169.225 105.895 169.254 105.56 169.281L105.599 169.779C103.919 169.912 102.223 169.986 100.512 169.998L100.508 169.498C100.339 169.499 100.169 169.5 100 169.5Z" stroke="url(#paint0_linear)" stroke-dasharray="1 5"/>
<path opacity="0.495424" d="M100 184.5C99.8314 184.5 99.6629 184.5 99.4946 184.499L99.4916 184.999C97.794 184.989 96.1081 184.929 94.4354 184.821L94.4677 184.322C94.1324 184.3 93.7976 184.277 93.4634 184.251L93.4252 184.749C91.735 184.62 90.0586 184.441 88.3974 184.215L88.465 183.719C88.1334 183.674 87.8025 183.627 87.4721 183.578L87.3986 184.072C85.7228 183.823 84.0629 183.525 82.4204 183.18L82.5233 182.691C82.1944 182.621 81.8661 182.55 81.5386 182.477L81.4299 182.965C79.7775 182.597 78.1434 182.181 76.5289 181.718L76.6667 181.237C76.3445 181.145 76.0232 181.051 75.7027 180.955L75.5591 181.434C73.9393 180.948 72.3398 180.416 70.7622 179.838L70.9342 179.368C70.6187 179.253 70.3041 179.135 69.9904 179.016L69.8128 179.484C68.2324 178.883 66.6746 178.237 65.1409 177.546L65.3462 177.09C65.0405 176.953 64.7358 176.813 64.432 176.672L64.2213 177.126C62.6895 176.414 61.1824 175.658 59.7017 174.859L59.9391 174.419C59.6438 174.259 59.3496 174.098 59.0564 173.936L58.8138 174.373C57.3372 173.554 55.8876 172.691 54.4666 171.788L54.7348 171.366C54.4518 171.186 54.17 171.005 53.8893 170.822L53.6161 171.241C52.2027 170.318 50.8184 169.355 49.4649 168.353L49.7624 167.951C49.493 167.752 49.2248 167.55 48.9578 167.348L48.6555 167.746C47.3116 166.726 45.999 165.667 44.7194 164.57L45.0448 164.191C44.7902 163.972 44.5369 163.753 44.285 163.532L43.9552 163.908C42.6877 162.795 41.4536 161.646 40.2546 160.461L40.6061 160.105C40.3676 159.869 40.1306 159.632 39.895 159.394L39.5393 159.745C38.3544 158.546 37.2049 157.312 36.0925 156.045L36.4683 155.715C36.2472 155.463 36.0275 155.21 35.8094 154.955L35.4297 155.281C34.3332 154.001 33.274 152.688 32.2539 151.345L32.6522 151.042C32.4495 150.775 32.2484 150.507 32.0489 150.238L31.6471 150.535C30.6447 149.182 29.6816 147.797 28.7595 146.384L29.1782 146.111C28.9951 145.83 28.8136 145.548 28.6338 145.265L28.2118 145.533C27.3086 144.112 26.4465 142.663 25.627 141.186L26.0642 140.944C25.9015 140.65 25.7405 140.356 25.5812 140.061L25.1412 140.298C24.3424 138.818 23.5863 137.311 22.8745 135.779L23.3279 135.568C23.1867 135.264 23.0473 134.96 22.9097 134.654L22.4538 134.859C21.7633 133.325 21.117 131.768 20.5164 130.187L20.9838 130.01C20.8646 129.696 20.7472 129.381 20.6316 129.066L20.1622 129.238C19.5843 127.66 19.0518 126.061 18.5663 124.441L19.0453 124.297C18.9492 123.977 18.855 123.655 18.7626 123.333L18.282 123.471C17.8191 121.857 17.4028 120.222 17.0346 118.57L17.5226 118.461C17.4496 118.134 17.3785 117.806 17.3094 117.477L16.8201 117.58C16.4747 115.937 16.1767 114.277 15.9277 112.601L16.4222 112.528C16.3731 112.198 16.326 111.867 16.2807 111.535L15.7853 111.603C15.5586 109.941 15.3798 108.265 15.2505 106.575L15.7491 106.537C15.7235 106.202 15.6999 105.868 15.6782 105.532L15.1792 105.565C15.0711 103.892 15.0114 102.206 15.0015 100.508L15.5015 100.505C15.5005 100.337 15.5 100.169 15.5 100C15.5 99.8314 15.5005 99.6629 15.5015 99.4946L15.0015 99.4916C15.0114 97.794 15.0711 96.1081 15.1792 94.4354L15.6782 94.4677C15.6999 94.1324 15.7235 93.7976 15.7491 93.4634L15.2505 93.4252C15.3798 91.735 15.5586 90.0586 15.7853 88.3974L16.2807 88.465C16.326 88.1334 16.3731 87.8025 16.4222 87.4721L15.9277 87.3986C16.1767 85.7228 16.4747 84.0629 16.8201 82.4204L17.3094 82.5233C17.3785 82.1944 17.4496 81.8661 17.5226 81.5386L17.0346 81.4299C17.4028 79.7775 17.8191 78.1434 18.282 76.5289L18.7626 76.6667C18.855 76.3445 18.9492 76.0232 19.0452 75.7027L18.5663 75.5591C19.0518 73.9393 19.5842 72.3398 20.1621 70.7622L20.6316 70.9342C20.7472 70.6187 20.8646 70.3041 20.9838 69.9904L20.5164 69.8128C21.117 68.2324 21.7633 66.6746 22.4538 65.1409L22.9097 65.3462C23.0473 65.0405 23.1867 64.7358 23.3279 64.432L22.8745 64.2213C23.5863 62.6895 24.3424 61.1824 25.1412 59.7017L25.5812 59.9391C25.7405 59.6438 25.9015 59.3496 26.0642 59.0564L25.627 58.8138C26.4465 57.3372 27.3086 55.8876 28.2118 54.4666L28.6338 54.7348C28.8136 54.4518 28.9951 54.17 29.1782 53.8893L28.7595 53.6161C29.6816 52.2027 30.6447 50.8184 31.6471 49.4649L32.0489 49.7624C32.2484 49.493 32.4495 49.2248 32.6522 48.9578L32.2539 48.6555C33.274 47.3116 34.3332 45.999 35.4297 44.7194L35.8094 45.0448C36.0275 44.7902 36.2472 44.5369 36.4683 44.285L36.0925 43.9552C37.2049 42.6877 38.3544 41.4536 39.5393 40.2546L39.895 40.6061C40.1306 40.3676 40.3676 40.1306 40.6061 39.895L40.2546 39.5393C41.4536 38.3544 42.6877 37.2049 43.9552 36.0925L44.285 36.4683C44.5369 36.2472 44.7902 36.0275 45.0448 35.8094L44.7194 35.4297C45.999 34.3332 47.3116 33.274 48.6555 32.2539L48.9578 32.6522C49.2248 32.4495 49.493 32.2484 49.7624 32.0489L49.4649 31.6471C50.8184 30.6447 52.2027 29.6816 53.6161 28.7595L53.8893 29.1782C54.17 28.9951 54.4518 28.8136 54.7348 28.6338L54.4666 28.2118C55.8876 27.3086 57.3372 26.4465 58.8138 25.627L59.0564 26.0642C59.3496 25.9015 59.6438 25.7405 59.939 25.5812L59.7017 25.1412C61.1824 24.3424 62.6894 23.5863 64.2213 22.8745L64.432 23.3279C64.7358 23.1867 65.0405 23.0473 65.3462 22.9097L65.1409 22.4538C66.6746 21.7633 68.2324 21.117 69.8128 20.5164L69.9904 20.9838C70.3041 20.8646 70.6187 20.7472 70.9342 20.6316L70.7622 20.1622C72.3398 19.5843 73.9393 19.0518 75.5591 18.5663L75.7026 19.0453C76.0232 18.9492 76.3445 18.855 76.6666 18.7626L76.5288 18.282C78.1433 17.8191 79.7775 17.4028 81.4298 17.0346L81.5386 17.5226C81.8661 17.4496 82.1943 17.3785 82.5233 17.3094L82.4204 16.8201C84.0628 16.4747 85.7227 16.1767 87.3986 15.9277L87.4721 16.4222C87.8024 16.3731 88.1334 16.326 88.465 16.2807L88.3974 15.7853C90.0585 15.5586 91.7349 15.3798 93.4252 15.2505L93.4633 15.7491C93.7975 15.7235 94.1323 15.6999 94.4676 15.6782L94.4354 15.1792C96.1081 15.0711 97.7939 15.0114 99.4916 15.0015L99.4945 15.5015C99.6629 15.5005 99.8314 15.5 100 15.5C100.169 15.5 100.337 15.5005 100.505 15.5015L100.508 15.0015C102.206 15.0114 103.892 15.0711 105.565 15.1792L105.532 15.6782C105.868 15.6999 106.202 15.7235 106.537 15.7491L106.575 15.2505C108.265 15.3798 109.941 15.5586 111.603 15.7853L111.535 16.2807C111.867 16.326 112.198 16.3731 112.528 16.4222L112.601 15.9277C114.277 16.1767 115.937 16.4747 117.58 16.8201L117.477 17.3094C117.806 17.3785 118.134 17.4496 118.461 17.5226L118.57 17.0346C120.222 17.4028 121.857 17.8191 123.471 18.282L123.333 18.7626C123.655 18.855 123.977 18.9492 124.297 19.0452L124.441 18.5663C126.061 19.0518 127.66 19.5842 129.238 20.1621L129.066 20.6316C129.381 20.7472 129.696 20.8646 130.01 20.9838L130.187 20.5164C131.768 21.117 133.325 21.7633 134.859 22.4538L134.654 22.9097C134.959 23.0473 135.264 23.1867 135.568 23.3279L135.779 22.8745C137.311 23.5863 138.818 24.3424 140.298 25.1412L140.061 25.5812C140.356 25.7405 140.65 25.9015 140.944 26.0642L141.186 25.627C142.663 26.4465 144.112 27.3086 145.533 28.2118L145.265 28.6338C145.548 28.8136 145.83 28.9951 146.111 29.1782L146.384 28.7595C147.797 29.6816 149.182 30.6447 150.535 31.6471L150.238 32.0489C150.507 32.2484 150.775 32.4495 151.042 32.6522L151.345 32.2539C152.688 33.274 154.001 34.3332 155.281 35.4297L154.955 35.8094C155.21 36.0275 155.463 36.2472 155.715 36.4683L156.045 36.0925C157.312 37.2049 158.546 38.3544 159.745 39.5393L159.394 39.895C159.632 40.1306 159.869 40.3676 160.105 40.6061L160.461 40.2546C161.646 41.4536 162.795 42.6877 163.908 43.9552L163.532 44.285C163.753 44.5369 163.972 44.7902 164.191 45.0448L164.57 44.7194C165.667 45.999 166.726 47.3116 167.746 48.6555L167.348 48.9578C167.55 49.2248 167.752 49.493 167.951 49.7624L168.353 49.4649C169.355 50.8184 170.318 52.2027 171.241 53.6161L170.822 53.8893C171.005 54.17 171.186 54.4518 171.366 54.7348L171.788 54.4666C172.691 55.8876 173.554 57.3372 174.373 58.8138L173.936 59.0564C174.098 59.3496 174.259 59.6438 174.419 59.939L174.859 59.7017C175.658 61.1824 176.414 62.6894 177.126 64.2213L176.672 64.432C176.813 64.7358 176.953 65.0405 177.09 65.3462L177.546 65.1409C178.237 66.6746 178.883 68.2324 179.484 69.8128L179.016 69.9904C179.135 70.3041 179.253 70.6187 179.368 70.9342L179.838 70.7622C180.416 72.3398 180.948 73.9393 181.434 75.5591L180.955 75.7026C181.051 76.0232 181.145 76.3445 181.237 76.6666L181.718 76.5288C182.181 78.1433 182.597 79.7775 182.965 81.4298L182.477 81.5386C182.55 81.8661 182.621 82.1943 182.691 82.5233L183.18 82.4204C183.525 84.0628 183.823 85.7227 184.072 87.3986L183.578 87.4721C183.627 87.8024 183.674 88.1334 183.719 88.465L184.215 88.3974C184.441 90.0585 184.62 91.7349 184.749 93.4252L184.251 93.4633C184.277 93.7975 184.3 94.1323 184.322 94.4676L184.821 94.4354C184.929 96.1081 184.989 97.7939 184.999 99.4916L184.499 99.4945C184.5 99.6629 184.5 99.8314 184.5 100C184.5 100.169 184.5 100.337 184.499 100.505L184.999 100.508C184.989 102.206 184.929 103.892 184.821 105.565L184.322 105.532C184.3 105.868 184.277 106.202 184.251 106.537L184.749 106.575C184.62 108.265 184.441 109.941 184.215 111.603L183.719 111.535C183.674 111.867 183.627 112.198 183.578 112.528L184.072 112.601C183.823 114.277 183.525 115.937 183.18 117.58L182.691 117.477C182.621 117.806 182.55 118.134 182.477 118.461L182.965 118.57C182.597 120.222 182.181 121.857 181.718 123.471L181.237 123.333C181.145 123.655 181.051 123.977 180.955 124.297L181.434 124.441C180.948 126.061 180.416 127.66 179.838 129.238L179.368 129.066C179.253 129.381 179.135 129.696 179.016 130.01L179.484 130.187C178.883 131.768 178.237 133.325 177.546 134.859L177.09 134.654C176.953 134.959 176.813 135.264 176.672 135.568L177.126 135.779C176.414 137.311 175.658 138.818 174.859 140.298L174.419 140.061C174.259 140.356 174.098 140.65 173.936 140.944L174.373 141.186C173.554 142.663 172.691 144.112 171.788 145.533L171.366 145.265C171.186 145.548 171.005 145.83 170.822 146.111L171.241 146.384C170.318 147.797 169.355 149.182 168.353 150.535L167.951 150.238C167.752 150.507 167.55 150.775 167.348 151.042L167.746 151.345C166.726 152.688 165.667 154.001 164.57 155.281L164.191 154.955C163.972 155.21 163.753 155.463 163.532 155.715L163.908 156.045C162.795 157.312 161.646 158.546 160.461 159.745L160.105 159.394C159.869 159.632 159.632 159.869 159.394 160.105L159.745 160.461C158.546 161.646 157.312 162.795 156.045 163.908L155.715 163.532C155.463 163.753 155.21 163.972 154.955 164.191L155.281 164.57C154.001 165.667 152.688 166.726 151.345 167.746L151.042 167.348C150.775 167.55 150.507 167.752 150.238 167.951L150.535 168.353C149.182 169.355 147.797 170.318 146.384 171.241L146.111 170.822C145.83 171.005 145.548 171.186 145.265 171.366L145.533 171.788C144.112 172.691 142.663 173.554 141.186 174.373L140.944 173.936C140.65 174.098 140.356 174.259 140.061 174.419L140.298 174.859C138.818 175.658 137.311 176.414 135.779 177.126L135.568 176.672C135.264 176.813 134.96 176.953 134.654 177.09L134.859 177.546C133.325 178.237 131.768 178.883 130.187 179.484L130.01 179.016C129.696 179.135 129.381 179.253 129.066 179.368L129.238 179.838C127.66 180.416 126.061 180.948 124.441 181.434L124.297 180.955C123.977 181.051 123.655 181.145 123.333 181.237L123.471 181.718C121.857 182.181 120.222 182.597 118.57 182.965L118.461 182.477C118.134 182.55 117.806 182.621 117.477 182.691L117.58 183.18C115.937 183.525 114.277 183.823 112.601 184.072L112.528 183.578C112.198 183.627 111.867 183.674 111.535 183.719L111.603 184.215C109.941 184.441 108.265 184.62 106.575 184.749L106.537 184.251C106.202 184.277 105.868 184.3 105.532 184.322L105.565 184.821C103.892 184.929 102.206 184.989 100.508 184.999L100.505 184.499C100.337 184.5 100.169 184.5 100 184.5Z" stroke="url(#paint1_linear)" stroke-dasharray="1 5"/>
<path opacity="0.25173" d="M100 199.5C99.832 199.5 99.6641 199.5 99.4964 199.499L99.4939 199.999C97.8064 199.99 96.1288 199.94 94.462 199.849L94.4893 199.35C94.1543 199.332 93.8198 199.312 93.4857 199.29L93.4534 199.789C91.7704 199.68 90.0988 199.53 88.4395 199.339L88.4967 198.842C88.1641 198.804 87.8321 198.764 87.5006 198.723L87.4385 199.219C85.766 199.009 84.1065 198.758 82.4608 198.467L82.5479 197.975C82.2189 197.916 81.8905 197.857 81.5627 197.795L81.4706 198.287C79.8148 197.976 78.1735 197.625 76.5476 197.235L76.6644 196.748C76.3401 196.671 76.0163 196.591 75.6933 196.51L75.5715 196.995C73.9385 196.585 72.3214 196.135 70.7214 195.646L70.8676 195.167C70.548 195.07 70.2291 194.97 69.9109 194.87L69.7599 195.346C68.1555 194.838 66.5686 194.29 65.0004 193.704L65.1754 193.236C64.862 193.119 64.5494 193 64.2375 192.88L64.0577 193.346C62.4881 192.742 60.9376 192.098 59.4073 191.418L59.6105 190.961C59.3051 190.825 59.0006 190.688 58.6969 190.549L58.4891 191.004C56.9598 190.305 55.4512 189.569 53.9645 188.797L54.195 188.353C53.8987 188.199 53.6033 188.044 53.3088 187.887L53.0738 188.328C51.5902 187.539 50.1289 186.712 48.691 185.851L48.9479 185.422C48.6614 185.251 48.3758 185.078 48.0912 184.903L47.83 185.33C46.3972 184.452 44.9883 183.539 43.6044 182.592L43.8867 182.179C43.6109 181.991 43.3361 181.801 43.0622 181.609L42.7758 182.019C41.3991 181.057 40.0478 180.061 38.723 179.032L39.0297 178.637C38.7658 178.432 38.503 178.226 38.2413 178.019L37.9307 178.41C36.6149 177.367 35.3259 176.292 34.0649 175.185L34.3948 174.81C34.1437 174.589 33.8938 174.368 33.6451 174.145L33.3115 174.517C32.061 173.397 30.8388 172.247 29.6462 171.066L29.998 170.71C29.7607 170.476 29.5245 170.239 29.2895 170.002L28.9342 170.354C27.7535 169.161 26.6026 167.939 25.4827 166.688L25.8551 166.355C25.6323 166.106 25.4108 165.856 25.1905 165.605L24.8147 165.935C23.708 164.674 22.6326 163.385 21.5895 162.069L21.9814 161.759C21.7739 161.497 21.5677 161.234 21.3629 160.97L20.9679 161.277C19.9393 159.952 18.9432 158.601 17.981 157.224L18.3908 156.938C18.1994 156.664 18.0093 156.389 17.8206 156.113L17.4079 156.396C16.4611 155.012 15.5482 153.603 14.6704 152.17L15.0967 151.909C14.9223 151.624 14.7493 151.339 14.5777 151.052L14.1488 151.309C13.2876 149.871 12.4615 148.41 11.6716 146.926L12.113 146.691C11.9562 146.397 11.8008 146.101 11.6469 145.805L11.2032 146.036C10.4309 144.549 9.69473 143.04 8.99603 141.511L9.45081 141.303C9.31206 140.999 9.17479 140.695 9.03901 140.39L8.58215 140.593C7.90163 139.062 7.25842 137.512 6.65365 135.942L7.12021 135.763C7.00005 135.451 6.88141 135.138 6.7643 134.825L6.29594 135C5.70993 133.431 5.16217 131.845 4.65378 130.24L5.13042 130.089C5.02959 129.771 4.93032 129.452 4.83262 129.132L4.35447 129.279C3.86528 127.679 3.41513 126.062 3.00515 124.428L3.4901 124.307C3.40899 123.984 3.32945 123.66 3.25151 123.336L2.76535 123.452C2.37461 121.827 2.02358 120.185 1.71336 118.529L2.20481 118.437C2.14339 118.11 2.08357 117.781 2.02537 117.452L1.53302 117.539C1.24187 115.894 0.990968 114.234 0.781367 112.562L1.27749 112.499C1.23594 112.168 1.19602 111.836 1.15775 111.503L0.661025 111.561C0.470017 109.901 0.319624 108.23 0.210864 106.547L0.709823 106.514C0.688234 106.18 0.668293 105.846 0.65001 105.511L0.150753 105.538C0.0597767 103.871 0.00961632 102.194 0.00125383 100.506L0.501248 100.504C0.500416 100.336 0.5 100.168 0.5 100C0.5 99.832 0.500416 99.6641 0.501248 99.4964L0.00125381 99.4939C0.00961624 97.8064 0.0597766 96.1288 0.150753 94.462L0.65001 94.4893C0.668293 94.1543 0.688234 93.8198 0.709823 93.4857L0.210864 93.4534C0.319623 91.7704 0.470017 90.0988 0.661025 88.4395L1.15775 88.4967C1.19602 88.1641 1.23594 87.8321 1.27749 87.5006L0.781367 87.4384C0.990967 85.766 1.24187 84.1065 1.53302 82.4608L2.02537 82.5479C2.08357 82.2189 2.14339 81.8905 2.20481 81.5627L1.71336 81.4706C2.02358 79.8148 2.3746 78.1735 2.76535 76.5476L3.25151 76.6644C3.32945 76.3401 3.40899 76.0163 3.4901 75.6933L3.00515 75.5715C3.41513 73.9385 3.86527 72.3214 4.35446 70.7214L4.83261 70.8676C4.93032 70.548 5.02959 70.2291 5.13042 69.9109L4.65378 69.7599C5.16217 68.1555 5.70993 66.5686 6.29593 65.0004L6.7643 65.1754C6.88141 64.862 7.00005 64.5494 7.12021 64.2375L6.65364 64.0577C7.25841 62.4881 7.90163 60.9376 8.58214 59.4073L9.03901 59.6105C9.17478 59.3051 9.31205 59.0006 9.45081 58.6969L8.99602 58.4891C9.69473 56.9598 10.4309 55.4512 11.2032 53.9645L11.6469 54.195C11.8008 53.8987 11.9562 53.6033 12.113 53.3088L11.6716 53.0738C12.4615 51.5902 13.2876 50.1289 14.1488 48.691L14.5777 48.9479C14.7493 48.6614 14.9223 48.3758 15.0967 48.0912L14.6704 47.83C15.5482 46.3972 16.4611 44.9883 17.4079 43.6044L17.8206 43.8867C18.0093 43.6109 18.1994 43.3361 18.3908 43.0622L17.9809 42.7758C18.9432 41.3991 19.9393 40.0478 20.9679 38.723L21.3628 39.0297C21.5677 38.7658 21.7739 38.503 21.9813 38.2413L21.5895 37.9307C22.6326 36.6149 23.708 35.3259 24.8147 34.0649L25.1905 34.3948C25.4108 34.1437 25.6323 33.8938 25.8551 33.6451L25.4827 33.3115C26.6026 32.061 27.7535 30.8388 28.9342 29.6462L29.2895 29.998C29.5245 29.7607 29.7607 29.5245 29.998 29.2895L29.6462 28.9342C30.8388 27.7535 32.061 26.6026 33.3115 25.4827L33.6451 25.8551C33.8938 25.6323 34.1437 25.4108 34.3947 25.1905L34.0649 24.8147C35.3259 23.708 36.6148 22.6326 37.9307 21.5895L38.2413 21.9814C38.503 21.7739 38.7658 21.5677 39.0297 21.3629L38.723 20.9679C40.0478 19.9393 41.3991 18.9432 42.7758 17.981L43.0622 18.3908C43.336 18.1994 43.6109 18.0093 43.8867 17.8206L43.6044 17.4079C44.9883 16.4611 46.3972 15.5482 47.83 14.6704L48.0912 15.0967C48.3758 14.9223 48.6614 14.7493 48.9479 14.5777L48.691 14.1488C50.1289 13.2876 51.5902 12.4615 53.0738 11.6716L53.3088 12.113C53.6033 11.9562 53.8987 11.8008 54.195 11.6469L53.9645 11.2032C55.4512 10.4309 56.9598 9.69473 58.4891 8.99603L58.6969 9.45081C59.0006 9.31206 59.3051 9.17479 59.6104 9.03901L59.4073 8.58215C60.9376 7.90163 62.4881 7.25841 64.0577 6.65365L64.2375 7.12021C64.5494 7.00005 64.862 6.88141 65.1754 6.7643L65.0004 6.29593C66.5686 5.70993 68.1555 5.16217 69.7599 4.65378L69.9109 5.13042C70.2291 5.02959 70.548 4.93032 70.8676 4.83262L70.7214 4.35447C72.3214 3.86528 73.9385 3.41513 75.5715 3.00515L75.6933 3.4901C76.0163 3.40899 76.3401 3.32945 76.6644 3.25151L76.5476 2.76535C78.1735 2.3746 79.8148 2.02358 81.4706 1.71336L81.5626 2.20481C81.8905 2.14339 82.2189 2.08357 82.5479 2.02537L82.4608 1.53302C84.1064 1.24187 85.766 0.990968 87.4384 0.781367L87.5006 1.27749C87.8321 1.23594 88.1641 1.19602 88.4967 1.15775L88.4395 0.661025C90.0988 0.470017 91.7704 0.319624 93.4534 0.210864L93.4857 0.709823C93.8198 0.688234 94.1543 0.668293 94.4893 0.65001L94.462 0.150753C96.1288 0.0597767 97.8064 0.00961632 99.4939 0.00125383L99.4964 0.501248C99.6641 0.500416 99.832 0.5 100 0.5C100.168 0.5 100.336 0.500416 100.504 0.501248L100.506 0.00125381C102.194 0.00961624 103.871 0.0597767 105.538 0.150753L105.511 0.65001C105.846 0.668293 106.18 0.688234 106.514 0.709823L106.547 0.210864C108.23 0.319623 109.901 0.470017 111.561 0.661025L111.503 1.15775C111.836 1.19602 112.168 1.23594 112.499 1.27749L112.562 0.781367C114.234 0.990967 115.894 1.24187 117.539 1.53302L117.452 2.02537C117.781 2.08357 118.11 2.14339 118.437 2.20481L118.529 1.71336C120.185 2.02358 121.827 2.3746 123.452 2.76535L123.336 3.25151C123.66 3.32945 123.984 3.40899 124.307 3.4901L124.428 3.00515C126.062 3.41513 127.679 3.86527 129.279 4.35446L129.132 4.83261C129.452 4.93032 129.771 5.02959 130.089 5.13042L130.24 4.65378C131.845 5.16217 133.431 5.70993 135 6.29594L134.825 6.7643C135.138 6.88141 135.451 7.00005 135.762 7.12021L135.942 6.65365C137.512 7.25841 139.062 7.90163 140.593 8.58215L140.39 9.03901C140.695 9.17478 140.999 9.31205 141.303 9.45081L141.511 8.99602C143.04 9.69473 144.549 10.4309 146.036 11.2032L145.805 11.6469C146.101 11.8008 146.397 11.9562 146.691 12.113L146.926 11.6716C148.41 12.4615 149.871 13.2876 151.309 14.1488L151.052 14.5777C151.339 14.7493 151.624 14.9223 151.909 15.0967L152.17 14.6704C153.603 15.5482 155.012 16.4611 156.396 17.4079L156.113 17.8206C156.389 18.0093 156.664 18.1994 156.938 18.3908L157.224 17.981C158.601 18.9432 159.952 19.9393 161.277 20.9679L160.97 21.3628C161.234 21.5677 161.497 21.7739 161.759 21.9813L162.069 21.5895C163.385 22.6326 164.674 23.708 165.935 24.8147L165.605 25.1905C165.856 25.4108 166.106 25.6323 166.355 25.8551L166.688 25.4827C167.939 26.6026 169.161 27.7535 170.354 28.9342L170.002 29.2895C170.239 29.5245 170.475 29.7607 170.71 29.998L171.066 29.6462C172.247 30.8388 173.397 32.061 174.517 33.3115L174.145 33.6451C174.368 33.8938 174.589 34.1437 174.81 34.3947L175.185 34.0649C176.292 35.3259 177.367 36.6148 178.41 37.9307L178.019 38.2413C178.226 38.503 178.432 38.7658 178.637 39.0297L179.032 38.723C180.061 40.0478 181.057 41.3991 182.019 42.7758L181.609 43.0622C181.801 43.336 181.991 43.6109 182.179 43.8867L182.592 43.6044C183.539 44.9883 184.452 46.3972 185.33 47.8299L184.903 48.0912C185.078 48.3758 185.251 48.6614 185.422 48.9479L185.851 48.691C186.712 50.1289 187.539 51.5902 188.328 53.0738L187.887 53.3088C188.044 53.6033 188.199 53.8987 188.353 54.195L188.797 53.9645C189.569 55.4512 190.305 56.9598 191.004 58.4891L190.549 58.6969C190.688 59.0006 190.825 59.3051 190.961 59.6104L191.418 59.4073C192.098 60.9376 192.742 62.4881 193.346 64.0577L192.88 64.2375C193 64.5494 193.119 64.862 193.236 65.1754L193.704 65.0004C194.29 66.5686 194.838 68.1555 195.346 69.7599L194.87 69.9109C194.97 70.2291 195.07 70.548 195.167 70.8676L195.646 70.7214C196.135 72.3214 196.585 73.9385 196.995 75.5715L196.51 75.6933C196.591 76.0163 196.671 76.3401 196.748 76.6644L197.235 76.5476C197.625 78.1735 197.976 79.8148 198.287 81.4706L197.795 81.5626C197.857 81.8905 197.916 82.2189 197.975 82.5479L198.467 82.4608C198.758 84.1064 199.009 85.766 199.219 87.4385L198.723 87.5006C198.764 87.8321 198.804 88.1641 198.842 88.4967L199.339 88.4395C199.53 90.0988 199.68 91.7704 199.789 93.4534L199.29 93.4857C199.312 93.8198 199.332 94.1543 199.35 94.4893L199.849 94.462C199.94 96.1288 199.99 97.8064 199.999 99.4939L199.499 99.4964C199.5 99.6641 199.5 99.832 199.5 100C199.5 100.168 199.5 100.336 199.499 100.504L199.999 100.506C199.99 102.194 199.94 103.871 199.849 105.538L199.35 105.511C199.332 105.846 199.312 106.18 199.29 106.514L199.789 106.547C199.68 108.23 199.53 109.901 199.339 111.561L198.842 111.503C198.804 111.836 198.764 112.168 198.723 112.499L199.219 112.562C199.009 114.234 198.758 115.894 198.467 117.539L197.975 117.452C197.916 117.781 197.857 118.11 197.795 118.437L198.287 118.529C197.976 120.185 197.625 121.827 197.235 123.452L196.748 123.336C196.671 123.66 196.591 123.984 196.51 124.307L196.995 124.428C196.585 126.062 196.135 127.679 195.646 129.279L195.167 129.132C195.07 129.452 194.97 129.771 194.87 130.089L195.346 130.24C194.838 131.845 194.29 133.431 193.704 135L193.236 134.825C193.119 135.138 193 135.451 192.88 135.762L193.346 135.942C192.742 137.512 192.098 139.062 191.418 140.593L190.961 140.39C190.825 140.695 190.688 140.999 190.549 141.303L191.004 141.511C190.305 143.04 189.569 144.549 188.797 146.036L188.353 145.805C188.199 146.101 188.044 146.397 187.887 146.691L188.328 146.926C187.539 148.41 186.712 149.871 185.851 151.309L185.422 151.052C185.251 151.339 185.078 151.624 184.903 151.909L185.33 152.17C184.452 153.603 183.539 155.012 182.592 156.396L182.179 156.113C181.991 156.389 181.801 156.664 181.609 156.938L182.019 157.224C181.057 158.601 180.061 159.952 179.032 161.277L178.637 160.97C178.432 161.234 178.226 161.497 178.019 161.759L178.41 162.069C177.367 163.385 176.292 164.674 175.185 165.935L174.81 165.605C174.589 165.856 174.368 166.106 174.145 166.355L174.517 166.688C173.397 167.939 172.247 169.161 171.066 170.354L170.71 170.002C170.476 170.239 170.239 170.475 170.002 170.71L170.354 171.066C169.161 172.247 167.939 173.397 166.688 174.517L166.355 174.145C166.106 174.368 165.856 174.589 165.605 174.81L165.935 175.185C164.674 176.292 163.385 177.367 162.069 178.41L161.759 178.019C161.497 178.226 161.234 178.432 160.97 178.637L161.277 179.032C159.952 180.061 158.601 181.057 157.224 182.019L156.938 181.609C156.664 181.801 156.389 181.991 156.113 182.179L156.396 182.592C155.012 183.539 153.603 184.452 152.17 185.33L151.909 184.903C151.624 185.078 151.339 185.251 151.052 185.422L151.309 185.851C149.871 186.712 148.41 187.539 146.926 188.328L146.691 187.887C146.397 188.044 146.101 188.199 145.805 188.353L146.036 188.797C144.549 189.569 143.04 190.305 141.511 191.004L141.303 190.549C140.999 190.688 140.695 190.825 140.39 190.961L140.593 191.418C139.062 192.098 137.512 192.742 135.942 193.346L135.763 192.88C135.451 193 135.138 193.119 134.825 193.236L135 193.704C133.431 194.29 131.845 194.838 130.24 195.346L130.089 194.87C129.771 194.97 129.452 195.07 129.132 195.167L129.279 195.646C127.679 196.135 126.062 196.585 124.428 196.995L124.307 196.51C123.984 196.591 123.66 196.671 123.336 196.748L123.452 197.235C121.827 197.625 120.185 197.976 118.529 198.287L118.437 197.795C118.11 197.857 117.781 197.916 117.452 197.975L117.539 198.467C115.894 198.758 114.234 199.009 112.562 199.219L112.499 198.723C112.168 198.764 111.836 198.804 111.503 198.842L111.561 199.339C109.901 199.53 108.23 199.68 106.547 199.789L106.514 199.29C106.18 199.312 105.846 199.332 105.511 199.35L105.538 199.849C103.871 199.94 102.194 199.99 100.506 199.999L100.504 199.499C100.336 199.5 100.168 199.5 100 199.5Z" stroke="url(#paint2_linear)" stroke-dasharray="1 5"/>
<defs>
<linearGradient id="paint0_linear" x1="30" y1="170" x2="196.955" y2="80.0084" gradientUnits="userSpaceOnUse">
<stop stop-color="#9000FF"/>
<stop offset="1" stop-color="#482EF6"/>
</linearGradient>
<linearGradient id="paint1_linear" x1="15" y1="185" x2="217.731" y2="75.7245" gradientUnits="userSpaceOnUse">
<stop stop-color="#9000FF"/>
<stop offset="1" stop-color="#482EF6"/>
</linearGradient>
<linearGradient id="paint2_linear" x1="-2.98023e-06" y1="200" x2="238.508" y2="71.4405" gradientUnits="userSpaceOnUse">
<stop stop-color="#9000FF"/>
<stop offset="1" stop-color="#482EF6"/>
</linearGradient>
</defs>
</svg>
