<svg xmlns="http://www.w3.org/2000/svg" width="52" height="52" fill="none" viewBox="0 0 52 52">
    <path fill-rule="evenodd" stroke="url(#a)" stroke-width="1.5" d="M26 51.243c13.941 0 25.243-11.302 25.243-25.243C51.243 12.059 39.94.757 26 .757 12.059.757.757 12.06.757 26 .757 39.941 12.06 51.243 26 51.243z" clip-rule="evenodd"/>
    <path fill="url(#b)" fill-rule="evenodd" d="M26.757 18.932a.757.757 0 0 0-1.514 0v6.31h-6.311a.757.757 0 0 0 0 1.515h6.31v6.311a.757.757 0 1 0 1.515 0v-6.31h6.311a.757.757 0 0 0 0-1.515h-6.31v-6.311z" clip-rule="evenodd"/>
    <defs>
        <linearGradient id="a" x1="26" x2="76.485" y1="76.485" y2="26" gradientUnits="userSpaceOnUse">
            <stop stop-color="#00CFFF"/>
            <stop offset="1" stop-color="#0065FF"/>
            <stop offset="1" stop-color="#005BEC"/>
        </linearGradient>
        <linearGradient id="b" x1="26" x2="41.651" y1="41.651" y2="26" gradientUnits="userSpaceOnUse">
            <stop stop-color="#00CFFF"/>
            <stop offset="1" stop-color="#0065FF"/>
            <stop offset="1" stop-color="#005BEC"/>
        </linearGradient>
    </defs>
</svg>
