<svg width="14" height="14" viewBox="0 0 14 14" fill="none" xmlns="http://www.w3.org/2000/svg">
<path d="M8.70533 2.33661L11.5534 5.1985L4.34461 12.4418L1.49817 9.58103L8.70533 2.33661ZM13.7144 1.64616L12.4443 0.369983C12.3276 0.252721 12.1889 0.159671 12.0361 0.0961783C11.8833 0.0326852 11.7195 0 11.5541 0C11.3887 0 11.2249 0.0326852 11.0721 0.0961783C10.9193 0.159671 10.7806 0.252721 10.6639 0.369983L9.44743 1.59256L12.2952 4.45445L13.7144 3.02843C13.8973 2.84493 14 2.5964 14 2.33729C14 2.07819 13.8973 1.82966 13.7144 1.64616ZM0.00795419 13.6037C-0.00417437 13.6575 -0.00240844 13.7135 0.0130856 13.7664C0.0285797 13.8193 0.0572917 13.8675 0.0965169 13.9062C0.135742 13.945 0.184189 13.9731 0.237294 13.988C0.290398 14.0028 0.346412 14.0039 0.400058 13.9912L3.57353 13.2179L0.727085 10.356L0.00795419 13.6037Z" fill="#E2E2E2"/>
</svg>
