<svg xmlns="http://www.w3.org/2000/svg" width="21" height="21" fill="none" viewBox="0 0 21 21">
    <path fill="url(#a)" d="M9.846 10.419v10.575H2.043c-.1 0-.194 0-.295-.018-.45-.08-.737-.493-.737-.93v-9.409c0-.118.1-.218.219-.218h.03c.241-.007.484 0 .724 0h7.862z"/>
    <path fill="url(#b)" d="M19.994 10.637v9.402c0 .42-.25.804-.667.92-.226.063-.499.035-.73.035h-7.439v-9.502l.003-.637v-.218-.218h8.614c.068 0 .12.026.155.065a.202.202 0 0 1 .064.153z"/>
    <path fill="url(#c)" d="M21 6.845a1.216 1.216 0 0 0-1.214-1.182c-.092-.002-.186.002-.278.002h-3.44c.088-.109.17-.227.245-.346.724-1.152.693-2.741-.12-3.842A3.656 3.656 0 0 0 14.52.206c-.645-.245-1.384-.264-2.05-.096-.789.2-1.493.693-1.968 1.347A3.643 3.643 0 0 0 8.94.245c-1.275-.526-2.82-.172-3.773.807a3.43 3.43 0 0 0-.92 1.735c-.14.741-.05 1.474.255 2.165.114.255.263.495.438.713h-3.68c-.43 0-.823.186-1.061.548-.248.372-.193.837-.193 1.26V9.3c0 .118.1.225.219.225h19.724c.267 0 .533.002.798-.003l.035-.002c.118 0 .219-.1.219-.22V6.858v-.013zM9.846 5.665H7.775a3.81 3.81 0 0 1-.223-.006c-.054-.002-.11-.007-.164-.011a2.993 2.993 0 0 1-.564-.15 2.66 2.66 0 0 1-.496-.29l.03.023c-.006-.006-.02-.015-.037-.028l-.024-.017c.004.004.01.006.013.008.004.005.009.007.013.011-.002-.002-.004-.002-.004-.004a2.787 2.787 0 0 1-.374-.368c0-.003-.005-.005-.007-.007a2.835 2.835 0 0 1-.293-.497 3.03 3.03 0 0 1-.15-.552l.01.098c-.006-.059-.015-.115-.024-.174.005.026.009.05.011.076a2.92 2.92 0 0 1 0-.586.8.8 0 0 0-.01.076l.023-.175a1.5 1.5 0 0 0-.01.099c.032-.19.082-.373.15-.552a2.865 2.865 0 0 1 .285-.484c-.011.013-.025.03-.031.04l.033-.045a.602.602 0 0 0 .017-.024l-.009.014c-.004.004-.006.01-.01.015l.004-.007a2.82 2.82 0 0 1 .372-.373c.002 0 .004-.004.006-.006-.006.004-.01.009-.015.01-.013.01-.02.014-.02.016a.563.563 0 0 1 .048-.037c-.004.004-.006.009-.01.01.032-.023.065-.047.1-.069.127-.085.26-.157.398-.22.18-.068.365-.12.556-.15.183-.018.37-.02.555-.003l.035.002a1.256 1.256 0 0 1-.037-.006h-.005c-.01-.002-.021-.004-.035-.004l.114.015c.009 0 .015.002.024.004h.007L8 1.335l-.031-.002c-.004 0-.007 0-.011-.002h.004c.188.032.37.082.547.15a3.048 3.048 0 0 1 .492.288c-.01-.011-.033-.026-.041-.033.006.005.02.013.043.033.016.01.027.02.033.026l-.024-.017-.01-.01.001.003a2.607 2.607 0 0 1 .372.37c0 .003.005.005.007.007a2.834 2.834 0 0 1 .293.497c.068.18.118.365.15.552a1.493 1.493 0 0 0-.01-.098l.024.174a.864.864 0 0 1-.011-.074c.009.096.015.194.015.29v2.176h.002zm5.671-1.962l-.024.174c.004-.032.009-.065.01-.098-.032.19-.082.375-.152.554a2.64 2.64 0 0 1-.285.484.257.257 0 0 1 .033-.04c-.002.003-.01.016-.035.047a.255.255 0 0 1-.017.021c.004-.004.006-.01.009-.013.004-.004.006-.01.01-.015-.002.002-.004.004-.004.007a2.6 2.6 0 0 1-.372.37c-.002 0-.004.002-.006.007l.015-.011c.046-.033.007-.004-.026.022l.01-.011a2.846 2.846 0 0 1-.499.292c-.19.072-.384.124-.583.157l.05-.004-.096.01.044-.006a3.696 3.696 0 0 1-.16.01c-.116.005-.23.007-.345.007h-1.935V3.485c0-.098.006-.196.015-.292a.823.823 0 0 0-.011.074l.024-.175a1.485 1.485 0 0 0-.011.099c.033-.19.083-.376.153-.554.061-.133.131-.262.214-.382.022-.035.046-.067.07-.102l-.024.03c.007-.006.016-.02.029-.037l.017-.024c-.004.004-.006.011-.008.013l-.011.013c.002-.002.002-.004.004-.004a2.808 2.808 0 0 1 .37-.373c.002 0 .004-.004.006-.006.033-.024.066-.048.1-.07.127-.085.259-.157.399-.22.177-.068.36-.118.549-.15h.004l-.01.001a.191.191 0 0 0-.036.005h-.004l-.024.002h.006l.018-.002c.004 0 .008 0 .013-.003l.114-.015-.04.007h-.002l-.037.006.035-.002c.184-.017.37-.015.553.002.19.033.374.083.553.15.134.062.263.134.388.214.035.022.067.046.102.07l-.03-.024c.006.007.02.015.037.029l.024.017-.013-.009-.013-.01c.002.002.004.002.004.004a2.84 2.84 0 0 1 .374.37c0 .003.004.005.006.007l-.01-.015-.016-.022.038.048c-.005-.005-.01-.007-.011-.011.024.033.048.065.07.1.085.127.16.26.223.397.067.179.118.364.15.552l-.01-.098c.006.058.015.115.024.174-.005-.026-.01-.05-.011-.076.02.194.02.39 0 .586-.002-.026.002-.052.004-.076z"/>
    <defs>
        <linearGradient id="a" x1="9.58" x2="-.497" y1="10.416" y2="12.13" gradientUnits="userSpaceOnUse">
            <stop stop-color="#F61280"/>
            <stop offset="1" stop-color="#EA57DB"/>
        </linearGradient>
        <linearGradient id="b" x1="19.727" x2="9.65" y1="10.419" y2="12.133" gradientUnits="userSpaceOnUse">
            <stop stop-color="#F61280"/>
            <stop offset="1" stop-color="#EA57DB"/>
        </linearGradient>
        <linearGradient id="c" x1="20.366" x2="-.142" y2="9.209" gradientUnits="userSpaceOnUse">
            <stop stop-color="#F61280"/>
            <stop offset="1" stop-color="#EA57DB"/>
        </linearGradient>
    </defs>
</svg>
