<svg xmlns="http://www.w3.org/2000/svg" width="19" height="36" fill="none" viewBox="0 0 19 36">
    <path fill="url(#a)" fill-rule="evenodd" d="M3.833 25.026L.326 26.477A.227.227 0 0 1 0 26.255v-3.107a3.627 3.627 0 0 1 1.205-2.68l1.048-.945c-.744-4.992.07-11.632 5.77-18.93a1.511 1.511 0 0 1 2.404.006c5.709 7.294 6.523 13.93 5.77 18.93l1.054.943a3.627 3.627 0 0 1 1.195 2.69v3.108a.227.227 0 0 1-.314.212l-3.507-1.451c-.427.985-.93 1.934-1.507 2.84l-.336.52-7.11-.003-.333-.522a20.248 20.248 0 0 1-1.507-2.84zm5.395-15.019a2.72 2.72 0 1 0-.003 5.44 2.72 2.72 0 0 0 .003-5.44z" clip-rule="evenodd"/>
    <path stroke="url(#b)" stroke-linecap="round" stroke-linejoin="round" d="M6.823 30.687v3.201"/>
    <path stroke="url(#c)" stroke-linecap="round" stroke-linejoin="round" d="M9.224 30.687v4.802"/>
    <path stroke="url(#d)" stroke-linecap="round" stroke-linejoin="round" d="M11.624 30.687v3.201"/>
    <defs>
        <linearGradient id="a" x1="27.331" x2="27.331" y1="35.59" y2="-.626" gradientUnits="userSpaceOnUse">
            <stop stop-color="#00CFFF"/>
            <stop offset="1" stop-color="#0065FF"/>
            <stop offset="1" stop-color="#005BEC"/>
        </linearGradient>
        <linearGradient id="b" x1="6.823" x2="10.353" y1="36.289" y2="34.171" gradientUnits="userSpaceOnUse">
            <stop stop-color="#00CFFF"/>
            <stop offset="1" stop-color="#0065FF"/>
            <stop offset="1" stop-color="#005BEC"/>
        </linearGradient>
        <linearGradient id="c" x1="9.224" x2="12.105" y1="37.89" y2="36.929" gradientUnits="userSpaceOnUse">
            <stop stop-color="#00CFFF"/>
            <stop offset="1" stop-color="#0065FF"/>
            <stop offset="1" stop-color="#005BEC"/>
        </linearGradient>
        <linearGradient id="d" x1="11.624" x2="15.155" y1="36.289" y2="34.171" gradientUnits="userSpaceOnUse">
            <stop stop-color="#00CFFF"/>
            <stop offset="1" stop-color="#0065FF"/>
            <stop offset="1" stop-color="#005BEC"/>
        </linearGradient>
    </defs>
</svg>
