<svg width="14" height="12" viewBox="0 0 14 12" fill="none" xmlns="http://www.w3.org/2000/svg">
<path fill-rule="evenodd" clip-rule="evenodd" d="M8.09625 1C5.335 1 3.09625 3.23875 3.09625 6C3.09625 6.30438 3.12625 6.60125 3.17875 6.89062L1.4425 5.15375L1 5.59625L3.5 8.09625L3.50187 8.09438L3.72125 8.31437L3.94062 8.09438L3.9425 8.09625L6.4425 5.59625L6 5.15375L3.90313 7.25125C3.7825 6.8475 3.72125 6.42812 3.72125 6C3.72125 3.5875 5.68375 1.625 8.09625 1.625C10.5087 1.625 12.4712 3.5875 12.4712 6C12.4712 8.4125 10.5087 10.375 8.09625 10.375V11C10.8575 11 13.0962 8.76125 13.0962 6C13.0962 3.23875 10.8575 1 8.09625 1Z" fill="white"/>
<path d="M8.09625 1C5.335 1 3.09625 3.23875 3.09625 6C3.09625 6.30437 3.12625 6.60125 3.17875 6.89062L1.4425 5.15375L1 5.59625L3.5 8.09625L3.50187 8.09438L3.72125 8.31437L3.94062 8.09438L3.9425 8.09625L6.4425 5.59625L6 5.15375L3.90313 7.25125C3.7825 6.8475 3.72125 6.42812 3.72125 6C3.72125 3.5875 5.68375 1.625 8.09625 1.625C10.5087 1.625 12.4712 3.5875 12.4712 6C12.4712 8.4125 10.5087 10.375 8.09625 10.375V11C10.8575 11 13.0962 8.76125 13.0962 6C13.0962 3.23875 10.8575 1 8.09625 1" stroke="white" stroke-width="0.35"/>
</svg>
