<svg width="122" height="122" viewBox="0 0 122 122" fill="none" xmlns="http://www.w3.org/2000/svg">
<path fill-rule="evenodd" clip-rule="evenodd" d="M122 61C122 94.6894 94.6894 122 61 122C27.3106 122 0 94.6894 0 61C0 27.3106 27.3106 0 61 0C94.6894 0 122 27.3106 122 61ZM85.075 51.0462C85.6527 50.4525 85.6398 49.5028 85.0462 48.925C84.4525 48.3473 83.5028 48.3601 82.925 48.9538L54.803 77.8493L38.075 60.6611C37.4972 60.0675 36.5475 60.0546 35.9538 60.6324C35.3601 61.2102 35.3473 62.1598 35.925 62.7535L53.7281 81.0462L54.803 82.1507L55.878 81.0462L85.075 51.0462Z" fill="url(#paint0_linear)"/>
<defs>
<linearGradient id="paint0_linear" x1="-1.81794e-06" y1="122" x2="145.489" y2="43.5772" gradientUnits="userSpaceOnUse">
<stop stop-color="#F7BB25"/>
<stop offset="1" stop-color="#FF2424"/>
</linearGradient>
</defs>
</svg>
