<svg width="18" height="18" viewBox="0 0 18 18" fill="none" xmlns="http://www.w3.org/2000/svg">
<path d="M17.114 16.3951L12.83 11.9395C13.9315 10.6301 14.535 8.98262 14.535 7.26749C14.535 3.26026 11.2747 0 7.26749 0C3.26026 0 0 3.26026 0 7.26749C0 11.2747 3.26026 14.535 7.26749 14.535C8.77186 14.535 10.2055 14.0812 11.4311 13.2199L15.7477 17.7093C15.9281 17.8967 16.1708 18 16.4309 18C16.677 18 16.9105 17.9062 17.0878 17.7355C17.4644 17.3731 17.4764 16.7721 17.114 16.3951ZM7.26749 1.89587C10.2295 1.89587 12.6391 4.30552 12.6391 7.26749C12.6391 10.2295 10.2295 12.6391 7.26749 12.6391C4.30552 12.6391 1.89587 10.2295 1.89587 7.26749C1.89587 4.30552 4.30552 1.89587 7.26749 1.89587Z" fill="#222222"/>
</svg>
