<svg xmlns="http://www.w3.org/2000/svg" width="14" height="8" fill="none" viewBox="0 0 14 8">
    <path fill="url(#a)" d="M7 0C4.463 0 1.925 1.313 0 3.938c3.872 5.25 10.128 5.25 14 0C12.075 1.312 9.537 0 7 0zm-.875 2.188c.481 0 .875.393.875.874a.878.878 0 0 1-.875.876.878.878 0 0 1-.875-.876c0-.48.394-.874.875-.874zM7 6.561c-1.947 0-3.806-.918-5.316-2.625.92-1.028 1.947-1.771 3.041-2.187-.24.394-.35.831-.35 1.313A2.633 2.633 0 0 0 7 5.687a2.633 2.633 0 0 0 2.625-2.625c0-.48-.131-.94-.35-1.312 1.094.438 2.144 1.16 3.04 2.188C10.807 5.643 8.948 6.562 7 6.562z"/>
    <defs>
        <linearGradient id="a" x1="7" x2="13.73" y1="11.813" y2="-.152" gradientUnits="userSpaceOnUse">
            <stop stop-color="#00CFFF"/>
            <stop offset="1" stop-color="#0065FF"/>
            <stop offset="1" stop-color="#005BEC"/>
        </linearGradient>
    </defs>
</svg>
