<svg width="16" height="16" viewBox="0 0 16 16" fill="none" xmlns="http://www.w3.org/2000/svg">
<path d="M10.0684 4.32031V6.0625H10.0449C9.45508 5.19921 8.60352 4.76758 7.49023 4.76758C6.51367 4.76758 5.6836 5.09375 5 5.74609C4.30859 6.40625 3.96289 7.2246 3.96289 8.20117C3.96289 9.18555 4.30468 10.0078 4.98828 10.668C5.66797 11.3281 6.50195 11.6582 7.49023 11.6582C8.60743 11.6582 9.45898 11.2207 10.0449 10.3457H10.0684V11.5H10.9121V4.32031H11.6562V3.5H10.9121V2.61719H10.0684V3.5H8V4.32031H10.0684ZM4 0H12C14.2091 0 16 1.79086 16 4V12C16 14.2091 14.2091 16 12 16H4C1.79086 16 0 14.2091 0 12V4C0 1.79086 1.79086 0 4 0ZM11 13H5V13.8203H11V13ZM9.36523 6.32617C9.86914 6.85352 10.1211 7.48632 10.1211 8.22461C10.1211 8.96289 9.86914 9.59179 9.36523 10.1113C8.85351 10.6387 8.22852 10.9023 7.49023 10.9023C6.7207 10.9023 6.08008 10.6504 5.56836 10.1465C5.05664 9.63867 4.80078 9.00196 4.80078 8.23633C4.80078 7.45898 5.05469 6.8125 5.5625 6.29688C6.07031 5.78125 6.71289 5.52344 7.49023 5.52344C8.22852 5.52344 8.85351 5.79101 9.36523 6.32617Z" fill="#222222"/>
</svg>
