<svg width="22" height="22" viewBox="0 0 22 22" fill="none" xmlns="http://www.w3.org/2000/svg">
<path fill-rule="evenodd" clip-rule="evenodd" d="M5 0C2.23858 0 0 2.23858 0 5V17C0 19.7614 2.23858 22 5 22H17C19.7614 22 22 19.7614 22 17V5C22 2.23858 19.7614 0 17 0H5ZM13.844 14.2253V15.8125H15.0042V5.94043H16.0273V4.8125H15.0042V3.59863H13.844V4.8125H11V5.94043H13.844V8.33594H13.8118C13.0007 7.14892 11.8298 6.55542 10.2991 6.55542C8.95629 6.55542 7.81495 7.0039 6.875 7.90088C5.92431 8.8086 5.44897 9.93383 5.44897 11.2766C5.44897 12.6301 5.91894 13.7607 6.85889 14.6685C7.79346 15.5762 8.94018 16.03 10.2991 16.03C11.8352 16.03 13.0061 15.4285 13.8118 14.2253H13.844ZM15.125 19.0029V17.875H6.875V19.0029H15.125Z" fill="white"/>
<path d="M12.8772 8.69849C12.1736 7.96264 11.3142 7.59473 10.2991 7.59473C9.23022 7.59473 8.34668 7.94922 7.64844 8.6582C6.95019 9.36719 6.60107 10.2561 6.60107 11.325C6.60107 12.3777 6.95288 13.2532 7.65649 13.9514C8.36011 14.6443 9.24096 14.9907 10.2991 14.9907C11.3142 14.9907 12.1736 14.6282 12.8772 13.9031C13.5701 13.1887 13.9165 12.324 13.9165 11.3088C13.9165 10.2937 13.5701 9.42359 12.8772 8.69849Z" fill="white"/>
</svg>
