<svg width="15" height="15" viewBox="0 0 15 15" fill="none" xmlns="http://www.w3.org/2000/svg">
<path d="M9.43909 4.05029V5.68359H9.41711C8.86413 4.87426 8.0658 4.4696 7.02209 4.4696C6.10656 4.4696 5.32837 4.77539 4.6875 5.38696C4.0393 6.00586 3.71521 6.77307 3.71521 7.6886C3.71521 8.61145 4.03564 9.38232 4.67651 10.0012C5.31372 10.6201 6.09558 10.9296 7.02209 10.9296C8.06946 10.9296 8.86779 10.5194 9.41711 9.6991H9.43909V10.7812H10.2301V4.05029H10.9277V3.28125H10.2301V2.45361H9.43909V3.28125H7.5V4.05029H9.43909ZM3.75 0H11.25C13.3211 0 15 1.67893 15 3.75V11.25C15 13.3211 13.3211 15 11.25 15H3.75C1.67893 15 0 13.3211 0 11.25V3.75C0 1.67893 1.67893 0 3.75 0ZM10.3125 12.1875H4.6875V12.9565H10.3125V12.1875ZM8.77991 5.93079C9.25232 6.42517 9.48853 7.01843 9.48853 7.71057C9.48853 8.40271 9.25232 8.99231 8.77991 9.47937C8.30017 9.97376 7.71424 10.2209 7.02209 10.2209C6.30066 10.2209 5.70008 9.98474 5.22034 9.51233C4.7406 9.03625 4.50073 8.43933 4.50073 7.72156C4.50073 6.99279 4.73877 6.38672 5.21484 5.90332C5.69092 5.41992 6.29333 5.17822 7.02209 5.17822C7.71424 5.17822 8.30017 5.42907 8.77991 5.93079Z" fill="#0075FF"/>
</svg>
