<svg xmlns="http://www.w3.org/2000/svg" width="23" height="22" fill="none" viewBox="0 0 23 22">
    <g clip-path="url(#a)">
        <path fill="#222" d="M13.902 5.94v2.396h-.033c-.814-1.187-1.99-1.78-3.527-1.78-1.348 0-2.494.448-3.438 1.345-.955.908-1.432 2.033-1.432 3.376 0 1.353.472 2.484 1.415 3.392.939.907 2.09 1.361 3.455 1.361 1.542 0 2.718-.602 3.527-1.805h.033v1.588h1.165V5.94h1.027V4.812h-1.027V3.6h-1.165v1.213h-2.856V5.94h2.856zM5.522 0H16.57c3.05 0 5.523 2.462 5.523 5.5v11c0 3.038-2.473 5.5-5.523 5.5H5.523C2.473 22 0 19.538 0 16.5v-11C0 2.462 2.473 0 5.523 0zm9.666 17.875H6.904v1.128h8.284v-1.128zm-2.257-9.177c.696.726 1.044 1.596 1.044 2.61 0 1.016-.348 1.88-1.044 2.595-.707.725-1.57 1.088-2.589 1.088-1.063 0-1.947-.347-2.654-1.04-.706-.698-1.06-1.573-1.06-2.626 0-1.069.351-1.958 1.052-2.667.701-.709 1.589-1.063 2.662-1.063 1.02 0 1.882.368 2.589 1.103z"/>
    </g>
    <defs>
        <clipPath id="a">
            <path fill="#fff" d="M0 0h22.092v22H0z"/>
        </clipPath>
    </defs>
</svg>
