<svg width="18" height="18" viewBox="0 0 18 18" fill="none" xmlns="http://www.w3.org/2000/svg">
<path d="M11.5771 6.31848H6.33179V7.60305H11.5771V6.31848Z" fill="white"/>
<path d="M14.5745 9.31555H6.33179V10.6001H14.5745V9.31555Z" fill="white"/>
<path d="M17.4003 0.665929C17.2878 0.616349 17.1635 0.60008 17.0421 0.619055C16.9206 0.63803 16.8072 0.691451 16.7152 0.772976L14.9168 2.35728L13.1184 0.751567C13.0006 0.646242 12.8482 0.588013 12.6902 0.588013C12.5322 0.588013 12.3798 0.646242 12.262 0.751567L10.4636 2.35728L8.66522 0.751567C8.54746 0.646242 8.39502 0.588013 8.23703 0.588013C8.07904 0.588013 7.9266 0.646242 7.80884 0.751567L6.01044 2.35728L4.21204 0.772976C4.11876 0.689493 4.00312 0.635087 3.87933 0.616449C3.75555 0.59781 3.62901 0.615751 3.51528 0.668065C3.40156 0.720379 3.3056 0.804786 3.2392 0.910908C3.17281 1.01703 3.13887 1.14024 3.14156 1.2654V12.6767H0.936381C0.766036 12.6767 0.602668 12.7443 0.482216 12.8648C0.361764 12.9852 0.294095 13.1486 0.294095 13.319V14.8818C0.288031 15.6793 0.593373 16.4477 1.14516 17.0234C1.69694 17.5992 2.45161 17.937 3.24861 17.9648H14.7027C15.5147 17.9648 16.2934 17.6423 16.8676 17.0681C17.4417 16.494 17.7643 15.7152 17.7643 14.9033V1.2654C17.7682 1.14095 17.7359 1.01803 17.6713 0.911603C17.6067 0.805173 17.5126 0.71982 17.4003 0.665929ZM16.4797 14.9033C16.4797 15.3774 16.2914 15.8321 15.9561 16.1673C15.6208 16.5026 15.1661 16.691 14.692 16.691C14.2179 16.691 13.7632 16.5026 13.4279 16.1673C13.0927 15.8321 12.9043 15.3774 12.9043 14.9033V13.319C12.9043 13.1486 12.8366 12.9852 12.7162 12.8648C12.5957 12.7443 12.4324 12.6767 12.262 12.6767H4.42613V2.67842L5.60366 3.70608C5.72142 3.8114 5.87386 3.86963 6.03185 3.86963C6.18984 3.86963 6.34228 3.8114 6.46004 3.70608L8.25844 2.10037L10.0354 3.70608C10.1532 3.8114 10.3056 3.86963 10.4636 3.86963C10.6216 3.86963 10.7741 3.8114 10.8918 3.70608L12.6902 2.10037L14.4886 3.70608C14.6064 3.8114 14.7588 3.86963 14.9168 3.86963C15.0748 3.86963 15.2272 3.8114 15.345 3.70608L16.5011 2.67842L16.4797 14.9033Z" fill="white"/>
</svg>
