<svg width="18" height="25" viewBox="0 0 18 25" fill="none" xmlns="http://www.w3.org/2000/svg">
<path fill-rule="evenodd" clip-rule="evenodd" d="M0.235962 3.12975C0.235962 1.91982 1.21681 0.938965 2.42675 0.938965H11.7721C12.9821 0.938965 13.9629 1.91981 13.9629 3.12975V20.0541C13.9629 21.264 12.9821 22.2449 11.7721 22.2449H2.42675C1.21681 22.2449 0.235962 21.264 0.235962 20.0541V3.12975ZM2.42675 2.03436C1.82178 2.03436 1.33136 2.52478 1.33136 3.12975V20.0541C1.33136 20.6591 1.82178 21.1495 2.42675 21.1495H11.7721C12.3771 21.1495 12.8675 20.6591 12.8675 20.0541V3.12975C12.8675 2.52478 12.3771 2.03436 11.7721 2.03436H2.42675Z" fill="white"/>
<rect x="2.67761" y="3.38135" width="8.8421" height="14.5263" rx="1" fill="white"/>
<path d="M17.836 19.802C17.836 22.5925 15.5739 24.8546 12.7834 24.8546C9.99291 24.8546 7.73077 22.5925 7.73077 19.802C7.73077 17.0115 9.99291 14.7494 12.7834 14.7494C15.5739 14.7494 17.836 17.0115 17.836 19.802Z" fill="white"/>
<path d="M12.7825 17.5913L14.9704 21.3808H10.5947L12.7825 17.5913Z" fill="#E2E2E2"/>
</svg>
