<svg width="23" height="14" viewBox="0 0 23 14" fill="none" xmlns="http://www.w3.org/2000/svg">
<path d="M5.68378 0.297639C2.81502 0.361909 0.76709 1.38878 0.76709 1.38878V12.166C0.76709 12.166 2.81003 10.9812 5.68378 10.9326C8.55759 10.8841 14.74 13.5829 17.5851 13.4943C20.4302 13.4056 22.3039 12.1661 22.3039 12.1661V1.38889C22.3039 1.38889 20.4987 2.34178 17.6802 2.40088C14.8618 2.45995 8.55254 0.233439 5.68378 0.297754V0.297639ZM5.19951 1.32082V3.05994C5.19951 3.05994 4.2576 3.13372 3.51868 3.29025C2.77975 3.44677 1.80778 3.88546 1.80778 3.88546V2.14634C1.80778 2.14634 2.53901 1.81174 3.29651 1.59853C4.05403 1.38532 5.19949 1.32082 5.19949 1.32082H5.19951ZM11.5354 2.2796C12.7139 2.2796 13.844 2.74603 14.6773 3.57629C15.5106 4.40655 15.9787 5.53263 15.9787 6.70679C15.9787 7.88096 15.5106 9.00703 14.6773 9.83729C13.844 10.6675 12.7139 11.134 11.5354 11.134C10.357 11.134 9.2268 10.6675 8.39352 9.83729C7.56023 9.00703 7.0921 7.88096 7.0921 6.70679C7.0921 5.53263 7.56023 4.40655 8.39352 3.57629C9.2268 2.74603 10.357 2.2796 11.5354 2.2796ZM9.49867 4.2602L7.97943 5.77439L9.49913 7.28858L9.50048 6.22964H12.6804V5.31915H9.50048L9.49868 4.2602H9.49867ZM13.5718 6.12454L13.5709 7.18395H10.3905V8.09397H13.5709L13.5727 9.15338L15.0919 7.63875L13.5718 6.12456L13.5718 6.12454ZM21.2658 9.67436V11.4135C21.2658 11.4135 20.5345 11.7481 19.7771 11.9613C19.0195 12.1745 17.919 12.3284 17.919 12.3284V10.5893C17.919 10.5893 18.816 10.4261 19.5549 10.2696C20.2938 10.113 21.2658 9.67436 21.2658 9.67436Z" fill="white"/>
</svg>
