<svg width="26" height="18" viewBox="0 0 26 18" fill="none" xmlns="http://www.w3.org/2000/svg">
<path fill-rule="evenodd" clip-rule="evenodd" d="M20.9452 1.43884L20.9183 1.14362C20.7905 1.1302 20.6762 1.00272 20.6627 0.834986L20.656 0.741053L20.5955 0.747763H20.5484C20.4543 0.741053 20.4341 0.734344 20.3534 0.687377C20.2794 0.640411 20.239 0.566607 20.2189 0.499512L19.9431 0.52635C19.9297 0.65383 19.8019 0.767891 19.6338 0.78131L19.5396 0.78802C19.3715 0.801439 19.2235 0.720925 19.1899 0.593445L18.894 0.613573C18.8805 0.741053 18.7527 0.855115 18.5846 0.868534L18.4905 0.875243C18.3223 0.888662 18.1744 0.808148 18.1407 0.680668L17.8448 0.707506C17.8314 0.834986 17.7036 0.949048 17.5354 0.962467L17.4413 0.969176C17.2732 0.982595 17.1252 0.902081 17.0916 0.774601L16.7957 0.801439C16.7822 0.928919 16.6544 1.04298 16.4863 1.0564L16.3921 1.06311C16.224 1.07653 16.076 0.996014 16.0424 0.868534L15.6725 0.902081C15.6658 0.975886 15.6322 1.04969 15.5649 1.09666C15.5111 1.16375 15.417 1.21072 15.3094 1.21743V1.21072C15.306 1.21072 15.301 1.2124 15.2959 1.21407C15.2909 1.21575 15.2858 1.21743 15.2825 1.21743H15.2488V1.22414C15.148 1.23085 15.0403 1.20401 14.9731 1.15033C14.9058 1.11678 14.852 1.04969 14.8319 0.975886L14.4552 1.01614C14.4418 1.14362 14.314 1.25768 14.1459 1.2711L14.0517 1.27781C13.8836 1.29123 13.7356 1.21072 13.702 1.08324L13.4061 1.11008C13.3926 1.23756 13.2649 1.35162 13.0967 1.36504L13.0026 1.37175C12.8344 1.38516 12.6865 1.30465 12.6528 1.17717L12.3569 1.20401C12.3435 1.33149 12.2157 1.44555 12.0476 1.45897L11.9534 1.46568C11.7853 1.4791 11.6373 1.39858 11.6037 1.2711L11.3078 1.29794C11.2943 1.42542 11.1665 1.53948 10.9984 1.5529L10.9043 1.55961C10.7361 1.57303 10.5882 1.49252 10.5545 1.36504H10.5478L10.2788 1.39187H10.2721C10.2586 1.51935 10.1308 1.63342 9.96271 1.64683L9.86855 1.65354C9.70042 1.66696 9.55246 1.58645 9.51883 1.45897L9.22292 1.48581C9.20947 1.61329 9.08169 1.72735 8.91355 1.74077L8.8194 1.74748C8.65126 1.7609 8.5033 1.68038 8.46968 1.5529L8.17376 1.57974C8.16031 1.70722 8.03253 1.82128 7.8644 1.8347L7.77024 1.84141C7.60211 1.85483 7.45415 1.77431 7.42052 1.64683L7.12461 1.67367C7.11116 1.80115 6.98338 1.91521 6.81524 1.92863L6.72109 1.93534C6.55295 1.94876 6.40499 1.86825 6.37137 1.74077L5.9813 1.78773C5.97457 1.86154 5.94095 1.93534 5.87369 1.98231C5.81989 2.0494 5.72573 2.09637 5.61813 2.10308V2.09637C5.61477 2.09637 5.60972 2.09805 5.60468 2.09973C5.59963 2.1014 5.59459 2.10308 5.59123 2.10308H5.5576V2.10979C5.45672 2.1165 5.34911 2.08966 5.28186 2.03599C5.21461 2.00244 5.1608 1.93534 5.14063 1.86154L4.77073 1.89509C4.75728 2.02257 4.6295 2.13663 4.46137 2.15005L4.36721 2.15676C4.19908 2.17017 4.05112 2.08966 4.01749 1.96218L3.72158 1.98902C3.70813 2.1165 3.58035 2.23056 3.41221 2.24398L3.31806 2.25069C3.14992 2.26411 3.00197 2.18359 2.96834 2.05611L2.67242 2.08295C2.65897 2.21043 2.53119 2.32449 2.36306 2.33791L2.2689 2.34462C2.10077 2.35804 1.95281 2.27753 1.91919 2.15005L1.62327 2.17688C1.60982 2.30436 1.48204 2.41843 1.3139 2.43184L1.21975 2.43855C1.05161 2.45197 0.903657 2.37146 0.87003 2.24398L0.594291 2.27082C0.587566 2.34462 0.547214 2.41172 0.486685 2.45868C0.432883 2.52578 0.358904 2.57274 0.264749 2.58616V2.59287H0.251298L0.258023 2.68681C0.271474 2.86125 0.19077 3.00886 0.0629883 3.04241L0.0898897 3.33763C0.217671 3.35105 0.332002 3.47853 0.345453 3.64626L0.352178 3.7402C0.365629 3.90793 0.2782 4.05554 0.157143 4.08909L0.184045 4.38431C0.311826 4.39773 0.426157 4.52521 0.439608 4.69294L0.453059 4.78688C0.466509 4.95461 0.37908 5.10222 0.258023 5.13577V5.14248L0.284925 5.41086V5.41757C0.412707 5.43099 0.527038 5.55847 0.540488 5.7262L0.547214 5.82014C0.560664 5.98788 0.473235 6.13548 0.352178 6.16903L0.37908 6.46425C0.506861 6.47767 0.621192 6.60515 0.634643 6.77289L0.641369 6.86682C0.654819 7.03456 0.56739 7.18216 0.446333 7.21571L0.473235 7.51093C0.601016 7.52435 0.715347 7.65183 0.728798 7.81957L0.735523 7.9135C0.748974 8.08124 0.661545 8.22885 0.540488 8.26239L0.56739 8.55761C0.695171 8.57103 0.809502 8.69851 0.822953 8.86625L0.829678 8.96018C0.843129 9.12792 0.755699 9.27553 0.634643 9.30907L0.66827 9.67809C0.742249 9.6848 0.816228 9.71835 0.863305 9.78545C0.890207 9.80558 0.910383 9.83912 0.930559 9.87267L0.964185 10.2752L0.959193 10.2879C0.947219 10.3185 0.933972 10.3523 0.910383 10.3759C0.876756 10.443 0.809502 10.4967 0.735523 10.5168L0.76915 10.8858C0.896932 10.8992 1.01126 11.0267 1.02471 11.1944L1.03144 11.2884C1.04489 11.4561 0.95746 11.6037 0.836404 11.6373L0.863305 11.9325C0.991087 11.9459 1.10542 12.0734 1.11887 12.2411L1.12559 12.3351C1.13904 12.5028 1.05161 12.6504 0.930559 12.6839L0.95746 12.9792C1.08524 12.9926 1.19957 13.1201 1.21302 13.2878L1.21975 13.3817C1.2332 13.5495 1.14577 13.6971 1.02471 13.7306L1.07179 14.046C1.19957 14.0594 1.3139 14.1869 1.32735 14.3546L1.33408 14.4485C1.34753 14.6163 1.2601 14.7639 1.13904 14.7974L1.16595 15.0725C1.23992 15.0792 1.3139 15.1665 1.36098 15.2336C1.41478 15.2805 1.46186 15.361 1.48204 15.4483L1.79813 15.4214L1.95954 15.408L2.07387 15.3946C2.08732 15.2671 2.2151 15.153 2.38323 15.1396L2.47739 15.1329C2.64552 15.1195 2.79348 15.2 2.82711 15.3275L3.12302 15.3006C3.13647 15.1732 3.26426 15.0591 3.43239 15.0457L3.52654 15.039C3.61532 15.0319 3.69847 15.051 3.76213 15.0894C3.77082 15.0566 3.77554 15.0215 3.77554 14.9853V14.8913C3.77554 14.7236 3.67466 14.5827 3.54688 14.5626V14.2674C3.67466 14.2472 3.77554 14.1063 3.77554 13.9386V13.8447C3.77554 13.6769 3.67466 13.536 3.54688 13.5159V13.2207C3.67466 13.2005 3.77554 13.0597 3.77554 12.8919V12.798C3.77554 12.6302 3.67466 12.4893 3.54688 12.4692V12.1002C3.61413 12.0935 3.68811 12.0465 3.72846 11.9794C3.75536 11.9526 3.77554 11.919 3.78899 11.8855V11.4829C3.77554 11.4494 3.75536 11.4158 3.72846 11.389C3.68811 11.3219 3.62085 11.2816 3.54688 11.2682V10.8992C3.67466 10.8791 3.77554 10.7382 3.77554 10.5704V10.4765C3.77554 10.3088 3.67466 10.1679 3.54688 10.1477V9.85251C3.67466 9.83238 3.77554 9.69149 3.77554 9.52375V9.42981C3.77554 9.26208 3.67466 9.12789 3.54688 9.10105V8.80583C3.67466 8.7857 3.77554 8.6448 3.77554 8.47707V8.38313C3.77554 8.2154 3.67466 8.08121 3.54688 8.05437V7.75915C3.67466 7.73902 3.77554 7.59812 3.77554 7.43039V7.33645C3.77554 7.16872 3.67466 7.03452 3.54688 7.00769V7.00098V6.7326V6.72589C3.67466 6.70576 3.77554 6.56486 3.77554 6.39712V6.29648C3.77554 6.12874 3.67466 5.99455 3.54688 5.96772V5.6725C3.67466 5.65237 3.77554 5.51147 3.77554 5.34373V5.2498C3.77554 5.08206 3.67466 4.94787 3.54688 4.92103V4.62582C3.67466 4.60569 3.77554 4.46479 3.77554 4.29705V4.20312H3.78899V4.19641C3.88314 4.18299 3.96385 4.14944 4.01765 4.09577C4.07818 4.0488 4.12526 3.98841 4.13871 3.91461H4.41445C4.43462 4.04209 4.57585 4.14273 4.74399 4.14273H4.83814C5.00628 4.14273 5.14751 4.04209 5.16769 3.91461H5.4636C5.48378 4.04209 5.62501 4.14273 5.79314 4.14273H5.8873C6.05543 4.14273 6.19666 4.04209 6.21684 3.91461H6.51276C6.53293 4.04209 6.67416 4.14273 6.8423 4.14273H6.93645C7.10459 4.14273 7.24582 4.04209 7.26599 3.91461H7.56191C7.58209 4.04209 7.72332 4.14273 7.89145 4.14273H7.98561C8.15374 4.14273 8.28825 4.04209 8.31515 3.91461H8.68504C8.69177 3.9817 8.73885 4.05551 8.8061 4.09577C8.86663 4.14944 8.96078 4.1897 9.06839 4.1897V4.18299C9.08184 4.1897 9.08856 4.1897 9.10201 4.1897C9.11547 4.18299 9.12219 4.18299 9.13564 4.18299V4.1897C9.23652 4.1897 9.3374 4.15615 9.39793 4.09577C9.46518 4.05551 9.50554 3.98841 9.51899 3.91461H9.88888C9.90906 4.04209 10.0503 4.14273 10.2184 4.14273H10.3193C10.4874 4.14273 10.6219 4.04209 10.6488 3.91461H10.9448C10.9649 4.04209 11.1062 4.14273 11.2743 4.14273H11.3685C11.5366 4.14273 11.6711 4.04209 11.698 3.91461H12.0208C12.041 4.04209 12.1822 4.14273 12.3504 4.14273H12.4445C12.6126 4.14273 12.7539 4.04209 12.7741 3.91461H13.07C13.0901 4.04209 13.2314 4.14273 13.3995 4.14273H13.4937C13.6618 4.14273 13.7963 4.04209 13.8232 3.91461H13.8299H14.099H14.1057C14.1259 4.04209 14.2671 4.14273 14.4352 4.14273H14.5294C14.6975 4.14273 14.8387 4.04209 14.8589 3.91461H15.1616C15.1817 4.04209 15.323 4.14273 15.4911 4.14273H15.5853C15.7534 4.14273 15.8946 4.04209 15.9148 3.91461H16.2107C16.2309 4.04209 16.3721 4.14273 16.5403 4.14273H16.6479C16.816 4.14273 16.9572 4.04209 16.9774 3.91461H17.2733C17.2935 4.04209 17.4347 4.14273 17.6029 4.14273H17.697C17.8651 4.14273 18.0064 4.04209 18.0266 3.91461H18.3965C18.4032 3.9817 18.4503 4.05551 18.5175 4.09577C18.578 4.14944 18.6722 4.1897 18.7798 4.1897V4.18299C18.7932 4.1897 18.8 4.1897 18.8134 4.1897C18.8269 4.18299 18.8336 4.18299 18.847 4.18299C18.9479 4.18299 19.0488 4.14944 19.1093 4.08906C19.1766 4.0488 19.2169 3.9817 19.2304 3.9079H19.6339C19.6541 4.03538 19.7953 4.13602 19.9635 4.13602H20.0576C20.2257 4.13602 20.367 4.03538 20.3872 3.9079H20.6831C20.7011 4.02169 20.8155 4.11409 20.9595 4.13263C20.9448 4.09682 20.9351 4.05731 20.9318 4.01529L20.925 3.92135C20.9116 3.75361 20.999 3.60601 21.1201 3.57246V3.56575L21.0932 3.29737V3.29066C20.9654 3.27724 20.851 3.14976 20.8376 2.98202L20.8443 2.84112C20.8309 2.67339 20.9183 2.52578 21.0394 2.49223L21.0125 2.19701C20.8847 2.18359 20.7703 2.05611 20.7569 1.88838L20.7502 1.79444C20.7367 1.62 20.8174 1.47239 20.9452 1.43884ZM25.3293 5.79432V5.49911C25.2015 5.47898 25.1006 5.33808 25.1006 5.17034V5.07641H25.0401L24.993 5.0697C24.8989 5.05628 24.8787 5.04957 24.8047 4.98919C24.7375 4.94222 24.7038 4.86171 24.6904 4.7879H24.4146C24.3877 4.91538 24.2532 5.01602 24.0851 5.01602H23.9909C23.8228 5.01602 23.6816 4.91538 23.6614 4.7879H23.3655C23.3386 4.91538 23.2041 5.01602 23.0359 5.01602H22.9418C22.7737 5.01602 22.6324 4.91538 22.6122 4.7879H22.3163C22.2894 4.91538 22.1549 5.01602 21.9868 5.01602H21.8926C21.7245 5.01602 21.5833 4.91538 21.5631 4.7879H21.2672C21.247 4.91538 21.1058 5.01602 20.9376 5.01602H20.8435C20.6753 5.01602 20.5341 4.91538 20.5139 4.7879H20.1104C20.097 4.86171 20.0566 4.9288 19.9894 4.96906C19.9288 5.02944 19.8279 5.06299 19.7271 5.06299C19.7136 5.06299 19.7069 5.06299 19.6934 5.0697C19.68 5.0697 19.6733 5.0697 19.6598 5.06299V5.0697C19.5522 5.0697 19.4581 5.02944 19.3975 4.97577C19.3303 4.93551 19.2832 4.86171 19.2765 4.79461H18.9066C18.8864 4.92209 18.7452 5.02273 18.577 5.02273H18.4829C18.3147 5.02273 18.1735 4.92209 18.1533 4.79461H17.8574C17.8372 4.92209 17.696 5.02273 17.5279 5.02273H17.4203C17.2521 5.02273 17.1109 4.92209 17.0907 4.79461H16.7948C16.7746 4.92209 16.6334 5.02273 16.4653 5.02273H16.3711C16.203 5.02273 16.0618 4.92209 16.0416 4.79461H15.7389C15.7188 4.92209 15.5775 5.02273 15.4094 5.02273H15.3152C15.1471 5.02273 15.0059 4.92209 14.9857 4.79461H14.979H14.71H14.7032C14.6763 4.92209 14.5418 5.02273 14.3737 5.02273H14.2795C14.1114 5.02273 13.9702 4.92209 13.95 4.79461H13.6541C13.6339 4.92209 13.4927 5.02273 13.3245 5.02273H13.2304C13.0622 5.02273 12.921 4.92209 12.9008 4.79461H12.578C12.5511 4.92209 12.4166 5.02273 12.2485 5.02273H12.1543C11.9862 5.02273 11.845 4.92209 11.8248 4.79461H11.5289C11.502 4.92209 11.3675 5.02273 11.1993 5.02273H11.0984C10.9303 5.02273 10.7891 4.92209 10.7689 4.79461H10.399C10.3856 4.86841 10.3452 4.93551 10.278 4.97577C10.2174 5.03615 10.1165 5.0697 10.0157 5.0697V5.06299C10.0022 5.06299 9.99549 5.06299 9.98204 5.0697C9.96859 5.0697 9.96186 5.0697 9.94841 5.06299V5.0697C9.84081 5.0697 9.74665 5.02944 9.68612 4.97577C9.61887 4.93551 9.57179 4.86171 9.56507 4.79461H9.19517C9.16827 4.92209 9.03376 5.02273 8.86563 5.02273H8.77147C8.60334 5.02273 8.46211 4.92209 8.44193 4.79461H8.14602C8.12584 4.92209 7.98461 5.02273 7.81647 5.02273H7.72232C7.55419 5.02273 7.41295 4.92209 7.39278 4.79461H7.09686C7.07669 4.92209 6.93545 5.02273 6.76732 5.02273H6.67317C6.50503 5.02273 6.3638 4.92209 6.34362 4.79461H6.04771C6.02753 4.92209 5.8863 5.02273 5.71817 5.02273H5.62401C5.45588 5.02273 5.31464 4.92209 5.29447 4.79461H5.01873C5.00528 4.86841 4.9582 4.9288 4.89767 4.97577C4.84387 5.02944 4.76317 5.06299 4.66901 5.07641V5.08312H4.65556V5.17705C4.65556 5.34479 4.55468 5.48569 4.4269 5.50582V5.80103C4.55468 5.82787 4.65556 5.96206 4.65556 6.1298V6.22373C4.65556 6.39147 4.55468 6.53237 4.4269 6.5525V6.84772C4.55468 6.87455 4.65556 7.00874 4.65556 7.17648V7.27712C4.65556 7.44486 4.55468 7.58576 4.4269 7.60589V7.6126V7.88098V7.88769C4.55468 7.91452 4.65556 8.04871 4.65556 8.21645V8.31038C4.65556 8.47812 4.55468 8.61902 4.4269 8.63915V8.93437C4.55468 8.9612 4.65556 9.0954 4.65556 9.26313V9.35707C4.65556 9.5248 4.55468 9.6657 4.4269 9.68583V9.98105C4.55468 10.0079 4.65556 10.1421 4.65556 10.3098V10.4037C4.65556 10.5715 4.55468 10.7124 4.4269 10.7325V11.0277C4.55468 11.0479 4.65556 11.1888 4.65556 11.3565V11.4504C4.65556 11.6182 4.55468 11.7591 4.4269 11.7792V12.1482C4.50088 12.1616 4.56813 12.2019 4.60848 12.269C4.63539 12.2958 4.65556 12.3294 4.66901 12.3629V12.7655C4.65556 12.799 4.63539 12.8326 4.60848 12.8594C4.56813 12.9265 4.49415 12.9735 4.4269 12.9802V13.3492C4.55468 13.3693 4.65556 13.5102 4.65556 13.678V13.7719C4.65556 13.9396 4.55468 14.0805 4.4269 14.1007V14.3959C4.55468 14.416 4.65556 14.5569 4.65556 14.7247V14.8186C4.65556 14.9863 4.55468 15.1272 4.4269 15.1474V15.4426C4.55468 15.4627 4.65556 15.6036 4.65556 15.7713V15.8653C4.65556 16.033 4.55468 16.1739 4.4269 16.194V16.4893C4.55468 16.5094 4.65556 16.6503 4.65556 16.818V16.912C4.65556 17.0797 4.55468 17.2206 4.4269 17.2407V17.5158C4.4957 17.5283 4.55286 17.6104 4.5984 17.6758L4.60848 17.6903C4.66229 17.7439 4.69591 17.8244 4.70936 17.9184H5.02545H5.18686H5.30119C5.3281 17.7909 5.4626 17.6903 5.63074 17.6903H5.72489C5.89302 17.6903 6.03426 17.7909 6.05443 17.9184H6.35035C6.37725 17.7909 6.51176 17.6903 6.67989 17.6903H6.77405C6.94218 17.6903 7.08341 17.7909 7.10359 17.9184H7.3995C7.4264 17.7909 7.56091 17.6903 7.72905 17.6903H7.8232C7.99133 17.6903 8.13257 17.7909 8.15274 17.9184H8.44866C8.46883 17.7909 8.61007 17.6903 8.7782 17.6903H8.87236C9.04049 17.6903 9.18172 17.7909 9.2019 17.9184H9.57179C9.58524 17.8446 9.62559 17.7775 9.69285 17.7372C9.75338 17.6768 9.85426 17.6433 9.95514 17.6433V17.65C9.96859 17.65 9.97531 17.65 9.98876 17.6433C10.0022 17.6433 10.0089 17.6433 10.0224 17.65V17.6433C10.13 17.6433 10.2241 17.6835 10.2847 17.7372C10.3519 17.7775 10.399 17.8513 10.4057 17.9184H10.7756C10.7958 17.7909 10.937 17.6903 11.1052 17.6903H11.1993C11.3675 17.6903 11.5087 17.7909 11.5289 17.9184H11.8248C11.845 17.7909 11.9862 17.6903 12.1543 17.6903H12.2485C12.4166 17.6903 12.5578 17.7909 12.578 17.9184H12.8739C12.8941 17.7909 13.0353 17.6903 13.2035 17.6903H13.2976C13.4658 17.6903 13.607 17.7909 13.6272 17.9184H13.9231C13.9433 17.7909 14.0845 17.6903 14.2526 17.6903H14.3468C14.5149 17.6903 14.6562 17.7909 14.6763 17.9184H14.6831H14.9521H14.9588C14.9857 17.7909 15.1202 17.6903 15.2883 17.6903H15.3825C15.5506 17.6903 15.6919 17.7909 15.712 17.9184H16.0079C16.0349 17.7909 16.1694 17.6903 16.3375 17.6903H16.4316C16.5998 17.6903 16.741 17.7909 16.7612 17.9184H17.0571C17.084 17.7909 17.2185 17.6903 17.3866 17.6903H17.4808C17.6489 17.6903 17.7902 17.7909 17.8103 17.9184H18.1063C18.1332 17.7909 18.2677 17.6903 18.4358 17.6903H18.53C18.6981 17.6903 18.8393 17.7909 18.8595 17.9184H19.2294C19.2428 17.8446 19.2832 17.7775 19.3504 17.7372C19.411 17.6768 19.5119 17.6433 19.6127 17.6433V17.65C19.6262 17.65 19.6329 17.65 19.6464 17.6433C19.6598 17.6433 19.6665 17.6433 19.68 17.65V17.6433C19.7876 17.6433 19.8818 17.6835 19.9423 17.7372C20.0095 17.7775 20.0566 17.8513 20.0633 17.9184H20.4332C20.4601 17.7909 20.5946 17.6903 20.7628 17.6903H20.8569C21.0251 17.6903 21.1663 17.7909 21.1865 17.9184H21.4824C21.5026 17.7909 21.6438 17.6903 21.8119 17.6903H21.9061C22.0742 17.6903 22.2154 17.7909 22.2356 17.9184H22.5315C22.5517 17.7909 22.6929 17.6903 22.8611 17.6903H22.9552C23.1234 17.6903 23.2646 17.7909 23.2848 17.9184H23.5807C23.6009 17.7909 23.7421 17.6903 23.9102 17.6903H24.0044C24.1725 17.6903 24.3138 17.7909 24.3339 17.9184H24.4953H24.6164H24.9796C24.9863 17.8312 25.0266 17.7439 25.0804 17.6903C25.1208 17.6232 25.1881 17.5292 25.262 17.5158V17.2407C25.1343 17.2139 25.0334 17.0797 25.0334 16.912V16.818C25.0334 16.6503 25.1343 16.5094 25.262 16.4893V16.194C25.1343 16.1672 25.0334 16.033 25.0334 15.8653V15.7713C25.0334 15.6036 25.1343 15.4627 25.262 15.4426V15.1943C25.1343 15.1675 25.0334 15.0333 25.0334 14.8656V14.7716C25.0334 14.6039 25.1343 14.463 25.262 14.4429V14.1476C25.1343 14.1208 25.0334 13.9866 25.0334 13.8189V13.7182C25.0334 13.5505 25.1343 13.4096 25.262 13.3895V13.0204C25.1881 13.007 25.1208 12.9668 25.0804 12.8997C25.0199 12.8393 24.9863 12.7386 24.9796 12.638H24.9863V12.6045V12.5709H24.9796C24.9796 12.4636 25.0199 12.3696 25.0804 12.3092C25.1208 12.2421 25.1948 12.1952 25.262 12.1885V11.8194C25.1343 11.7993 25.0334 11.6584 25.0334 11.4907V11.3968C25.0334 11.229 25.1343 11.0881 25.262 11.068V10.7728C25.1343 10.7526 25.0334 10.6117 25.0334 10.444V10.3501C25.0334 10.1823 25.1343 10.0414 25.262 10.0213V9.72609C25.1343 9.70596 25.0334 9.56506 25.0334 9.39732V9.30339C25.0334 9.13565 25.1343 8.99475 25.262 8.97462V8.67941C25.1343 8.65928 25.0334 8.51838 25.0334 8.35064V8.25671C25.0334 8.08897 25.1343 7.94807 25.262 7.92794V7.88098V7.6126V7.60589C25.1343 7.58576 25.0334 7.44486 25.0334 7.27712V7.18319C25.0334 7.01545 25.1343 6.87455 25.262 6.85442V6.55921C25.1343 6.53908 25.0334 6.39818 25.0334 6.23044V6.13651C25.1006 5.95535 25.2015 5.82116 25.3293 5.79432ZM8.85191 6.57938H8.62998V7.81393H8.85191V6.57938ZM9.04043 6.57938H9.26237V7.81393H9.04043V6.57938ZM10.7889 6.57938H10.5669V7.81393H10.7889V6.57938ZM10.9908 6.57938H11.2128V7.81393H10.9908V6.57938ZM11.3673 6.57938H11.7439V7.81393H11.3673V6.57938ZM13.9027 6.57938H13.3176V7.81393H13.9027V6.57938ZM14.3535 6.57938H14.0845V7.81393H14.3535V6.57938ZM15.2278 6.57938H15.9945V7.81393H15.2278V6.57938ZM16.9493 6.57938H16.6668V7.81393H16.9493V6.57938ZM17.3261 6.57938H17.9113V7.81393H17.3261V6.57938ZM18.5836 6.57938H18.1061V7.81393H18.5836V6.57938ZM19.5522 6.57938H19.0545V7.81393H19.5522V6.57938ZM14.535 6.57938H14.804V7.81393H14.535V6.57938ZM21.0788 6.57938H20.6753V7.81393H21.0788V6.57938ZM12.551 6.57938H13.1227V7.81393H12.551V6.57938ZM12.1744 6.57938H11.9188V7.81393H12.1744V6.57938ZM20.3322 6.57938H20.5542V7.81393H20.3322V6.57938ZM20.1307 6.57938H19.9088V7.81393H20.1307V6.57938ZM18.7717 6.57938H18.9398V7.81393H18.7717V6.57938ZM19.8212 6.57938H19.653V7.81393H19.8212V6.57938ZM16.2164 6.57938H16.4383V7.81393H16.2164V6.57938ZM10.2845 6.57938H9.49089V7.81393H10.2845V6.57938ZM22.323 13.0071H6.45113V12.6716H22.323V13.0071ZM22.323 14.0067H6.45117V13.6713H22.323V14.0067ZM6.45117 15.1809H16.9494V14.8455H6.45117V15.1809ZM19.653 16.4021H6.45117V16.0666H19.653V16.4021ZM23.6814 14.8052H20.3322V16.4624H23.6814V14.8052ZM12.3088 12.0006H10.2037L6.28957 8.72639L6.2425 8.78007V8.41105H8.01126L12.3088 12.0006ZM14.9855 12.0006H12.8805L8.58972 8.41106H10.6948L14.9855 12.0006ZM17.6621 12.0006H15.5638L11.2663 8.41106H13.3714L17.6621 12.0006ZM7.52698 12.0007H9.63202L6.24244 9.16926V10.9271L6.24251 10.9272V11.4101L6.9554 12.0006H7.52687L7.52698 12.0007ZM6.24244 12.0007H6.95533L6.24244 11.4102V12.0007ZM20.3389 12.0006H18.2406L13.9431 8.41106H16.0481L20.3389 12.0006ZM20.9174 12.0006H23.0224L18.7249 8.41106H16.6199L20.9174 12.0006ZM19.3031 8.41106L23.4729 11.9V10.1421L21.4015 8.41106H19.3031ZM23.4729 9.65903L21.9799 8.41106H23.4729V9.65903Z" fill="white"/>
</svg>
