<svg width="70" height="70" viewBox="0 0 70 70" fill="none" xmlns="http://www.w3.org/2000/svg">
<path fill-rule="evenodd" clip-rule="evenodd" d="M35 0C15.67 0 0 15.67 0 35C0 54.33 15.67 70 35 70C54.33 70 70 54.33 70 35C70 15.67 54.33 0 35 0ZM38.1981 35.537L27.1358 24.4034L33.361 24.3997C34.621 24.3989 35.8291 24.9012 36.7172 25.7949L46.1822 35.3206C46.3013 35.4403 46.3011 35.6341 46.182 35.7537L36.7229 45.2763C35.8364 46.1689 34.6302 46.6711 33.3719 46.6715L27.136 46.6737L38.1981 35.537Z" fill="white"/>
</svg>
