<svg width="25" height="25" viewBox="0 0 25 25" fill="none" xmlns="http://www.w3.org/2000/svg">
<path d="M20.6899 4.13516L21.042 3.75541L19.2816 5.50646L19.3437 5.56976C21.0834 7.4263 22.1603 9.93684 22.1603 12.7006C22.1603 18.3757 17.6454 22.9959 12.0743 22.9959C6.50313 22.9959 1.98822 18.3968 1.98822 12.7006C1.98822 7.02545 6.50313 2.4052 12.0743 2.4052C13.4619 2.4052 14.7874 2.70056 15.9886 3.20689L17.4383 1.6879C15.8229 0.865115 13.9797 0.379883 12.0536 0.379883C5.40547 0.40098 0 5.90731 0 12.7006C0 19.4938 5.40547 25.0001 12.0536 25.0001C18.7017 25.0001 24.1071 19.4938 24.1071 12.7006C24.1071 9.36722 22.8024 6.35035 20.6899 4.13516Z" fill="#191919"/>
<path d="M21.788 2.95359V0L19.1785 2.78481L11.9712 10.4852L7.55983 5.94937C7.51841 5.99156 7.45628 6.01266 7.41485 6.05485C7.16633 6.24472 6.93851 6.4346 6.71069 6.64557C6.48288 6.85654 6.27577 7.06751 6.08938 7.32067C4.86745 8.73418 4.14258 10.5907 4.14258 12.6371C4.14258 13.6287 4.30826 14.557 4.61892 15.443C4.70176 15.6962 4.80532 15.9283 4.92958 16.1814C5.05384 16.4346 5.1574 16.6456 5.30237 16.8776C5.57161 17.3207 5.88227 17.7426 6.21364 18.1224C6.37932 18.3122 6.56572 18.5021 6.75211 18.6709C7.04206 18.924 7.33201 19.1772 7.66338 19.3882C8.20186 19.7468 8.76104 20.0633 9.38236 20.2954C9.87942 20.4852 10.3765 20.6118 10.9149 20.6962C11.3084 20.7595 11.7227 20.7806 12.1369 20.7806C12.5511 20.7806 12.9446 20.7384 13.3588 20.6962C13.8766 20.6118 14.3943 20.4852 14.8914 20.2954C15.492 20.0633 16.0719 19.7679 16.6104 19.3882C16.921 19.1772 17.2317 18.924 17.5216 18.6709C17.708 18.5021 17.8944 18.3122 18.0601 18.1224C18.4122 17.7426 18.7021 17.3207 18.9714 16.8776C19.0956 16.6456 19.2199 16.4135 19.3442 16.1814C19.4684 15.9494 19.5513 15.6962 19.6548 15.443C19.9241 14.557 20.0897 13.6076 20.0897 12.6371C20.0897 11.2447 19.7377 9.89451 19.0956 8.71308L17.6666 10.2743C17.998 11.0338 18.1844 11.8987 18.1844 12.7848C18.1844 14.0928 17.7909 15.3165 17.1281 16.3291C17.0246 16.4979 16.9003 16.6667 16.7761 16.8143C16.6518 16.962 16.5068 17.1308 16.3825 17.2574C16.1754 17.4684 15.9476 17.6793 15.6991 17.8481C14.6636 18.6287 13.3795 19.1139 11.9919 19.1139C10.6043 19.1139 9.32023 18.6498 8.2847 17.8481C8.03617 17.6582 7.82907 17.4684 7.60125 17.2574C7.45628 17.1097 7.33201 16.962 7.20775 16.8143C7.08348 16.6667 6.95922 16.4979 6.85567 16.3291C6.19293 15.3165 5.79943 14.0928 5.79943 12.7848C5.79943 12.6793 5.79943 12.5949 5.79943 12.4894C5.79943 12.2996 5.82014 12.0886 5.86156 11.8987C5.90298 11.6034 5.96511 11.3291 6.04795 11.0549C6.1308 10.7806 6.21364 10.5063 6.3379 10.2532C6.42075 10.0844 6.50359 9.91561 6.58643 9.74683C6.66927 9.57806 6.77283 9.43038 6.87638 9.2616C7.02135 9.02953 7.20775 8.79747 7.37343 8.60759L12.0333 13.4177L19.3235 5.50633L21.0839 3.75527L21.788 2.95359Z" fill="#33ADFF"/>
</svg>
