<svg xmlns="http://www.w3.org/2000/svg" width="40" height="40" fill="none" viewBox="0 0 40 40">
    <path fill="#E2E2E2" fill-rule="evenodd" d="M20 40c11.046 0 20-8.954 20-20S31.046 0 20 0 0 8.954 0 20s8.954 20 20 20z" clip-rule="evenodd"/>
    <path fill="#fff" fill-rule="evenodd" d="M20.267 9.067c2.687 0 4.863 2.16 4.863 4.826 0 2.667-2.176 4.827-4.863 4.827-2.687 0-4.864-2.16-4.864-4.827 0-2.666 2.177-4.826 4.864-4.826zm0 21.333h.134a11.883 11.883 0 0 0 9.466-4.857l-.56-2.34c-.181-1.249-.999-2.083-2.346-2.57l-3.508-1.002a6.68 6.68 0 0 1-6.372 0l-3.509 1.002c-1.347.487-2.164 1.321-2.345 2.57l-.56 2.34a11.873 11.873 0 0 0 9.465 4.857h.135z" clip-rule="evenodd"/>
</svg>
