<svg width="375" height="210" viewBox="0 0 375 210" fill="none" xmlns="http://www.w3.org/2000/svg">
<g filter="url(#filter0_d)">
<rect x="20" y="15" width="335" height="170" rx="12" fill="url(#paint0_linear)"/>
</g>
<mask id="mask0" mask-type="alpha" maskUnits="userSpaceOnUse" x="20" y="15" width="335" height="160">
<rect x="20" y="15" width="335" height="160" rx="12" fill="white"/>
</mask>
<g mask="url(#mask0)">
<rect x="35" y="65" width="305" height="60" rx="8" fill="white"/>
<path d="M134.891 106H130.375V88.5938L124.984 90.2656V86.5938L134.406 83.2188H134.891V106ZM142.719 103.781C142.719 103.062 142.958 102.479 143.438 102.031C143.927 101.583 144.536 101.359 145.266 101.359C146.005 101.359 146.615 101.583 147.094 102.031C147.583 102.479 147.828 103.062 147.828 103.781C147.828 104.49 147.589 105.068 147.109 105.516C146.63 105.953 146.016 106.172 145.266 106.172C144.526 106.172 143.917 105.953 143.438 105.516C142.958 105.068 142.719 104.49 142.719 103.781ZM166.922 96.5938C166.922 99.7396 166.271 102.146 164.969 103.812C163.667 105.479 161.76 106.312 159.25 106.312C156.771 106.312 154.875 105.495 153.562 103.859C152.25 102.224 151.578 99.8802 151.547 96.8281V92.6406C151.547 89.4635 152.203 87.0521 153.516 85.4062C154.839 83.7604 156.74 82.9375 159.219 82.9375C161.698 82.9375 163.594 83.7552 164.906 85.3906C166.219 87.0156 166.891 89.3542 166.922 92.4062V96.5938ZM162.406 92C162.406 90.1146 162.146 88.7448 161.625 87.8906C161.115 87.026 160.312 86.5938 159.219 86.5938C158.156 86.5938 157.37 87.0052 156.859 87.8281C156.359 88.6406 156.094 89.9167 156.062 91.6562V97.1875C156.062 99.0417 156.312 100.422 156.812 101.328C157.323 102.224 158.135 102.672 159.25 102.672C160.354 102.672 161.151 102.24 161.641 101.375C162.13 100.51 162.385 99.1875 162.406 97.4062V92ZM185.297 96.5938C185.297 99.7396 184.646 102.146 183.344 103.812C182.042 105.479 180.135 106.312 177.625 106.312C175.146 106.312 173.25 105.495 171.938 103.859C170.625 102.224 169.953 99.8802 169.922 96.8281V92.6406C169.922 89.4635 170.578 87.0521 171.891 85.4062C173.214 83.7604 175.115 82.9375 177.594 82.9375C180.073 82.9375 181.969 83.7552 183.281 85.3906C184.594 87.0156 185.266 89.3542 185.297 92.4062V96.5938ZM180.781 92C180.781 90.1146 180.521 88.7448 180 87.8906C179.49 87.026 178.688 86.5938 177.594 86.5938C176.531 86.5938 175.745 87.0052 175.234 87.8281C174.734 88.6406 174.469 89.9167 174.438 91.6562V97.1875C174.438 99.0417 174.688 100.422 175.188 101.328C175.698 102.224 176.51 102.672 177.625 102.672C178.729 102.672 179.526 102.24 180.016 101.375C180.505 100.51 180.76 99.1875 180.781 97.4062V92ZM203.672 96.5938C203.672 99.7396 203.021 102.146 201.719 103.812C200.417 105.479 198.51 106.312 196 106.312C193.521 106.312 191.625 105.495 190.312 103.859C189 102.224 188.328 99.8802 188.297 96.8281V92.6406C188.297 89.4635 188.953 87.0521 190.266 85.4062C191.589 83.7604 193.49 82.9375 195.969 82.9375C198.448 82.9375 200.344 83.7552 201.656 85.3906C202.969 87.0156 203.641 89.3542 203.672 92.4062V96.5938ZM199.156 92C199.156 90.1146 198.896 88.7448 198.375 87.8906C197.865 87.026 197.062 86.5938 195.969 86.5938C194.906 86.5938 194.12 87.0052 193.609 87.8281C193.109 88.6406 192.844 89.9167 192.812 91.6562V97.1875C192.812 99.0417 193.062 100.422 193.562 101.328C194.073 102.224 194.885 102.672 196 102.672C197.104 102.672 197.901 102.24 198.391 101.375C198.88 100.51 199.135 99.1875 199.156 97.4062V92ZM207.156 103.781C207.156 103.062 207.396 102.479 207.875 102.031C208.365 101.583 208.974 101.359 209.703 101.359C210.443 101.359 211.052 101.583 211.531 102.031C212.021 102.479 212.266 103.062 212.266 103.781C212.266 104.49 212.026 105.068 211.547 105.516C211.068 105.953 210.453 106.172 209.703 106.172C208.964 106.172 208.354 105.953 207.875 105.516C207.396 105.068 207.156 104.49 207.156 103.781ZM231.359 96.5938C231.359 99.7396 230.708 102.146 229.406 103.812C228.104 105.479 226.198 106.312 223.688 106.312C221.208 106.312 219.312 105.495 218 103.859C216.688 102.224 216.016 99.8802 215.984 96.8281V92.6406C215.984 89.4635 216.641 87.0521 217.953 85.4062C219.276 83.7604 221.177 82.9375 223.656 82.9375C226.135 82.9375 228.031 83.7552 229.344 85.3906C230.656 87.0156 231.328 89.3542 231.359 92.4062V96.5938ZM226.844 92C226.844 90.1146 226.583 88.7448 226.062 87.8906C225.552 87.026 224.75 86.5938 223.656 86.5938C222.594 86.5938 221.807 87.0052 221.297 87.8281C220.797 88.6406 220.531 89.9167 220.5 91.6562V97.1875C220.5 99.0417 220.75 100.422 221.25 101.328C221.76 102.224 222.573 102.672 223.688 102.672C224.792 102.672 225.589 102.24 226.078 101.375C226.568 100.51 226.823 99.1875 226.844 97.4062V92ZM249.734 96.5938C249.734 99.7396 249.083 102.146 247.781 103.812C246.479 105.479 244.573 106.312 242.062 106.312C239.583 106.312 237.688 105.495 236.375 103.859C235.062 102.224 234.391 99.8802 234.359 96.8281V92.6406C234.359 89.4635 235.016 87.0521 236.328 85.4062C237.651 83.7604 239.552 82.9375 242.031 82.9375C244.51 82.9375 246.406 83.7552 247.719 85.3906C249.031 87.0156 249.703 89.3542 249.734 92.4062V96.5938ZM245.219 92C245.219 90.1146 244.958 88.7448 244.438 87.8906C243.927 87.026 243.125 86.5938 242.031 86.5938C240.969 86.5938 240.182 87.0052 239.672 87.8281C239.172 88.6406 238.906 89.9167 238.875 91.6562V97.1875C238.875 99.0417 239.125 100.422 239.625 101.328C240.135 102.224 240.948 102.672 242.062 102.672C243.167 102.672 243.964 102.24 244.453 101.375C244.943 100.51 245.198 99.1875 245.219 97.4062V92ZM268.109 96.5938C268.109 99.7396 267.458 102.146 266.156 103.812C264.854 105.479 262.948 106.312 260.438 106.312C257.958 106.312 256.062 105.495 254.75 103.859C253.438 102.224 252.766 99.8802 252.734 96.8281V92.6406C252.734 89.4635 253.391 87.0521 254.703 85.4062C256.026 83.7604 257.927 82.9375 260.406 82.9375C262.885 82.9375 264.781 83.7552 266.094 85.3906C267.406 87.0156 268.078 89.3542 268.109 92.4062V96.5938ZM263.594 92C263.594 90.1146 263.333 88.7448 262.812 87.8906C262.302 87.026 261.5 86.5938 260.406 86.5938C259.344 86.5938 258.557 87.0052 258.047 87.8281C257.547 88.6406 257.281 89.9167 257.25 91.6562V97.1875C257.25 99.0417 257.5 100.422 258 101.328C258.51 102.224 259.323 102.672 260.438 102.672C261.542 102.672 262.339 102.24 262.828 101.375C263.318 100.51 263.573 99.1875 263.594 97.4062V92Z" fill="#000720"/>
<path fill-rule="evenodd" clip-rule="evenodd" d="M49 86C49 83.7909 50.7909 82 53 82H71C73.2091 82 75 83.7909 75 86V104C75 106.209 73.2091 108 71 108H53C50.7909 108 49 106.209 49 104V86ZM65.3611 100.688V98.8118H65.323C64.3708 100.234 62.9871 100.945 61.1716 100.945C59.5657 100.945 58.2105 100.408 57.106 99.3354C55.9951 98.2627 55.4397 96.9265 55.4397 95.3269C55.4397 93.74 56.0015 92.4102 57.125 91.3374C58.2358 90.2773 59.5847 89.7473 61.1716 89.7473C62.9807 89.7473 64.3645 90.4487 65.323 91.8516H65.3611V89.0205H62V87.6875H65.3611V86.2529H66.7322V87.6875H67.9414V89.0205H66.7322V100.688H65.3611ZM66.875 103.125V104.458H57.125V103.125H66.875ZM61.1716 90.9756C62.3713 90.9756 63.387 91.4104 64.2185 92.28C65.0374 93.137 65.4468 94.1653 65.4468 95.365C65.4468 96.5647 65.0374 97.5867 64.2185 98.4309C63.387 99.2878 62.3713 99.7163 61.1716 99.7163C59.9211 99.7163 58.8801 99.3069 58.0486 98.488C57.217 97.6628 56.8013 96.6282 56.8013 95.384C56.8013 94.1208 57.2139 93.0703 58.0391 92.2324C58.8643 91.3945 59.9084 90.9756 61.1716 90.9756Z" fill="#01B6FB"/>
<path d="M87.75 35.9072V46H86.6367V35.9072H84.0879V34.8965H90.2842V35.9072H87.75ZM97.4766 46V41.4883C97.4766 41.0488 97.418 40.6436 97.3008 40.2725C97.1689 39.8379 96.9663 39.4912 96.6929 39.2324C96.1948 38.7637 95.6016 38.5293 94.9131 38.5293C94.2197 38.5293 93.624 38.7637 93.126 39.2324C92.8574 39.4863 92.6572 39.8232 92.5254 40.2432C92.4131 40.6045 92.3569 40.9927 92.3569 41.4077V46H91.3096V34.8965H92.3569V38.8442H92.3862C92.9282 38.0044 93.7705 37.5845 94.9131 37.5845C96.0605 37.5845 96.9565 37.9507 97.6011 38.6831C98.2163 39.3862 98.5239 40.3213 98.5239 41.4883V46H97.4766ZM107.804 46V44.5571H107.774C107.052 45.6509 105.987 46.1978 104.581 46.1978C103.346 46.1978 102.303 45.7852 101.454 44.96C100.599 44.1348 100.172 43.1069 100.172 41.8765C100.172 40.6558 100.604 39.6328 101.468 38.8076C102.323 37.9922 103.36 37.5845 104.581 37.5845C106.012 37.5845 107.076 38.1338 107.774 39.2324H107.804V37.7969H108.858V46H107.804ZM107.87 41.9058C107.87 40.9829 107.555 40.1919 106.925 39.5327C106.285 38.8638 105.504 38.5293 104.581 38.5293C103.609 38.5293 102.806 38.8516 102.171 39.4961C101.537 40.1406 101.219 40.9487 101.219 41.9204C101.219 42.8774 101.539 43.6733 102.179 44.3081C102.818 44.938 103.619 45.2529 104.581 45.2529C105.504 45.2529 106.285 44.9233 106.925 44.2642C107.555 43.6147 107.87 42.8286 107.87 41.9058ZM112.865 48.8784H111.773L113.194 45.729L110.001 37.7969H111.114L113.722 44.3374L116.512 37.7969H117.618L112.865 48.8784ZM130.194 46V44.5571H130.165C129.432 45.6509 128.368 46.1978 126.971 46.1978C125.736 46.1978 124.693 45.7852 123.844 44.96C122.989 44.1348 122.562 43.1069 122.562 41.8765C122.562 40.6558 122.994 39.6328 123.858 38.8076C124.713 37.9922 125.75 37.5845 126.971 37.5845C128.363 37.5845 129.427 38.124 130.165 39.2031H130.194V34.8965H131.249V46H130.194ZM130.26 41.9058C130.26 40.9829 129.945 40.1919 129.315 39.5327C128.675 38.8638 127.894 38.5293 126.971 38.5293C126 38.5293 125.196 38.8516 124.562 39.4961C123.927 40.1406 123.609 40.9487 123.609 41.9204C123.609 42.8774 123.929 43.6733 124.569 44.3081C125.208 44.938 126.009 45.2529 126.971 45.2529C127.894 45.2529 128.675 44.9233 129.315 44.2642C129.945 43.6147 130.26 42.8286 130.26 41.9058ZM132.186 36.0244V37.0498H127.616V36.0244H132.186ZM141.458 41.8911C141.458 43.0679 141.036 44.0786 140.191 44.9233C139.347 45.7729 138.336 46.1978 137.159 46.1978C136.002 46.1978 135.001 45.7778 134.156 44.938C133.307 44.0981 132.882 43.1021 132.882 41.9497C132.882 40.7583 133.297 39.7354 134.127 38.8809C134.962 38.0166 135.973 37.5845 137.159 37.5845C138.326 37.5845 139.334 38.0093 140.184 38.8589C141.034 39.7085 141.458 40.7192 141.458 41.8911ZM140.411 41.8472C140.411 40.9487 140.096 40.1724 139.466 39.5181C138.832 38.8589 138.067 38.5293 137.174 38.5293C136.256 38.5293 135.482 38.8711 134.852 39.5547C134.237 40.2188 133.929 41.0122 133.929 41.9351C133.929 42.8335 134.244 43.6099 134.874 44.2642C135.509 44.9233 136.275 45.2529 137.174 45.2529C138.102 45.2529 138.878 44.916 139.503 44.2422C140.108 43.583 140.411 42.7847 140.411 41.8472ZM140.565 32.8677C140.565 33.0923 140.497 33.312 140.36 33.5269C140.326 33.5806 140.27 33.6489 140.191 33.7319L140.096 33.8345L139.796 34.1274C139.737 34.1958 139.681 34.269 139.627 34.3472C139.54 34.479 139.488 34.6914 139.474 34.9844H138.543V34.7866C138.543 34.5376 138.612 34.2959 138.749 34.0615C138.788 33.9932 138.854 33.9053 138.946 33.7979C138.985 33.7539 139.049 33.6904 139.137 33.6074L139.334 33.417C139.398 33.3486 139.457 33.2803 139.51 33.2119C139.588 33.1045 139.627 32.9849 139.627 32.853C139.627 32.6479 139.564 32.4868 139.437 32.3696C139.295 32.2378 139.146 32.1719 138.99 32.1719C138.766 32.1719 138.585 32.2744 138.448 32.4795C138.399 32.5527 138.368 32.6357 138.353 32.7285C138.343 32.7822 138.338 32.9312 138.338 33.1753H137.394V32.8896C137.394 32.4941 137.557 32.1426 137.884 31.835C138.187 31.5566 138.561 31.4175 139.005 31.4175C139.459 31.4175 139.828 31.5542 140.111 31.8276C140.414 32.1255 140.565 32.4722 140.565 32.8677ZM138.492 36.4126L137.203 35.3213L135.885 36.4126H134.515L136.69 34.5376H137.679L139.825 36.4126H138.492ZM143.055 36.7935V34.8965H144.103V36.7935H143.055ZM143.055 46V37.7969H144.103V46H143.055ZM156.334 46V41.4883C156.334 41.0488 156.275 40.6436 156.158 40.2725C156.026 39.8379 155.824 39.4912 155.55 39.2324C155.052 38.7637 154.459 38.5293 153.771 38.5293C153.077 38.5293 152.481 38.7637 151.983 39.2324C151.715 39.4863 151.515 39.8232 151.383 40.2432C151.271 40.6045 151.214 40.9927 151.214 41.4077V46H150.167V34.8965H151.214V38.8442H151.244C151.786 38.0044 152.628 37.5845 153.771 37.5845C154.918 37.5845 155.814 37.9507 156.458 38.6831C157.074 39.3862 157.381 40.3213 157.381 41.4883V46H156.334ZM166.661 46V44.5571H166.632C165.909 45.6509 164.845 46.1978 163.438 46.1978C162.203 46.1978 161.161 45.7852 160.311 44.96C159.457 44.1348 159.029 43.1069 159.029 41.8765C159.029 40.6558 159.461 39.6328 160.326 38.8076C161.18 37.9922 162.218 37.5845 163.438 37.5845C164.869 37.5845 165.934 38.1338 166.632 39.2324H166.661V37.7969H167.716V46H166.661ZM166.727 41.9058C166.727 40.9829 166.412 40.1919 165.782 39.5327C165.143 38.8638 164.361 38.5293 163.438 38.5293C162.467 38.5293 161.664 38.8516 161.029 39.4961C160.394 40.1406 160.077 40.9487 160.077 41.9204C160.077 42.8774 160.396 43.6733 161.036 44.3081C161.676 44.938 162.477 45.2529 163.438 45.2529C164.361 45.2529 165.143 44.9233 165.782 44.2642C166.412 43.6147 166.727 42.8286 166.727 41.9058ZM162.816 48.8198V46.9229H163.929V48.8198H162.816ZM175.78 46V41.4883C175.78 41.0488 175.721 40.6436 175.604 40.2725C175.472 39.8379 175.27 39.4912 174.996 39.2324C174.498 38.7637 173.905 38.5293 173.216 38.5293C172.523 38.5293 171.927 38.7637 171.429 39.2324C171.161 39.4863 170.96 39.8232 170.829 40.2432C170.716 40.6045 170.66 40.9927 170.66 41.4077V46H169.613V37.7969H170.66V38.8442H170.689C171.231 38.0044 172.074 37.5845 173.216 37.5845C174.364 37.5845 175.26 37.9507 175.904 38.6831C176.52 39.3862 176.827 40.3213 176.827 41.4883V46H175.78ZM193.98 46V41.2466C193.98 40.4507 193.812 39.8159 193.475 39.3423C193.084 38.8003 192.508 38.5293 191.747 38.5293C190.985 38.5293 190.411 38.8003 190.025 39.3423C189.684 39.8159 189.513 40.4507 189.513 41.2466V46H188.465V41.2466C188.465 40.4507 188.294 39.8159 187.953 39.3423C187.567 38.8003 186.993 38.5293 186.231 38.5293C185.465 38.5293 184.889 38.8003 184.503 39.3423C184.161 39.8159 183.99 40.4507 183.99 41.2466V46H182.943V37.7969H183.99V38.7417C184.479 37.9702 185.226 37.5845 186.231 37.5845C187.481 37.5845 188.399 38.1094 188.985 39.1592C189.645 38.1094 190.565 37.5845 191.747 37.5845C192.772 37.5845 193.583 37.9238 194.178 38.6025C194.75 39.2471 195.035 40.0869 195.035 41.1221V46H193.98ZM199.745 36.7129L199.247 35.8486L202.235 34.208L202.711 35.1089L199.745 36.7129ZM204.139 39.0127V46H203.15V44.7256H203.121C202.892 45.209 202.528 45.5801 202.03 45.8389C201.576 46.0781 201.063 46.1978 200.492 46.1978C199.261 46.1978 198.321 45.7876 197.672 44.9673C197.403 44.6255 197.21 44.208 197.093 43.7148C197 43.3145 196.954 42.8506 196.954 42.3232V37.7969H198.001V42.3086C198.001 43.2266 198.182 43.9297 198.543 44.418C198.958 44.9746 199.608 45.2529 200.492 45.2529C201.185 45.2529 201.766 45.0308 202.235 44.5864C202.567 44.269 202.799 43.8931 202.931 43.4585C203.038 43.1118 203.092 42.6699 203.092 42.1328V37.7969H204.139V38.0386C204.149 38.0288 204.161 38.019 204.176 38.0093C204.352 37.8677 204.452 37.6943 204.476 37.4893H204.029V36.1709H205.318V37.5332C205.284 37.7725 205.226 37.9727 205.143 38.1338C205.064 38.29 204.967 38.4219 204.85 38.5293C204.737 38.6367 204.635 38.7222 204.542 38.7856C204.454 38.8442 204.322 38.9224 204.146 39.02L204.139 39.0127ZM214.254 43.583C213.37 45.3262 212.01 46.1978 210.174 46.1978C208.954 46.1978 207.916 45.7876 207.062 44.9673C206.197 44.1372 205.765 43.1167 205.765 41.9058C205.765 40.7046 206.2 39.6816 207.069 38.8369C207.933 38.002 208.968 37.5845 210.174 37.5845C211.078 37.5845 211.896 37.8213 212.628 38.2949C213.38 38.7832 213.922 39.4424 214.254 40.2725H213.097C212.486 39.1104 211.522 38.5293 210.204 38.5293C209.261 38.5293 208.463 38.8516 207.809 39.4961C207.145 40.1406 206.812 40.9341 206.812 41.8765C206.812 42.8286 207.14 43.6294 207.794 44.2788C208.448 44.9282 209.251 45.2529 210.204 45.2529C211.556 45.2529 212.521 44.6963 213.097 43.583H214.254ZM228.126 43.583C227.242 45.3262 225.882 46.1978 224.046 46.1978C222.826 46.1978 221.788 45.7876 220.934 44.9673C220.069 44.1372 219.637 43.1167 219.637 41.9058C219.637 40.7046 220.072 39.6816 220.941 38.8369C221.805 38.002 222.84 37.5845 224.046 37.5845C224.95 37.5845 225.768 37.8213 226.5 38.2949C227.252 38.7832 227.794 39.4424 228.126 40.2725H226.969C226.358 39.1104 225.394 38.5293 224.076 38.5293C223.133 38.5293 222.335 38.8516 221.681 39.4961C221.017 40.1406 220.685 40.9341 220.685 41.8765C220.685 42.8286 221.012 43.6294 221.666 44.2788C222.32 44.9282 223.124 45.2529 224.076 45.2529C225.428 45.2529 226.393 44.6963 226.969 43.583H228.126ZM235.831 46V41.4883C235.831 41.0488 235.772 40.6436 235.655 40.2725C235.523 39.8379 235.321 39.4912 235.047 39.2324C234.549 38.7637 233.956 38.5293 233.268 38.5293C232.574 38.5293 231.979 38.7637 231.48 39.2324C231.212 39.4863 231.012 39.8232 230.88 40.2432C230.768 40.6045 230.711 40.9927 230.711 41.4077V46H229.664V34.8965H230.711V38.8442H230.741C231.283 38.0044 232.125 37.5845 233.268 37.5845C234.415 37.5845 235.311 37.9507 235.956 38.6831C236.571 39.3862 236.878 40.3213 236.878 41.4883V46H235.831ZM247.103 41.8911C247.103 43.0679 246.681 44.0786 245.836 44.9233C244.991 45.7729 243.98 46.1978 242.804 46.1978C241.646 46.1978 240.646 45.7778 239.801 44.938C238.951 44.0981 238.526 43.1021 238.526 41.9497C238.526 40.7583 238.941 39.7354 239.771 38.8809C240.606 38.0166 241.617 37.5845 242.804 37.5845C243.971 37.5845 244.979 38.0093 245.829 38.8589C246.678 39.7085 247.103 40.7192 247.103 41.8911ZM246.056 41.8472C246.056 40.9487 245.741 40.1724 245.111 39.5181C244.476 38.8589 243.712 38.5293 242.818 38.5293C241.9 38.5293 241.126 38.8711 240.497 39.5547C239.881 40.2188 239.574 41.0122 239.574 41.9351C239.574 42.8335 239.889 43.6099 240.519 44.2642C241.153 44.9233 241.92 45.2529 242.818 45.2529C243.746 45.2529 244.522 44.916 245.147 44.2422C245.753 43.583 246.056 42.7847 246.056 41.8472ZM261.532 41.8765C261.532 43.1069 261.104 44.1348 260.25 44.96C259.4 45.7852 258.358 46.1978 257.123 46.1978C255.741 46.1978 254.674 45.6509 253.922 44.5571H253.893V48.8784H252.845V37.7969H253.893V39.2324H253.922C254.698 38.1338 255.765 37.5845 257.123 37.5845C258.343 37.5845 259.378 37.9922 260.228 38.8076C261.097 39.6328 261.532 40.6558 261.532 41.8765ZM260.477 41.9204C260.477 40.9487 260.162 40.1406 259.532 39.4961C258.897 38.8516 258.094 38.5293 257.123 38.5293C256.2 38.5293 255.418 38.8638 254.779 39.5327C254.149 40.1919 253.834 40.9829 253.834 41.9058C253.834 42.8286 254.149 43.6147 254.779 44.2642C255.418 44.9233 256.2 45.2529 257.123 45.2529C258.084 45.2529 258.883 44.938 259.518 44.3081C260.157 43.6733 260.477 42.8774 260.477 41.9204ZM269.2 46V41.4883C269.2 41.0488 269.142 40.6436 269.024 40.2725C268.893 39.8379 268.69 39.4912 268.417 39.2324C267.918 38.7637 267.325 38.5293 266.637 38.5293C265.943 38.5293 265.348 38.7637 264.85 39.2324C264.581 39.4863 264.381 39.8232 264.249 40.2432C264.137 40.6045 264.081 40.9927 264.081 41.4077V46H263.033V34.8965H264.081V38.8442H264.11C264.652 38.0044 265.494 37.5845 266.637 37.5845C267.784 37.5845 268.68 37.9507 269.325 38.6831C269.94 39.3862 270.248 40.3213 270.248 41.4883V46H269.2ZM280.377 42.2793H272.906C272.945 43.085 273.285 43.7832 273.924 44.374C274.559 44.96 275.282 45.2529 276.092 45.2529C276.737 45.2529 277.328 45.082 277.865 44.7402C278.421 44.3838 278.81 43.9077 279.029 43.312H280.143C279.84 44.1714 279.317 44.8672 278.575 45.3994C277.833 45.9316 277.01 46.1978 276.107 46.1978C274.925 46.1978 273.915 45.7754 273.075 44.9307C272.245 44.0957 271.83 43.0874 271.83 41.9058C271.83 40.729 272.245 39.7158 273.075 38.8662C273.915 38.0117 274.92 37.5845 276.092 37.5845C277.284 37.5845 278.299 38.0215 279.139 38.8955C279.974 39.7598 280.392 40.7876 280.392 41.979L280.377 42.2793ZM279.315 41.3345C279.178 40.5239 278.814 39.855 278.224 39.3276C277.628 38.7954 276.922 38.5293 276.107 38.5293C275.296 38.5293 274.591 38.7954 273.99 39.3276C273.399 39.855 273.038 40.5239 272.906 41.3345H279.315ZM274.994 36.7129L274.503 35.8486L277.484 34.208L277.967 35.1089L274.994 36.7129ZM290.667 41.8765C290.667 43.1069 290.24 44.1348 289.386 44.96C288.536 45.7852 287.494 46.1978 286.258 46.1978C284.876 46.1978 283.81 45.6509 283.058 44.5571H283.028V48.8784H281.981V37.7969H283.028V39.2324H283.058C283.834 38.1338 284.901 37.5845 286.258 37.5845C287.479 37.5845 288.514 37.9922 289.364 38.8076C290.233 39.6328 290.667 40.6558 290.667 41.8765ZM289.613 41.9204C289.613 40.9487 289.298 40.1406 288.668 39.4961C288.033 38.8516 287.23 38.5293 286.258 38.5293C285.335 38.5293 284.554 38.8638 283.915 39.5327C283.285 40.1919 282.97 40.9829 282.97 41.9058C282.97 42.8286 283.285 43.6147 283.915 44.2642C284.554 44.9233 285.335 45.2529 286.258 45.2529C287.22 45.2529 288.019 44.938 288.653 44.3081C289.293 43.6733 289.613 42.8774 289.613 41.9204Z" fill="white"/>
<path d="M276.431 169V167.089C276.749 166.882 277.013 166.706 277.225 166.562C277.504 166.372 277.756 166.19 277.98 166.017C278.513 165.606 278.977 165.183 279.37 164.747C279.531 164.574 279.679 164.4 279.815 164.227C279.98 164.015 280.124 163.81 280.246 163.611C280.547 163.116 280.697 162.676 280.697 162.291C280.697 161.668 280.394 161.357 279.789 161.357C279.392 161.357 279.102 161.52 278.92 161.846C278.784 162.087 278.706 162.43 278.685 162.875H276.343C276.355 162.409 276.398 162.026 276.47 161.726C276.554 161.345 276.702 160.991 276.914 160.666C277.227 160.183 277.657 159.813 278.202 159.555C278.71 159.318 279.269 159.199 279.878 159.199C280.538 159.199 281.129 159.335 281.649 159.605C282.221 159.902 282.639 160.329 282.906 160.888C283.071 161.26 283.154 161.628 283.154 161.992C283.154 162.487 283.054 162.978 282.855 163.465C282.682 163.896 282.428 164.332 282.094 164.772C281.818 165.136 281.476 165.519 281.065 165.921C280.9 166.082 280.714 166.256 280.507 166.442C280.363 166.577 280.179 166.74 279.954 166.931H283.217V169H276.431ZM284.928 169V166.791H287.175V169H284.928ZM295.893 165.528C295.893 166.277 295.737 166.931 295.424 167.489C295.085 168.082 294.588 168.528 293.932 168.829C293.441 169.066 292.912 169.184 292.345 169.184C291.846 169.184 291.357 169.085 290.879 168.886C289.44 168.281 288.721 167.161 288.721 165.528V162.849C288.721 161.186 289.444 160.065 290.892 159.485C291.382 159.294 291.867 159.199 292.345 159.199C292.84 159.199 293.331 159.303 293.818 159.51C295.202 160.115 295.893 161.228 295.893 162.849V165.528ZM293.437 162.786C293.437 162.358 293.361 162.026 293.208 161.789C293.018 161.501 292.718 161.357 292.307 161.357C291.918 161.357 291.624 161.503 291.425 161.795C291.26 162.045 291.177 162.375 291.177 162.786V165.591C291.177 166.006 291.26 166.338 291.425 166.588C291.619 166.88 291.913 167.026 292.307 167.026C292.718 167.026 293.018 166.882 293.208 166.594C293.361 166.353 293.437 166.019 293.437 165.591V162.786ZM304.13 165.528C304.13 166.277 303.973 166.931 303.66 167.489C303.321 168.082 302.824 168.528 302.168 168.829C301.677 169.066 301.148 169.184 300.581 169.184C300.082 169.184 299.593 169.085 299.115 168.886C297.676 168.281 296.957 167.161 296.957 165.528V162.849C296.957 161.186 297.68 160.065 299.128 159.485C299.619 159.294 300.103 159.199 300.581 159.199C301.076 159.199 301.567 159.303 302.054 159.51C303.438 160.115 304.13 161.228 304.13 162.849V165.528ZM301.673 162.786C301.673 162.358 301.597 162.026 301.445 161.789C301.254 161.501 300.954 161.357 300.543 161.357C300.154 161.357 299.86 161.503 299.661 161.795C299.496 162.045 299.413 162.375 299.413 162.786V165.591C299.413 166.006 299.496 166.338 299.661 166.588C299.855 166.88 300.15 167.026 300.543 167.026C300.954 167.026 301.254 166.882 301.445 166.594C301.597 166.353 301.673 166.019 301.673 165.591V162.786ZM312.366 165.528C312.366 166.277 312.209 166.931 311.896 167.489C311.557 168.082 311.06 168.528 310.404 168.829C309.913 169.066 309.384 169.184 308.817 169.184C308.318 169.184 307.829 169.085 307.351 168.886C305.912 168.281 305.193 167.161 305.193 165.528V162.849C305.193 161.186 305.917 160.065 307.364 159.485C307.855 159.294 308.339 159.199 308.817 159.199C309.312 159.199 309.803 159.303 310.29 159.51C311.674 160.115 312.366 161.228 312.366 162.849V165.528ZM309.909 162.786C309.909 162.358 309.833 162.026 309.681 161.789C309.49 161.501 309.19 161.357 308.779 161.357C308.39 161.357 308.096 161.503 307.897 161.795C307.732 162.045 307.649 162.375 307.649 162.786V165.591C307.649 166.006 307.732 166.338 307.897 166.588C308.092 166.88 308.386 167.026 308.779 167.026C309.19 167.026 309.49 166.882 309.681 166.594C309.833 166.353 309.909 166.019 309.909 165.591V162.786ZM313.924 169V166.791H316.171V169H313.924ZM324.89 165.528C324.89 166.277 324.733 166.931 324.42 167.489C324.081 168.082 323.584 168.528 322.928 168.829C322.437 169.066 321.908 169.184 321.341 169.184C320.842 169.184 320.353 169.085 319.875 168.886C318.436 168.281 317.717 167.161 317.717 165.528V162.849C317.717 161.186 318.441 160.065 319.888 159.485C320.379 159.294 320.863 159.199 321.341 159.199C321.837 159.199 322.327 159.303 322.814 159.51C324.198 160.115 324.89 161.228 324.89 162.849V165.528ZM322.433 162.786C322.433 162.358 322.357 162.026 322.205 161.789C322.014 161.501 321.714 161.357 321.303 161.357C320.914 161.357 320.62 161.503 320.421 161.795C320.256 162.045 320.173 162.375 320.173 162.786V165.591C320.173 166.006 320.256 166.338 320.421 166.588C320.616 166.88 320.91 167.026 321.303 167.026C321.714 167.026 322.014 166.882 322.205 166.594C322.357 166.353 322.433 166.019 322.433 165.591V162.786ZM333.126 165.528C333.126 166.277 332.969 166.931 332.656 167.489C332.318 168.082 331.82 168.528 331.164 168.829C330.674 169.066 330.145 169.184 329.578 169.184C329.078 169.184 328.589 169.085 328.111 168.886C326.672 168.281 325.953 167.161 325.953 165.528V162.849C325.953 161.186 326.677 160.065 328.124 159.485C328.615 159.294 329.099 159.199 329.578 159.199C330.073 159.199 330.564 159.303 331.05 159.51C332.434 160.115 333.126 161.228 333.126 162.849V165.528ZM330.669 162.786C330.669 162.358 330.593 162.026 330.441 161.789C330.25 161.501 329.95 161.357 329.539 161.357C329.15 161.357 328.856 161.503 328.657 161.795C328.492 162.045 328.41 162.375 328.41 162.786V165.591C328.41 166.006 328.492 166.338 328.657 166.588C328.852 166.88 329.146 167.026 329.539 167.026C329.95 167.026 330.25 166.882 330.441 166.594C330.593 166.353 330.669 166.019 330.669 165.591V162.786ZM341.362 165.528C341.362 166.277 341.205 166.931 340.892 167.489C340.554 168.082 340.057 168.528 339.401 168.829C338.91 169.066 338.381 169.184 337.814 169.184C337.314 169.184 336.826 169.085 336.347 168.886C334.909 168.281 334.189 167.161 334.189 165.528V162.849C334.189 161.186 334.913 160.065 336.36 159.485C336.851 159.294 337.335 159.199 337.814 159.199C338.309 159.199 338.8 159.303 339.286 159.51C340.67 160.115 341.362 161.228 341.362 162.849V165.528ZM338.905 162.786C338.905 162.358 338.829 162.026 338.677 161.789C338.487 161.501 338.186 161.357 337.776 161.357C337.386 161.357 337.092 161.503 336.893 161.795C336.728 162.045 336.646 162.375 336.646 162.786V165.591C336.646 166.006 336.728 166.338 336.893 166.588C337.088 166.88 337.382 167.026 337.776 167.026C338.186 167.026 338.487 166.882 338.677 166.594C338.829 166.353 338.905 166.019 338.905 165.591V162.786Z" fill="white"/>
<path d="M36.2152 169V161.446H34.641V159.377H38.6718V169H36.2152ZM49.1296 165.528C49.1296 166.277 48.973 166.931 48.6599 167.489C48.3213 168.082 47.8241 168.528 47.1682 168.829C46.6773 169.066 46.1483 169.184 45.5812 169.184C45.0819 169.184 44.5931 169.085 44.1149 168.886C42.6761 168.281 41.9567 167.161 41.9567 165.528V162.849C41.9567 161.186 42.6804 160.065 44.1276 159.485C44.6185 159.294 45.1031 159.199 45.5812 159.199C46.0764 159.199 46.5673 159.303 47.0539 159.51C48.4377 160.115 49.1296 161.228 49.1296 162.849V165.528ZM46.673 162.786C46.673 162.358 46.5969 162.026 46.4445 161.789C46.2541 161.501 45.9536 161.357 45.5432 161.357C45.1538 161.357 44.8597 161.503 44.6608 161.795C44.4958 162.045 44.4133 162.375 44.4133 162.786V165.591C44.4133 166.006 44.4958 166.338 44.6608 166.588C44.8555 166.88 45.1496 167.026 45.5432 167.026C45.9536 167.026 46.2541 166.882 46.4445 166.594C46.5969 166.353 46.673 166.019 46.673 165.591V162.786ZM57.3657 165.528C57.3657 166.277 57.2091 166.931 56.896 167.489C56.5575 168.082 56.0602 168.528 55.4043 168.829C54.9134 169.066 54.3844 169.184 53.8174 169.184C53.318 169.184 52.8293 169.085 52.3511 168.886C50.9123 168.281 50.1929 167.161 50.1929 165.528V162.849C50.1929 161.186 50.9165 160.065 52.3638 159.485C52.8547 159.294 53.3392 159.199 53.8174 159.199C54.3125 159.199 54.8034 159.303 55.29 159.51C56.6738 160.115 57.3657 161.228 57.3657 162.849V165.528ZM54.9092 162.786C54.9092 162.358 54.833 162.026 54.6807 161.789C54.4902 161.501 54.1898 161.357 53.7793 161.357C53.39 161.357 53.0959 161.503 52.897 161.795C52.7319 162.045 52.6494 162.375 52.6494 162.786V165.591C52.6494 166.006 52.7319 166.338 52.897 166.588C53.0916 166.88 53.3857 167.026 53.7793 167.026C54.1898 167.026 54.4902 166.882 54.6807 166.594C54.833 166.353 54.9092 166.019 54.9092 165.591V162.786ZM58.9241 169V166.791H61.1712V169H58.9241ZM69.8897 165.528C69.8897 166.277 69.7332 166.931 69.42 167.489C69.0815 168.082 68.5842 168.528 67.9283 168.829C67.4374 169.066 66.9085 169.184 66.3414 169.184C65.8421 169.184 65.3533 169.085 64.8751 168.886C63.4363 168.281 62.7169 167.161 62.7169 165.528V162.849C62.7169 161.186 63.4405 160.065 64.8878 159.485C65.3787 159.294 65.8632 159.199 66.3414 159.199C66.8365 159.199 67.3274 159.303 67.8141 159.51C69.1978 160.115 69.8897 161.228 69.8897 162.849V165.528ZM67.4332 162.786C67.4332 162.358 67.357 162.026 67.2047 161.789C67.0143 161.501 66.7138 161.357 66.3033 161.357C65.914 161.357 65.6199 161.503 65.421 161.795C65.256 162.045 65.1734 162.375 65.1734 162.786V165.591C65.1734 166.006 65.256 166.338 65.421 166.588C65.6157 166.88 65.9098 167.026 66.3033 167.026C66.7138 167.026 67.0143 166.882 67.2047 166.594C67.357 166.353 67.4332 166.019 67.4332 165.591V162.786ZM78.1259 165.528C78.1259 166.277 77.9693 166.931 77.6562 167.489C77.3176 168.082 76.8204 168.528 76.1645 168.829C75.6736 169.066 75.1446 169.184 74.5775 169.184C74.0782 169.184 73.5894 169.085 73.1112 168.886C71.6724 168.281 70.953 167.161 70.953 165.528V162.849C70.953 161.186 71.6767 160.065 73.1239 159.485C73.6148 159.294 74.0993 159.199 74.5775 159.199C75.0727 159.199 75.5635 159.303 76.0502 159.51C77.434 160.115 78.1259 161.228 78.1259 162.849V165.528ZM75.6693 162.786C75.6693 162.358 75.5932 162.026 75.4408 161.789C75.2504 161.501 74.9499 161.357 74.5395 161.357C74.1501 161.357 73.856 161.503 73.6571 161.795C73.4921 162.045 73.4096 162.375 73.4096 162.786V165.591C73.4096 166.006 73.4921 166.338 73.6571 166.588C73.8518 166.88 74.1459 167.026 74.5395 167.026C74.9499 167.026 75.2504 166.882 75.4408 166.594C75.5932 166.353 75.6693 166.019 75.6693 165.591V162.786ZM86.362 165.528C86.362 166.277 86.2054 166.931 85.8923 167.489C85.5537 168.082 85.0565 168.528 84.4006 168.829C83.9097 169.066 83.3807 169.184 82.8137 169.184C82.3143 169.184 81.8256 169.085 81.3474 168.886C79.9086 168.281 79.1892 167.161 79.1892 165.528V162.849C79.1892 161.186 79.9128 160.065 81.3601 159.485C81.8509 159.294 82.3355 159.199 82.8137 159.199C83.3088 159.199 83.7997 159.303 84.2863 159.51C85.6701 160.115 86.362 161.228 86.362 162.849V165.528ZM83.9055 162.786C83.9055 162.358 83.8293 162.026 83.677 161.789C83.4865 161.501 83.1861 161.357 82.7756 161.357C82.3863 161.357 82.0922 161.503 81.8933 161.795C81.7282 162.045 81.6457 162.375 81.6457 162.786V165.591C81.6457 166.006 81.7282 166.338 81.8933 166.588C82.0879 166.88 82.382 167.026 82.7756 167.026C83.1861 167.026 83.4865 166.882 83.677 166.594C83.8293 166.353 83.9055 166.019 83.9055 165.591V162.786Z" fill="white"/>
<path d="M35 149H340" stroke="white" stroke-width="2" stroke-linecap="round"/>
<rect x="178" y="142" width="20" height="14" rx="3" fill="white"/>
<path opacity="0.6" d="M184 151.5V146.5" stroke="#E2E2E2" stroke-linecap="round" stroke-linejoin="round"/>
<path opacity="0.3" d="M180 151.5V147.5" stroke="#E2E2E2" stroke-linecap="round" stroke-linejoin="round"/>
<path d="M188 151.5V145.5" stroke="#E2E2E2" stroke-linecap="round" stroke-linejoin="round"/>
<path opacity="0.6" d="M192 151.5V146.5" stroke="#E2E2E2" stroke-linecap="round" stroke-linejoin="round"/>
<path opacity="0.3" d="M196 151.5V147.5" stroke="#E2E2E2" stroke-linecap="round" stroke-linejoin="round"/>
</g>
<defs>
<filter id="filter0_d" x="0" y="0" width="375" height="210" filterUnits="userSpaceOnUse" color-interpolation-filters="sRGB">
<feFlood flood-opacity="0" result="BackgroundImageFix"/>
<feColorMatrix in="SourceAlpha" type="matrix" values="0 0 0 0 0 0 0 0 0 0 0 0 0 0 0 0 0 0 127 0"/>
<feOffset dy="5"/>
<feGaussianBlur stdDeviation="10"/>
<feColorMatrix type="matrix" values="0 0 0 0 0 0 0 0 0 0 0 0 0 0 0 0 0 0 0.2 0"/>
<feBlend mode="normal" in2="BackgroundImageFix" result="effect1_dropShadow"/>
<feBlend mode="normal" in="SourceGraphic" in2="effect1_dropShadow" result="shape"/>
</filter>
<linearGradient id="paint0_linear" x1="187.5" y1="270" x2="324.705" y2="-0.373782" gradientUnits="userSpaceOnUse">
<stop stop-color="#00CFFF"/>
<stop offset="1" stop-color="#005CEC"/>
<stop offset="1" stop-color="#005BEC"/>
</linearGradient>
</defs>
</svg>
