<svg width="12" height="12" viewBox="0 0 12 12" fill="none" xmlns="http://www.w3.org/2000/svg">
<g clip-path="url(#clip0)">
<path d="M4.37204 6.62074C4.37204 6.47041 4.25011 6.34863 4.09966 6.34863H3.14918C2.99891 6.34863 2.87695 6.47041 2.87695 6.62074V7.5711C2.87695 7.72161 2.99891 7.84345 3.14918 7.84345H4.09966C4.25011 7.84345 4.37204 7.72161 4.37204 7.5711V6.62074Z" fill="#C9CDD6"/>
<path d="M6.74736 6.62074C6.74736 6.47041 6.62541 6.34863 6.47526 6.34863H5.52467C5.37439 6.34863 5.25244 6.47041 5.25244 6.62074V7.5711C5.25244 7.72161 5.37439 7.84345 5.52467 7.84345H6.47526C6.62541 7.84345 6.74736 7.72161 6.74736 7.5711V6.62074Z" fill="#C9CDD6"/>
<path d="M9.12301 6.62074C9.12301 6.47041 9.00106 6.34863 8.85079 6.34863H7.9003C7.74986 6.34863 7.62793 6.47041 7.62793 6.62074V7.5711C7.62793 7.72161 7.74986 7.84345 7.9003 7.84345H8.85079C9.00106 7.84345 9.12301 7.72161 9.12301 7.5711V6.62074Z" fill="#C9CDD6"/>
<path d="M4.37204 8.99588C4.37204 8.84532 4.25011 8.72363 4.09966 8.72363H3.14918C2.99891 8.72363 2.87695 8.84532 2.87695 8.99588V9.94607C2.87695 10.0965 2.99891 10.2183 3.14918 10.2183H4.09966C4.25011 10.2183 4.37204 10.0965 4.37204 9.94607V8.99588Z" fill="#C9CDD6"/>
<path d="M6.74736 8.99588C6.74736 8.84532 6.62541 8.72363 6.47526 8.72363H5.52467C5.37439 8.72363 5.25244 8.84532 5.25244 8.99588V9.94607C5.25244 10.0965 5.37439 10.2183 5.52467 10.2183H6.47526C6.62541 10.2183 6.74736 10.0965 6.74736 9.94607V8.99588Z" fill="#C9CDD6"/>
<path d="M9.12301 8.99588C9.12301 8.84532 9.00106 8.72363 8.85091 8.72363H7.9003C7.74986 8.72363 7.62793 8.84532 7.62793 8.99588V9.94607C7.62793 10.0965 7.74986 10.2183 7.9003 10.2183H8.85091C9.00106 10.2183 9.12301 10.0965 9.12301 9.94607V8.99588Z" fill="#C9CDD6"/>
<path d="M10.8226 1.33627V2.78786C10.8226 3.44397 10.2903 3.97269 9.63432 3.97269H8.88472C8.22867 3.97269 7.68935 3.44397 7.68935 2.78786V1.33105H4.31073V2.78786C4.31073 3.44397 3.77144 3.97269 3.11548 3.97269H2.36574C1.70975 3.97269 1.17752 3.44397 1.17752 2.78786V1.33627C0.60418 1.35355 0.133057 1.82797 0.133057 2.41109V10.9181C0.133057 11.5122 0.614579 12.0001 1.20866 12.0001H10.7914C11.3846 12.0001 11.867 11.5112 11.867 10.9181V2.41109C11.867 1.82797 11.3959 1.35355 10.8226 1.33627ZM10.4744 10.3884C10.4744 10.6451 10.2663 10.8534 10.0094 10.8534H1.97018C1.71334 10.8534 1.50518 10.6451 1.50518 10.3884V5.99418C1.50518 5.73735 1.71332 5.52906 1.97018 5.52906H10.0094C10.2662 5.52906 10.4744 5.73735 10.4744 5.99418L10.4744 10.3884Z" fill="#C9CDD6"/>
<path d="M2.3631 3.19437H3.10455C3.32961 3.19437 3.51208 3.01217 3.51208 2.78712V0.407406C3.51208 0.182328 3.32961 0 3.10455 0H2.3631C2.13802 0 1.95557 0.182328 1.95557 0.407406V2.78712C1.95557 3.01217 2.13802 3.19437 2.3631 3.19437Z" fill="#C9CDD6"/>
<path d="M8.87528 3.19437H9.61673C9.84164 3.19437 10.0241 3.01217 10.0241 2.78712V0.407406C10.0241 0.182328 9.84166 0 9.61673 0H8.87528C8.65025 0 8.46777 0.182328 8.46777 0.407406V2.78712C8.46777 3.01217 8.65025 3.19437 8.87528 3.19437Z" fill="#C9CDD6"/>
</g>
<defs>
<clipPath id="clip0">
<rect width="12" height="12" fill="white"/>
</clipPath>
</defs>
</svg>
