<svg xmlns="http://www.w3.org/2000/svg" width="171" height="171" fill="none" viewBox="0 0 171 171">
    <path fill="#574D45" d="M2.672 141.609l18.703-18.703 21.375 18.703"/>
    <path fill="#7A6F65" d="M18.703 144.281l37.406-40.078 40.078 40.078H18.704zM74.813 162.984l-13.36-10.687-13.36 10.687"/>
    <path fill="#664442" d="M91.185 140.812l26.718-82.853 5.087 1.64-26.718 82.854-5.087-1.641z"/>
    <path fill="#0064B0" d="M141.609 109.547l10.688 37.406-8.016 2.672-14.989-38.208 1.095-1.87 18.677-20.173-7.455 20.173z"/>
    <path fill="#0075FF" d="M155.129 74.813v4.862a8.03 8.03 0 0 1-2.137 5.45l-3.928 4.25-18.676 20.172-1.096 1.87-19.585 32.864-8.015-2.672 16.031-34.734 21.375-32.063h16.031z"/>
    <path fill="url(#a)" d="M141.877 37.273l13.252 37.54h-16.031l-2.458-7.402-.214 2.058-26.719 18.703-8.015-5.344 22.39-20.573 1.336-22.444a8.04 8.04 0 0 1 5.05-6.974l.881-.347a8.019 8.019 0 0 1 10.528 4.783z"/>
    <mask id="b" width="3" height="3" x="133" y="42" maskUnits="userSpaceOnUse">
        <path fill="#fff" fill-rule="evenodd" d="M133.693 42H136v2.307h-2.307V42z" clip-rule="evenodd"/>
    </mask>
    <g mask="url(#b)">
        <path fill="#fff" fill-rule="evenodd" d="M134.164 42.148l-.471.472 1.681.006.006 1.681.472-.472a.509.509 0 0 0 .148-.36l-.005-1.438a.033.033 0 0 0-.033-.032L134.524 42a.508.508 0 0 0-.36.148z" clip-rule="evenodd"/>
    </g>
    <mask id="c" width="3" height="3" x="128" y="43" maskUnits="userSpaceOnUse">
        <path fill="#fff" fill-rule="evenodd" d="M128 43.247h2.763v1.9H128v-1.9z" clip-rule="evenodd"/>
    </mask>
    <g mask="url(#c)">
        <path fill="#fff" fill-rule="evenodd" d="M128 43.247h.445l.371 1.419h.007l.357-1.419h.422l.342 1.419h.007l.386-1.419h.426l-.595 1.9h-.43l-.353-1.411h-.007l-.349 1.41h-.441L128 43.248z" clip-rule="evenodd"/>
    </g>
    <mask id="d" width="3" height="3" x="130" y="43" maskUnits="userSpaceOnUse">
        <path fill="#fff" fill-rule="evenodd" d="M130.899 43.196h1.823v2.002h-1.823v-2.002z" clip-rule="evenodd"/>
    </mask>
    <g mask="url(#d)">
        <path fill="#fff" fill-rule="evenodd" d="M132.295 44.03a.688.688 0 0 0-.042-.191.515.515 0 0 0-.096-.16.466.466 0 0 0-.147-.11.502.502 0 0 0-.393-.004.448.448 0 0 0-.154.106.532.532 0 0 0-.145.359h.977zm-.977.275c0 .074.01.145.031.214a.46.46 0 0 0 .251.303c.064.03.14.046.228.046a.503.503 0 0 0 .296-.08.46.46 0 0 0 .167-.236h.397a.787.787 0 0 1-.308.48.847.847 0 0 1-.256.124 1.026 1.026 0 0 1-.296.042c-.149 0-.281-.024-.397-.073a.825.825 0 0 1-.472-.522 1.296 1.296 0 0 1 .004-.788.979.979 0 0 1 .184-.32.867.867 0 0 1 .67-.3.852.852 0 0 1 .698.342 1.08 1.08 0 0 1 .199.768h-1.396z" clip-rule="evenodd"/>
    </g>
    <mask id="e" width="3" height="3" x="132" y="43" maskUnits="userSpaceOnUse">
        <path fill="#fff" fill-rule="evenodd" d="M132.996 43.196h1.823v2.002h-1.823v-2.002z" clip-rule="evenodd"/>
    </mask>
    <g mask="url(#e)">
        <path fill="#fff" fill-rule="evenodd" d="M134.392 44.03a.688.688 0 0 0-.042-.191.496.496 0 0 0-.243-.27.502.502 0 0 0-.393-.004.458.458 0 0 0-.154.106.532.532 0 0 0-.145.359h.977zm-.977.275c0 .074.01.145.031.214a.522.522 0 0 0 .094.18.442.442 0 0 0 .158.123c.063.03.139.046.227.046a.503.503 0 0 0 .296-.08.46.46 0 0 0 .167-.236h.397a.787.787 0 0 1-.308.48.836.836 0 0 1-.256.124 1.026 1.026 0 0 1-.296.042c-.149 0-.281-.024-.396-.073a.82.82 0 0 1-.473-.522 1.296 1.296 0 0 1 .004-.788.979.979 0 0 1 .184-.32.877.877 0 0 1 .288-.219.877.877 0 0 1 .382-.08.852.852 0 0 1 .699.341 1.08 1.08 0 0 1 .198.768h-1.396z" clip-rule="evenodd"/>
    </g>
    <path fill="#F4C3B1" d="M133.693 8.077a9.355 9.355 0 0 0-10.199-2.032 9.356 9.356 0 0 0-5.771 8.65v2.672a9.35 9.35 0 1 0 18.703 0v-2.672a9.416 9.416 0 0 0-2.733-6.618z"/>
    <path fill="#0064B0" d="M136.64 67.411l1.477-25.318 3.639.355-5.116 24.963z"/>
    <path fill="#CC8B2A" d="M121.731 10.688h-2.352a5.343 5.343 0 0 1-5.343-5.344h13.038a5.344 5.344 0 0 1-5.343 5.343z"/>
    <path fill="#D3D3D3" d="M80.314 133.594l24.047 8.015-1.12 3.359a26.718 26.718 0 0 1-16.9 16.897l-3.355 1.119-1.694-2.821a26.72 26.72 0 0 1-2.437-22.195l1.459-4.374z"/>
    <defs>
        <linearGradient id="a" x1="128.41" x2="184.588" y1="116.297" y2="62.93" gradientUnits="userSpaceOnUse">
            <stop stop-color="#00CFFF"/>
            <stop offset="1" stop-color="#0065FF"/>
            <stop offset="1" stop-color="#005BEC"/>
        </linearGradient>
    </defs>
</svg>
