<svg width="117" height="29" viewBox="0 0 117 29" fill="none" xmlns="http://www.w3.org/2000/svg">
<path fill-rule="evenodd" clip-rule="evenodd" d="M33.5712 21.058V18.7449H31.9543V16.2705H29.0078V18.7449H27.5347V21.058H29.0078V25.3202C29.0078 26.6717 30.1329 28.6771 32.5704 28.6771L33.5691 28.646L33.5729 26.064C33.4673 26.0733 33.4036 26.0766 33.3803 26.0766C32.5347 26.0766 31.9543 25.3874 31.9543 24.6612V21.058H33.5712Z" fill="#005992"/>
<path fill-rule="evenodd" clip-rule="evenodd" d="M24.1573 22.6269C23.9562 21.4998 22.9558 20.6858 21.8192 20.6858C20.7386 20.6858 19.6894 21.4355 19.4815 22.6269H24.1573ZM26.9838 24.6152H19.431C19.4815 25.6999 20.4526 26.7933 21.8192 26.7933C22.5319 26.7933 23.4238 26.4252 23.9108 25.5612H26.7186C26.4047 26.4714 25.6838 27.4073 24.854 28.0146C23.9715 28.6572 22.9409 28.9732 21.8544 28.9732C20.4 28.9732 19.1577 28.4609 18.1293 27.4363C17.095 26.4181 16.6066 25.0291 16.6066 23.7079C16.6066 22.3622 17.0835 21.0586 18.0945 20.0223C19.117 18.9691 20.4339 18.4316 21.8336 18.4316C23.2235 18.4316 24.5684 18.9691 25.5799 20.0223C26.5672 21.0586 27.1039 22.3782 27.0606 23.8335C27.0538 24.0588 27.0237 24.408 26.9838 24.6152Z" fill="#005992"/>
<path fill-rule="evenodd" clip-rule="evenodd" d="M12.5327 21.37C12.5327 19.7991 13.8292 18.7393 15.1856 18.7393H15.4758V28.6773H12.5403L12.5327 21.37Z" fill="#005992"/>
<path fill-rule="evenodd" clip-rule="evenodd" d="M34.7619 21.37C34.7619 19.7991 36.0585 18.7393 37.4148 18.7393H37.705V28.6773H34.7695L34.7619 21.37Z" fill="#005992"/>
<path fill-rule="evenodd" clip-rule="evenodd" d="M45.48 28.6747V22.6681C45.48 21.8868 44.8708 21.0715 43.8742 21.0715C42.6425 21.0715 42.1962 22.0532 42.1962 22.716V28.6747H39.203V18.7597H41.9938V19.815H42.0375C42.5781 19.0884 43.6158 18.4248 44.8542 18.4248C47.0901 18.4248 48.4732 20.242 48.4732 21.9814V28.6747H45.48Z" fill="#005992"/>
<mask id="mask0" mask-type="alpha" maskUnits="userSpaceOnUse" x="61" y="18" width="12" height="11">
<path fill-rule="evenodd" clip-rule="evenodd" d="M61.6093 18.4111H72.4383V28.9997H61.6093V18.4111Z" fill="white"/>
</mask>
<g mask="url(#mask0)">
<path fill-rule="evenodd" clip-rule="evenodd" d="M68.768 25.5048C68.3098 25.9873 67.7332 26.2281 67.0365 26.2281C66.3637 26.2281 65.7922 25.9843 65.3229 25.4964C64.8643 25.0144 64.6352 24.4273 64.6352 23.7356C64.6352 23.0153 64.8558 22.4143 65.297 21.9319C65.7493 21.4322 66.3238 21.1821 67.0196 21.1821C67.7213 21.1821 68.3013 21.4208 68.7595 21.897C69.2181 22.3735 69.4472 22.9745 69.4472 23.7011C69.4472 24.421 69.2202 25.0228 68.768 25.5048ZM69.4858 18.7507V19.8051H69.4515C69.1732 19.3407 68.7561 18.986 68.2007 18.7423C67.7026 18.5212 67.1583 18.4111 66.5682 18.4111C65.115 18.4111 63.9165 18.931 62.9729 19.9711C62.0637 20.9763 61.6093 22.2194 61.6093 23.7012C61.6093 25.2057 62.0548 26.4581 62.9466 27.4574C63.8728 28.4858 65.0807 28.9997 66.5682 28.9997C67.1642 28.9997 67.7111 28.8922 68.2096 28.6774C68.7883 28.4278 69.202 28.0647 69.4515 27.5877H69.4858V28.6602H72.4383V18.7507H69.4858Z" fill="#005992"/>
</g>
<path fill-rule="evenodd" clip-rule="evenodd" d="M101.877 8.19277H108.729V14.1712C111.28 14.5558 113.691 15.3652 115.886 16.5196C116.601 15.0239 117 13.3509 117 11.5867C117 5.18714 111.76 0 105.303 0C98.8461 0 93.6132 5.18714 93.6132 11.5867C93.6132 13.3471 94.009 15.0168 94.7201 16.512C96.9191 15.358 99.3263 14.552 101.877 14.1675V8.19277Z" fill="#005992"/>
<path fill-rule="evenodd" clip-rule="evenodd" d="M105.303 23.1482C109.393 23.1482 112.991 21.0684 115.084 17.9173C112.163 16.386 108.829 15.5186 105.292 15.5186C101.763 15.5186 98.4359 16.3822 95.5225 17.9106C97.6111 21.0646 101.21 23.1482 105.303 23.1482Z" fill="#D71249"/>
<path fill-rule="evenodd" clip-rule="evenodd" d="M80.2087 28.6747V22.6681C80.2087 21.8868 79.5999 21.0715 78.6028 21.0715C77.3716 21.0715 76.9248 22.0532 76.9248 22.716V28.6747H73.9316V18.7597H76.7225V19.815H76.7666C77.3067 19.0884 78.3449 18.4248 79.5837 18.4248C81.8188 18.4248 83.2019 20.242 83.2019 21.9814V28.6747H80.2087Z" fill="#005992"/>
<path fill-rule="evenodd" clip-rule="evenodd" d="M6.60287 28.671C7.36401 28.671 8.40092 28.263 8.88501 27.0241C10.1298 23.8394 13.9211 14.3115 13.9211 14.3115H10.8884L7.27703 23.4251L3.66906 14.3115H0L5.6907 28.671H6.60287Z" fill="#005992"/>
<path fill-rule="evenodd" clip-rule="evenodd" d="M56.1087 26.021H53.3344V22.609H56.0548C57.2916 22.609 57.8096 23.639 57.8096 24.2568C57.8096 25.3318 56.9721 26.021 56.1087 26.021ZM53.3493 16.9797H55.5258C56.4422 16.9797 57.11 17.6593 57.11 18.4678C57.11 19.3789 56.292 19.9585 55.5258 19.9551H53.3493V16.9797ZM58.4172 20.9705C60.3476 19.9278 60.2305 18.1514 60.0324 17.1697C59.785 15.9434 58.4694 14.3087 55.5033 14.3263H49.9751V28.6745H55.6043C59.2394 28.6745 60.9004 26.5837 60.8537 24.3236C60.8329 23.3163 60.5436 21.6303 58.4172 20.9705Z" fill="#005992"/>
<path fill-rule="evenodd" clip-rule="evenodd" d="M90.4847 23.1564L94.7193 18.7471H90.9671L87.7512 22.2831L87.7588 16.9081C87.7588 15.3372 86.4627 14.2773 85.1059 14.2773H84.6935V28.6591H87.7512V24.1978L90.7821 28.6591H94.7193L90.4847 23.1564Z" fill="#005992"/>
</svg>
