<svg xmlns="http://www.w3.org/2000/svg" width="10" height="10" fill="none" viewBox="0 0 10 10">
    <path fill="#828897" fill-rule="evenodd" d="M0 3a3 3 0 0 1 3-3h4a3 3 0 0 1 3 3v4a3 3 0 0 1-3 3H3a3 3 0 0 1-3-3V3zm8.49.204L6.519 5.067 8.491 6.93a.77.77 0 0 0 .009-.113v-3.5a.77.77 0 0 0-.01-.113zm-.166-.378L5.432 5.558a.645.645 0 0 1-.864 0L1.676 2.826a.777.777 0 0 1 .602-.287h5.444c.242 0 .46.112.602.287zm-6.815.378a.783.783 0 0 0-.009.113v3.5c0 .038.004.076.01.113L3.48 5.067 1.51 3.204zM5 6.114c.253 0 .506-.091.699-.274l.536-.506 2.09 1.973a.777.777 0 0 1-.603.287H2.278a.777.777 0 0 1-.602-.287l2.089-1.973.536.506c.193.183.446.274.699.274z" clip-rule="evenodd"/>
</svg>
