<svg xmlns="http://www.w3.org/2000/svg" width="10" height="10" fill="none" viewBox="0 0 10 10">
    <path fill="#828897" fill-rule="evenodd" d="M0 3a3 3 0 0 1 3-3h4a3 3 0 0 1 3 3v4a3 3 0 0 1-3 3H3a3 3 0 0 1-3-3V3zm3.656-.213l.376.563a.257.257 0 0 1-.056.346l-.463.36a.256.256 0 0 0-.068.327l.037.066c.126.232.284.522.864 1.103.58.58.87.738 1.102.864l.068.037c.11.062.25.033.327-.068l.36-.462a.257.257 0 0 1 .345-.056l.582.387.654.436a.257.257 0 0 1 .078.347l-.31.517a.631.631 0 0 1-.371.286c-.515.141-1.651.17-3.472-1.65-1.82-1.821-1.792-2.957-1.65-3.472a.631.631 0 0 1 .286-.371l.517-.31a.257.257 0 0 1 .346.078l.448.672zm3.429 1.857a.102.102 0 0 0 .203 0 1.934 1.934 0 0 0-1.932-1.932.102.102 0 0 0 0 .203 1.73 1.73 0 0 1 1.729 1.729zm-.509.102a.102.102 0 0 1-.101-.102 1.12 1.12 0 0 0-1.12-1.119.102.102 0 0 1 0-.203c.73 0 1.322.592 1.323 1.322a.102.102 0 0 1-.102.102zm-.712-.102a.102.102 0 0 0 .204 0 .713.713 0 0 0-.712-.712.102.102 0 0 0 0 .203.51.51 0 0 1 .508.509z" clip-rule="evenodd"/>
</svg>
