<svg xmlns="http://www.w3.org/2000/svg" width="40" height="40" fill="none" viewBox="0 0 40 40">
    <rect width="40" height="40" fill="url(#a)" rx="5"/>
    <path fill="#fff" fill-rule="evenodd" d="M16.41 12.171h6.041c.309 0 .663.355.663.679v6.227l-7.445 1.988v-1.248l1.172-.278 5.102-1.356v-4.84H16.84v.231h-1.172v-.694c0-.339.386-.709.74-.709z" clip-rule="evenodd"/>
    <path fill="#fff" fill-rule="evenodd" d="M14.667 15.116h2.266c.077 0 .139-.016.154-.016.478-.139.524-.94-.17-.956H14.22c-.848 0-1.788-.077-2.497.185-2.127.802-2.158 3.5-.786 4.517l3.56 1.71c.633.309.987-.508.54-.77l-1.187-.71c-.17-.06-.37-.215-.077-.277l4.178-.015c.554 0 .693-.91.015-.925H14.667c-.092 0-.154-.077-.139-.17a.148.148 0 0 1 .14-.107c.092-.031.215-.016.37-.016h3.128c.355.016.74-.03.74-.493 0-.524-.508-.478-.77-.478h-2.482c-.324 0-.663-.015-.987-.015a.14.14 0 0 1-.108-.046c-.03-.016-.03-.016-.03-.062-.016-.077.046-.17.138-.17h3.16c.308 0 .601.016.601-.447 0-.431-.293-.462-.6-.462h-3.16c-.186 0-.186-.277 0-.277zM23.793 28.171H17.75c-.324 0-.678-.354-.678-.678v-6.227l7.445-1.989v1.249l-1.171.277-5.103 1.372V27h5.103v-.231h1.171v.693c0 .34-.385.71-.724.71z" clip-rule="evenodd"/>
    <path fill="#fff" fill-rule="evenodd" d="M25.519 25.227h-2.266c-.077.016-.139.016-.154.016-.478.138-.524.955.185.955h2.682c.848.016 1.788.077 2.497-.185 2.142-.801 2.158-3.499.786-4.516l-3.545-1.711c-.648-.308-1.002.509-.555.77l1.187.71c.17.077.37.216.077.277l-4.177.016c-.555 0-.694.91-.016.924H25.52c.092 0 .154.078.139.17v.016c-.016.046-.078.092-.14.092-.092.03-.215.015-.37.015H22.02c-.34 0-.74.031-.74.494 0 .524.509.477.77.477h2.482c.34 0 .663.016.987.016a.14.14 0 0 1 .108.046c.03.016.03.031.03.062.016.092-.046.17-.138.17h-3.16c-.293 0-.601-.016-.601.446 0 .432.293.463.6.463h3.16c.186 0 .186.277 0 .277z" clip-rule="evenodd"/>
    <defs>
        <linearGradient id="a" x1="40" x2="0" y2="40" gradientUnits="userSpaceOnUse">
            <stop stop-color="#00A548"/>
            <stop offset="1" stop-color="#BDD50A"/>
        </linearGradient>
    </defs>
</svg>
