<svg xmlns="http://www.w3.org/2000/svg" width="20" height="17" fill="none" viewBox="0 0 20 17">
    <path fill="#484A5D" fill-rule="evenodd" d="M8.466 13.397H15.746a3.094 3.094 0 0 0 3.094-3.095V4.255a3.095 3.095 0 0 0-3.095-3.094H4.255a3.095 3.095 0 0 0-3.094 3.094v6.647a2.495 2.495 0 0 0 2.494 2.495c.367 0 .661.178.843.396.151.182.21.37.236.466.052.194.057.392.058.504a7.83 7.83 0 0 1-.007.353c.104-.081.225-.175.376-.287.74-.55 1.788-1.219 3.234-1.422l.071-.01zm.073 1.031h7.207a4.126 4.126 0 0 0 4.125-4.126V4.255A4.126 4.126 0 0 0 15.745.13H4.255A4.126 4.126 0 0 0 .13 4.255v6.647a3.526 3.526 0 0 0 3.526 3.527c.124 0 .111.327.096.73-.025.642-.057 1.475.444 1.475.32 0 .69-.288 1.164-.657.737-.573 1.727-1.344 3.18-1.549zm-2.22-5.326c0-.494.41-.892.891-.892.506 0 .892.355.892.892 0 .527-.35.893-.904.893-.494 0-.88-.366-.88-.893zm0-4.325a.9.9 0 0 1 .891-.903c.506 0 .892.355.892.903 0 .516-.35.882-.904.882a.858.858 0 0 1-.88-.882zm6.336 1.1c0 2.507-1.022 4.58-1.947 5.69h.983c.8-.973 1.929-3.035 1.929-5.69 0-1.09-.154-2.104-.502-2.898h-.897c.386.942.434 1.84.434 2.898z" clip-rule="evenodd"/>
    <path fill="#484A5D" d="M8.466 13.397v-.129h-.009l-.009.001.018.128zm-3.968.396l.1-.082-.1.082zm.236.466l-.124.033.124-.033zm.058.504l.129-.001-.13.001zm-.007.353l-.13-.005-.01.277.22-.17-.08-.102zm.376-.287l.077.104-.077-.104zm3.234-1.422l-.018-.128.018.128zm.144 1.021V14.3h-.01l-.008.002.018.127zm-4.788.73l-.129-.004.129.005zm1.608.819l.08.101-.08-.101zm5.349-4.41l-.1-.082-.176.212h.276v-.13zm.983 0v.13h.061l.039-.047-.1-.082zm1.427-8.588l.118-.051-.033-.078h-.085v.13zm-.897 0V2.85h-.192l.073.178.12-.049zM8.54 13.268h-.073v.258h.073v-.258zm.008 0h-.008v.258h.008v-.258zm.008 0h-.008v.258h.008v-.258zm.009 0h-.009v.258h.009v-.258zm.008 0h-.008v.258h.008v-.258zm.009 0h-.009v.258h.009v-.258zm.008 0h-.008v.258h.008v-.258zm.009 0h-.009v.258h.009v-.258zm.008 0h-.008v.258h.008v-.258zm.009 0h-.009v.258h.009v-.258zm.009 0h-.009v.258h.009v-.258zm.008 0h-.008v.258h.008v-.258zm.01 0h-.01v.258h.01v-.258zm.008 0h-.009v.258h.009v-.258zm.009 0H8.65v.258h.009v-.258zm.009 0h-.01v.258h.01v-.258zm.009 0h-.01v.258h.01v-.258zm.009 0h-.01v.258h.01v-.258zm.009 0h-.01v.258h.01v-.258zm.009 0h-.01v.258h.01v-.258zm.009 0h-.01v.258h.01v-.258zm.009 0h-.01v.258h.01v-.258zm.009 0h-.01v.258h.01v-.258zm.01 0h-.01v.258h.01v-.258zm.008 0H8.74v.258h.01v-.258zm.01 0h-.01v.258h.01v-.258zm.009 0h-.01v.258h.01v-.258zm.01 0h-.01v.258h.01v-.258zm.009 0h-.01v.258h.01v-.258zm.01 0h-.01v.258h.01v-.258zm.009 0h-.01v.258h.01v-.258zm.01 0h-.01v.258h.01v-.258zm.009 0h-.01v.258h.01v-.258zm.01 0h-.01v.258h.01v-.258zm.009 0h-.01v.258h.01v-.258zm.01 0h-.01v.258h.01v-.258zm.01 0h-.01v.258h.01v-.258zm.009 0h-.01v.258h.01v-.258zm.01 0h-.01v.258h.01v-.258zm.01 0h-.01v.258h.01v-.258zm.01 0h-.01v.258h.01v-.258zm.009 0h-.01v.258h.01v-.258zm.01 0h-.01v.258h.01v-.258zm.01 0h-.01v.258h.01v-.258zm.01 0h-.01v.258h.01v-.258zm.01 0h-.01v.258h.01v-.258zm.01 0h-.01v.258h.01v-.258zm.01 0h-.01v.258h.01v-.258zm.01 0h-.01v.258h.01v-.258zm.01 0h-.01v.258h.01v-.258zm.01 0h-.01v.258h.01v-.258zm.01 0h-.01v.258h.01v-.258zm.01 0h-.01v.258h.01v-.258zm.011 0h-.01v.258h.01v-.258zm.01 0h-.01v.258h.01v-.258zm.01 0h-.01v.258h.01v-.258zm.011 0h-.01v.258h.01v-.258zm.01 0h-.01v.258h.01v-.258zm.01 0h-.01v.258h.01v-.258zm.011 0h-.01v.258h.01v-.258zm.01 0h-.01v.258h.01v-.258zm.011 0h-.01v.258h.01v-.258zm.011 0h-.01v.258h.01v-.258zm.01 0h-.01v.258h.01v-.258zm.011 0h-.01v.258h.01v-.258zm.01 0h-.01v.258h.01v-.258zm.012 0h-.011v.258h.01v-.258zm.01 0h-.01v.258h.01v-.258zm.011 0h-.01v.258h.01v-.258zm.011 0h-.01v.258h.01v-.258zm.01 0h-.01v.258h.01v-.258zm.012 0h-.011v.258h.01v-.258zm.01 0h-.01v.258h.01v-.258zm.012 0h-.011v.258h.01v-.258zm.01 0h-.01v.258h.01v-.258zm.012 0h-.011v.258h.01v-.258zm.01 0h-.01v.258h.01v-.258zm.012 0h-.011v.258h.01v-.258zm.01 0h-.01v.258h.01v-.258zm.012 0H9.3v.258h.01v-.258zm.011 0h-.011v.258h.011v-.258zm.011 0h-.01v.258h.01v-.258zm.012 0h-.012v.258h.012v-.258zm.01 0h-.01v.258h.01v-.258zm.012 0h-.011v.258h.011v-.258zm.011 0h-.01v.258h.01v-.258zm.012 0h-.012v.258h.012v-.258zm.011 0h-.011v.258h.011v-.258zm.012 0h-.012v.258h.012v-.258zm.011 0h-.011v.258h.011v-.258zm.011 0h-.011v.258h.011v-.258zm.012 0h-.011v.258h.011v-.258zm.012 0h-.012v.258h.012v-.258zm.011 0H9.46v.258h.011v-.258zm.012 0H9.47v.258h.012v-.258zm.011 0h-.011v.258h.011v-.258zm.012 0h-.012v.258h.012v-.258zm.012 0h-.012v.258h.012v-.258zm.011 0h-.011v.258h.011v-.258zm.012 0H9.53v.258h.012v-.258zm.012 0h-.012v.258h.012v-.258zm.012 0h-.012v.258h.012v-.258zm.012 0h-.012v.258h.012v-.258zm.012 0h-.012v.258h.012v-.258zm.011 0H9.59v.258H9.6v-.258zm.012 0H9.6v.258h.012v-.258zm.012 0h-.012v.258h.012v-.258zm.012 0h-.012v.258h.012v-.258zm.012 0h-.012v.258h.012v-.258zm.012 0h-.012v.258h.012v-.258zm.012 0H9.66v.258h.012v-.258zm.013 0h-.013v.258h.013v-.258zm.012 0h-.012v.258h.012v-.258zm.012 0h-.012v.258h.012v-.258zm.012 0h-.012v.258h.012v-.258zm.012 0h-.012v.258h.012v-.258zm.013 0h-.013v.258h.013v-.258zm.012 0h-.012v.258h.012v-.258zm.012 0h-.012v.258h.012v-.258zm.012 0H9.77v.258h.012v-.258zm.013 0h-.013v.258h.013v-.258zm.012 0h-.012v.258h.012v-.258zm.013 0h-.013v.258h.013v-.258zm.012 0H9.82v.258h.012v-.258zm.012 0h-.012v.258h.012v-.258zm.013 0h-.013v.258h.013v-.258zm.013 0h-.013v.258h.013v-.258zm.012 0H9.87v.258h.012v-.258zm.013 0h-.013v.258h.013v-.258zm.012 0h-.012v.258h.012v-.258zm.013 0h-.013v.258h.013v-.258zm.013 0H9.92v.258h.013v-.258zm.012 0h-.012v.258h.012v-.258zm.013 0h-.013v.258h.013v-.258zm.013 0h-.013v.258h.013v-.258zm.012 0h-.012v.258h.012v-.258zm.013 0h-.013v.258h.013v-.258zm.013 0h-.013v.258h.013v-.258zm.013 0h-.013v.258h.013v-.258zm.013 0h-.013v.258h.013v-.258zm.013 0h-.013v.258h.013v-.258zm.012 0h-.012v.258h.012v-.258zm.013 0h-.013v.258h.013v-.258zm.013 0h-.013v.258h.013v-.258zm.013 0h-.013v.258h.013v-.258zm.014 0h-.014v.258h.014v-.258zm.013 0h-.013v.258h.013v-.258zm.013 0h-.013v.258h.013v-.258zm.013 0h-.013v.258h.013v-.258zm.013 0h-.013v.258h.013v-.258zm.013 0h-.013v.258h.013v-.258zm.013 0h-.013v.258h.013v-.258zm.013 0h-.013v.258h.013v-.258zm.013 0h-.013v.258h.013v-.258zm.014 0h-.014v.258h.014v-.258zm.013 0h-.013v.258h.013v-.258zm.013 0h-.013v.258h.013v-.258zm.014 0h-.014v.258h.014v-.258zm.013 0h-.013v.258h.013v-.258zm.013 0h-.013v.258h.013v-.258zm.014 0h-.014v.258h.014v-.258zm.013 0h-.013v.258h.013v-.258zm.014 0h-.014v.258h.014v-.258zm.013 0h-.013v.258h.013v-.258zm.013 0h-.013v.258h.013v-.258zm.014 0h-.014v.258h.014v-.258zm.014 0h-.014v.258h.014v-.258zm.013 0h-.013v.258h.013v-.258zm.014 0h-.014v.258h.014v-.258zm.013 0h-.013v.258h.013v-.258zm.014 0h-.014v.258h.014v-.258zm.014 0h-.014v.258h.014v-.258zm.013 0h-.014v.258h.014v-.258zm.014 0h-.014v.258h.014v-.258zm.014 0h-.014v.258h.014v-.258zm.013 0h-.013v.258h.013v-.258zm.014 0h-.014v.258h.014v-.258zm.014 0h-.014v.258h.014v-.258zm.014 0h-.014v.258h.014v-.258zm.013 0h-.013v.258h.013v-.258zm.014 0h-.014v.258h.014v-.258zm.014 0h-.014v.258h.014v-.258zm.014 0h-.014v.258h.014v-.258zm.014 0h-.014v.258h.014v-.258zm.014 0h-.014v.258h.014v-.258zm.014 0h-.014v.258h.014v-.258zm.014 0h-.014v.258h.014v-.258zm.014 0h-.014v.258h.014v-.258zm.014 0h-.014v.258h.014v-.258zm.014 0h-.014v.258h.014v-.258zm.014 0h-.014v.258h.014v-.258zm.014 0h-.014v.258h.014v-.258zm.014 0h-.014v.258h.014v-.258zm.014 0h-.014v.258h.014v-.258zm.014 0h-.014v.258h.014v-.258zm.014 0h-.014v.258h.014v-.258zm.014 0h-.014v.258h.014v-.258zm.015 0h-.014v.258h.014v-.258zm.014 0h-.014v.258h.014v-.258zm.014 0h-.014v.258h.014v-.258zm.014 0h-.014v.258h.014v-.258zm.015 0h-.015v.258h.015v-.258zm.014 0h-.014v.258h.014v-.258zm.014 0h-.014v.258h.014v-.258zm.015 0h-.015v.258h.015v-.258zm.014 0h-.014v.258h.014v-.258zm.014 0h-.014v.258h.014v-.258zm.015 0h-.015v.258h.015v-.258zm.014 0h-.014v.258h.014v-.258zm.014 0h-.014v.258h.014v-.258zm.015 0h-.014v.258h.014v-.258zm.014 0h-.014v.258h.014v-.258zm.015 0h-.015v.258h.015v-.258zm.014 0h-.014v.258h.014v-.258zm.015 0h-.015v.258h.015v-.258zm.014 0h-.014v.258h.014v-.258zm.015 0h-.015v.258h.015v-.258zm.014 0h-.014v.258h.014v-.258zm.015 0h-.014v.258h.014v-.258zm.015 0h-.015v.258h.015v-.258zm.014 0h-.014v.258h.014v-.258zm.015 0h-.015v.258h.015v-.258zm.015 0h-.015v.258h.015v-.258zm.014 0h-.014v.258h.014v-.258zm.015 0h-.015v.258h.015v-.258zm.015 0h-.015v.258h.015v-.258zm.014 0h-.014v.258h.014v-.258zm.015 0h-.015v.258h.015v-.258zm.015 0h-.015v.258h.015v-.258zm.015 0h-.015v.258h.015v-.258zm.014 0h-.014v.258h.014v-.258zm.015 0H11.3v.258h.015v-.258zm.015 0h-.015v.258h.015v-.258zm.015 0h-.015v.258h.015v-.258zm.015 0h-.015v.258h.015v-.258zm.015 0h-.015v.258h.015v-.258zm.014 0h-.014v.258h.014v-.258zm.015 0h-.014v.258h.014v-.258zm.015 0h-.015v.258h.015v-.258zm.015 0h-.015v.258h.015v-.258zm.015 0h-.015v.258h.015v-.258zm.015 0h-.015v.258h.015v-.258zm.015 0h-.015v.258h.015v-.258zm.015 0h-.015v.258h.015v-.258zm.015 0h-.015v.258h.015v-.258zm.015 0h-.015v.258h.015v-.258zm.015 0h-.015v.258h.015v-.258zm.015 0h-.015v.258h.015v-.258zm.015 0h-.015v.258h.015v-.258zm.015 0h-.015v.258h.015v-.258zm.016 0h-.016v.258h.016v-.258zm.015 0H11.6v.258h.015v-.258zm.015 0h-.015v.258h.015v-.258zm.015 0h-.015v.258h.015v-.258zm.015 0h-.015v.258h.015v-.258zm.015 0h-.015v.258h.015v-.258zm.015 0h-.015v.258h.015v-.258zm.016 0h-.016v.258h.016v-.258zm.015 0h-.015v.258h.015v-.258zm.015 0h-.015v.258h.015v-.258zm.015 0h-.015v.258h.015v-.258zm.016 0h-.016v.258h.016v-.258zm.015 0h-.015v.258h.015v-.258zm.015 0h-.015v.258h.015v-.258zm.015 0h-.015v.258h.015v-.258zm.016 0h-.016v.258h.016v-.258zm.015 0h-.015v.258h.015v-.258zm.015 0h-.015v.258h.015v-.258zm.016 0h-.016v.258h.016v-.258zm.015 0h-.015v.258h.015v-.258zm.015 0h-.015v.258h.015v-.258zm.016 0h-.016v.258h.016v-.258zm.015 0h-.015v.258h.015v-.258zm.016 0h-.016v.258h.016v-.258zm.015 0h-.015v.258h.015v-.258zm.015 0h-.015v.258h.015v-.258zm.016 0h-.016v.258h.016v-.258zm.015 0h-.015v.258h.015v-.258zm.016 0h-.016v.258h.016v-.258zm.015 0h-.015v.258h.015v-.258zm.016 0h-.016v.258h.016v-.258zm.015 0h-.015v.258h.015v-.258zm.016 0h-.016v.258h.016v-.258zm.015 0h-.015v.258h.015v-.258zm.016 0h-.016v.258h.016v-.258zm.015 0h-.015v.258h.015v-.258zm.016 0h-.016v.258h.016v-.258zm.015 0h-.015v.258h.015v-.258zm.016 0h-.016v.258h.016v-.258zm.016 0h-.016v.258h.016v-.258zm.015 0H12.2v.258h.015v-.258zm.016 0h-.016v.258h.016v-.258zm.015 0h-.015v.258h.015v-.258zm.016 0h-.016v.258h.016v-.258zm.016 0h-.016v.258h.016v-.258zm.015 0h-.015v.258h.015v-.258zm.016 0h-.016v.258h.016v-.258zm.016 0h-.016v.258h.016v-.258zm.015 0h-.015v.258h.015v-.258zm.016 0h-.016v.258h.016v-.258zm.016 0h-.016v.258h.016v-.258zm.015 0h-.015v.258h.015v-.258zm.016 0h-.016v.258h.016v-.258zm.016 0h-.016v.258h.016v-.258zm.016 0h-.016v.258h.016v-.258zm.015 0h-.015v.258h.015v-.258zm.016 0h-.016v.258h.016v-.258zm.016 0h-.016v.258h.016v-.258zm.016 0h-.016v.258h.016v-.258zm.015 0h-.015v.258h.015v-.258zm.016 0h-.016v.258h.016v-.258zm.016 0h-.016v.258h.016v-.258zm.016 0h-.016v.258h.016v-.258zm.015 0h-.015v.258h.015v-.258zm.016 0h-.015v.258h.015v-.258zm.016 0h-.016v.258h.016v-.258zm.016 0h-.016v.258h.016v-.258zm.016 0h-.016v.258h.016v-.258zm.016 0h-.016v.258h.016v-.258zm.016 0h-.016v.258h.016v-.258zm.015 0h-.015v.258h.015v-.258zm.016 0h-.016v.258h.016v-.258zm.016 0h-.016v.258h.016v-.258zm.016 0h-.016v.258h.016v-.258zm.016 0h-.016v.258h.016v-.258zm.016 0h-.016v.258h.016v-.258zm.016 0h-.016v.258h.016v-.258zm.016 0h-.016v.258h.016v-.258zm.015 0h-.015v.258h.015v-.258zm.016 0h-.016v.258h.016v-.258zm.016 0h-.016v.258h.016v-.258zm.016 0h-.016v.258h.016v-.258zm.016 0h-.016v.258h.016v-.258zm.016 0h-.016v.258h.016v-.258zm.016 0h-.016v.258h.016v-.258zm.016 0h-.016v.258h.016v-.258zm.016 0h-.016v.258h.016v-.258zm.016 0h-.016v.258h.016v-.258zm.016 0h-.016v.258h.016v-.258zm.016 0h-.016v.258h.016v-.258zm.016 0h-.016v.258h.016v-.258zm.016 0h-.016v.258h.016v-.258zm.016 0h-.016v.258h.016v-.258zm.016 0h-.016v.258h.016v-.258zm.016 0h-.016v.258h.016v-.258zm.016 0h-.016v.258h.016v-.258zm.016 0h-.016v.258h.016v-.258zm.016 0h-.016v.258h.016v-.258zm.016 0h-.016v.258h.016v-.258zm.016 0h-.016v.258h.016v-.258zm.016 0h-.016v.258h.016v-.258zm.016 0h-.016v.258h.016v-.258zm.016 0h-.016v.258h.016v-.258zm.016 0h-.016v.258h.016v-.258zm.016 0h-.016v.258h.016v-.258zm.016 0h-.016v.258h.016v-.258zm.016 0h-.016v.258h.016v-.258zm.016 0h-.016v.258h.016v-.258zm.017 0h-.017v.258h.017v-.258zm.016 0h-.017v.258h.017v-.258zm.016 0h-.016v.258h.016v-.258zm.016 0h-.016v.258h.016v-.258zm.016 0h-.016v.258h.016v-.258zm.016 0h-.016v.258h.016v-.258zm.016 0h-.016v.258h.016v-.258zm.016 0h-.016v.258h.016v-.258zm.016 0h-.016v.258h.016v-.258zm.016 0h-.016v.258h.016v-.258zm.016 0h-.016v.258h.016v-.258zm.016 0h-.016v.258h.016v-.258zm.016 0h-.016v.258h.016v-.258zm.017 0h-.017v.258h.017v-.258zm.016 0h-.016v.258h.016v-.258zm.016 0h-.016v.258h.016v-.258zm.016 0h-.016v.258h.016v-.258zm.016 0h-.016v.258h.016v-.258zm.016 0h-.016v.258h.016v-.258zm.016 0h-.016v.258h.016v-.258zm.016 0H13.6v.258h.016v-.258zm.017 0h-.017v.258h.017v-.258zm.016 0h-.016v.258h.016v-.258zm.016 0h-.016v.258h.016v-.258zm.016 0h-.016v.258h.016v-.258zm.016 0h-.016v.258h.016v-.258zm.016 0h-.016v.258h.016v-.258zm.016 0h-.016v.258h.016v-.258zm.016 0h-.016v.258h.016v-.258zm.016 0h-.016v.258h.016v-.258zm.017 0h-.017v.258h.017v-.258zm.016 0h-.016v.258h.016v-.258zm.016 0h-.016v.258h.016v-.258zm.016 0h-.016v.258h.016v-.258zm.016 0h-.016v.258h.016v-.258zm.016 0h-.016v.258h.016v-.258zm.016 0h-.016v.258h.016v-.258zm.016 0h-.016v.258h.016v-.258zm.017 0h-.017v.258h.017v-.258zm.016 0h-.017v.258h.017v-.258zm.016 0h-.016v.258h.016v-.258zm.016 0h-.016v.258h.016v-.258zm.016 0h-.016v.258h.016v-.258zm.016 0h-.016v.258h.016v-.258zm.016 0h-.016v.258h.016v-.258zm.016 0h-.016v.258h.016v-.258zm.016 0h-.016v.258h.016v-.258zm.017 0h-.017v.258h.017v-.258zm.016 0h-.016v.258h.016v-.258zm.016 0h-.016v.258h.016v-.258zm.016 0h-.016v.258h.016v-.258zm.016 0h-.016v.258h.016v-.258zm.016 0h-.016v.258h.016v-.258zm.016 0h-.016v.258h.016v-.258zm.016 0h-.016v.258h.016v-.258zm.016 0h-.016v.258h.016v-.258zm.016 0h-.016v.258h.016v-.258zm.017 0h-.017v.258h.017v-.258zm.016 0h-.016v.258h.016v-.258zm.016 0h-.016v.258h.016v-.258zm.016 0h-.016v.258h.016v-.258zm.016 0h-.016v.258h.016v-.258zm.016 0h-.016v.258h.016v-.258zm.016 0h-.016v.258h.016v-.258zm.016 0h-.016v.258h.016v-.258zm.016 0h-.016v.258h.016v-.258zm.016 0h-.016v.258h.016v-.258zm.016 0h-.016v.258h.016v-.258zm.016 0h-.016v.258h.016v-.258zm.017 0h-.017v.258h.017v-.258zm.016 0h-.016v.258h.016v-.258zm.016 0h-.016v.258h.016v-.258zm.016 0h-.016v.258h.016v-.258zm.016 0h-.016v.258h.016v-.258zm.016 0h-.016v.258h.016v-.258zm.016 0h-.016v.258h.016v-.258zm.016 0H14.5v.258h.016v-.258zm.016 0h-.016v.258h.016v-.258zm.016 0h-.016v.258h.016v-.258zm.016 0h-.016v.258h.016v-.258zm.016 0h-.016v.258h.016v-.258zm.016 0h-.016v.258h.016v-.258zm.016 0h-.016v.258h.016v-.258zm.016 0h-.016v.258h.016v-.258zm.016 0h-.016v.258h.016v-.258zm.016 0h-.016v.258h.016v-.258zm.016 0h-.016v.258h.016v-.258zm.016 0h-.016v.258h.016v-.258zm.016 0h-.016v.258h.016v-.258zm.016 0h-.016v.258h.016v-.258zm.016 0h-.016v.258h.016v-.258zm.016 0h-.016v.258h.016v-.258zm.016 0h-.016v.258h.016v-.258zm.016 0h-.016v.258h.016v-.258zm.016 0h-.016v.258h.016v-.258zm.015 0h-.015v.258h.015v-.258zm.016 0h-.016v.258h.016v-.258zm.016 0h-.016v.258h.016v-.258zm.016 0h-.016v.258h.016v-.258zm.016 0h-.016v.258h.016v-.258zm.016 0h-.016v.258h.016v-.258zm.016 0H14.9v.258h.016v-.258zm.016 0h-.016v.258h.016v-.258zm.016 0h-.016v.258h.016v-.258zm.015 0h-.015v.258h.015v-.258zm.016 0h-.015v.258h.015v-.258zm.016 0h-.016v.258h.016v-.258zm.016 0h-.016v.258h.016v-.258zm.016 0h-.016v.258h.016v-.258zm.016 0h-.016v.258h.016v-.258zm.016 0h-.016v.258h.016v-.258zm.015 0h-.015v.258h.015v-.258zm.016 0h-.016v.258h.016v-.258zm.016 0h-.016v.258h.016v-.258zm.016 0h-.016v.258h.016v-.258zm.016 0h-.016v.258h.016v-.258zm.015 0h-.015v.258h.015v-.258zm.016 0h-.016v.258h.016v-.258zm.016 0h-.016v.258h.016v-.258zm.016 0h-.016v.258h.016v-.258zm.015 0h-.015v.258h.015v-.258zm.016 0h-.016v.258h.016v-.258zm.016 0h-.016v.258h.016v-.258zm.016 0h-.016v.258h.016v-.258zm.015 0h-.015v.258h.015v-.258zm.016 0h-.016v.258h.016v-.258zm.016 0h-.016v.258h.016v-.258zm.015 0h-.015v.258h.015v-.258zm.016 0h-.016v.258h.016v-.258zm.016 0h-.016v.258h.016v-.258zm.015 0h-.015v.258h.015v-.258zm.016 0h-.016v.258h.016v-.258zm.016 0h-.016v.258h.016v-.258zm.015 0h-.015v.258h.015v-.258zm.016 0h-.016v.258h.016v-.258zm.015 0h-.015v.258h.015v-.258zm.016 0h-.016v.258h.016v-.258zm.015 0h-.015v.258h.015v-.258zm.016 0h-.015v.258h.015v-.258zm.016 0h-.016v.258h.016v-.258zm.015 0h-.015v.258h.015v-.258zm.016 0h-.016v.258h.016v-.258zm.015 0h-.015v.258h.015v-.258zm.016 0h-.016v.258h.016v-.258zm.015 0h-.015v.258h.015v-.258zm.016 0h-.016v.258h.016v-.258zm.015 0h-.015v.258h.015v-.258zm.016 0h-.016v.258h.016v-.258zm.015 0h-.015v.258h.015v-.258zm.016 0h-.016v.258h.016v-.258zm.015 0h-.015v.258h.015v-.258zm.016 0h-.016v.258h.016v-.258zm.015 0H15.7v.258h.015v-.258zm.015 0h-.015v.258h.015v-.258zm.016 0h-.016v.258h.016v-.258zm2.964-2.966a2.965 2.965 0 0 1-2.964 2.966v.258a3.223 3.223 0 0 0 3.222-3.224h-.258zm0-6.047v6.047h.258V4.255h-.258zM15.745 1.29a2.966 2.966 0 0 1 2.966 2.966h.257a3.224 3.224 0 0 0-3.223-3.223v.257zm-11.49 0h11.49v-.257H4.255v.257zM1.29 4.255A2.966 2.966 0 0 1 4.255 1.29v-.257a3.224 3.224 0 0 0-3.223 3.223h.257zm0 6.647V4.255h-.257v6.647h.257zm2.366 2.366a2.366 2.366 0 0 1-2.366-2.366h-.257a2.624 2.624 0 0 0 2.623 2.624v-.258zm.942.443a1.223 1.223 0 0 0-.942-.443v.258c.324 0 .583.156.744.35l.198-.165zm.262.515a1.337 1.337 0 0 0-.262-.515l-.198.165c.134.16.187.329.21.416l.25-.066zm.062.536a2.203 2.203 0 0 0-.062-.536l-.25.066c.048.178.053.362.054.473l.258-.003zm-.007.359c.004-.113.008-.24.007-.359l-.258.002a7.7 7.7 0 0 1-.007.348l.258.009zm.17-.395c-.152.113-.273.207-.379.289l.16.203c.103-.081.223-.174.373-.285l-.154-.207zm3.293-1.447c-1.477.208-2.546.891-3.293 1.447l.154.207c.733-.545 1.76-1.2 3.175-1.398l-.036-.256zm.071-.01l-.071.01.036.256.071-.01-.036-.256zm7.298 1.03H8.539v.258h7.207V14.3zm3.996-3.997a3.997 3.997 0 0 1-3.996 3.998v.257A4.254 4.254 0 0 0 20 10.302h-.258zm0-6.047v6.047H20V4.255h-.258zM15.745.258a3.997 3.997 0 0 1 3.997 3.997H20A4.255 4.255 0 0 0 15.745 0v.258zm-11.49 0h11.49V0H4.255v.258zM.258 4.255A3.997 3.997 0 0 1 4.255.258V0A4.255 4.255 0 0 0 0 4.255h.258zm0 6.647V4.255H0v6.647h.258zM3.655 14.3a3.397 3.397 0 0 1-3.397-3.398H0a3.655 3.655 0 0 0 3.655 3.655V14.3zm.225.864c.007-.198.015-.39.004-.531a.641.641 0 0 0-.041-.198c-.025-.059-.082-.136-.188-.136v.258c-.043 0-.055-.035-.049-.02a.412.412 0 0 1 .02.116c.01.123.004.296-.004.5l.258.01zm.315 1.341a.21.21 0 0 1-.181-.09.713.713 0 0 1-.111-.3c-.049-.272-.036-.626-.023-.951l-.258-.01c-.012.317-.027.7.027 1.006a.96.96 0 0 0 .16.412c.09.118.218.191.386.191v-.258zm1.085-.63c-.24.186-.444.346-.629.46-.186.114-.333.17-.456.17v.258c.197 0 .394-.088.592-.21.199-.122.416-.291.651-.475l-.158-.203zm3.24-1.574c-1.49.21-2.504 1.001-3.24 1.574l.158.203c.737-.573 1.703-1.323 3.119-1.522l-.036-.255zM7.21 8.08c-.552 0-1.02.455-1.02 1.021h.257c0-.422.351-.763.763-.763v-.258zm1.021 1.021c0-.3-.109-.558-.295-.74a1.025 1.025 0 0 0-.726-.28v.257c.223 0 .412.078.546.208.133.13.217.319.217.555h.258zm-1.033 1.022c.306 0 .567-.102.751-.287a1.02 1.02 0 0 0 .282-.735h-.258a.762.762 0 0 1-.206.553c-.13.13-.32.21-.569.21v.259zM6.189 9.102c0 .6.444 1.022 1.009 1.022v-.258c-.424 0-.75-.309-.75-.764h-.259zM7.21 3.745c-.553 0-1.02.456-1.02 1.032h.257c0-.434.352-.774.763-.774v-.258zm1.021 1.032c0-.305-.108-.565-.295-.749a1.02 1.02 0 0 0-.726-.283v.258c.223 0 .412.078.545.209.133.13.218.322.218.565h.258zm-1.033 1.01c.306 0 .567-.101.75-.284.185-.183.283-.438.283-.726h-.258a.746.746 0 0 1-.206.543c-.13.128-.32.21-.569.21v.258zm-1.009-1.01a.986.986 0 0 0 1.009 1.01V5.53a.729.729 0 0 1-.75-.753h-.259zm4.618 6.873c.942-1.131 1.977-3.233 1.977-5.773h-.258c0 2.474-1.009 4.518-1.918 5.608l.199.165zm.884-.211h-.983v.258h.983v-.258zm1.8-5.562c0 2.62-1.114 4.654-1.9 5.609l.2.164c.815-.992 1.958-3.083 1.958-5.773h-.258zM13 3.031c.337.771.49 1.767.49 2.846h.258c0-1.1-.155-2.134-.513-2.95L13 3.032zm-.78.077h.897V2.85h-.897v.258zm.563 2.77c0-1.061-.047-1.981-.443-2.948l-.239.098c.376.917.424 1.795.424 2.85h.258z"/>
</svg>
