<svg xmlns="http://www.w3.org/2000/svg" width="40" height="40" fill="none" viewBox="0 0 40 40">
    <rect width="40" height="40" fill="url(#a)" rx="5"/>
    <rect width="13.42" height="17.9" x="13.65" y="10.821" fill="url(#b)" stroke="#fff" stroke-width="1.3" rx="2.35"/>
    <mask id="c" fill="#fff">
        <path fill-rule="evenodd" d="M13 14.477c0 1.687 3.295 3.054 7.36 3.054s7.36-1.367 7.36-3.054" clip-rule="evenodd"/>
    </mask>
    <path fill="#fff" d="M11.7 14.477c0 .876.433 1.592.968 2.117.53.52 1.23.928 1.99 1.243 1.524.633 3.541.994 5.702.994v-2.6c-1.904 0-3.567-.322-4.706-.795-.572-.238-.95-.487-1.165-.698-.21-.207-.19-.294-.19-.261h-2.6zm8.66 4.354c2.16 0 4.177-.36 5.703-.994.76-.315 1.459-.723 1.989-1.243.534-.525.968-1.24.968-2.117h-2.6c0-.033.021.054-.189.26-.215.212-.593.461-1.165.699-1.139.473-2.802.795-4.706.795v2.6z" mask="url(#c)"/>
    <path fill="#F131A8" stroke="#fff" d="M20.328 20.644c-1.201-.693-3.837-2.552-3.837-4.168a1.949 1.949 0 0 1 1.941-1.94 1.901 1.901 0 0 1 1.618.87.324.324 0 0 0 .545 0 1.901 1.901 0 0 1 1.618-.87c1.07.003 1.937.87 1.941 1.94.01 1.628-2.624 3.48-3.826 4.168z"/>
    <defs>
        <linearGradient id="a" x1="38.794" x2="-6.277" y2="9.18" gradientUnits="userSpaceOnUse">
            <stop stop-color="#F61280"/>
            <stop offset="1" stop-color="#EA57DB"/>
        </linearGradient>
        <linearGradient id="b" x1="27.276" x2="10.413" y1="10.171" y2="12.805" gradientUnits="userSpaceOnUse">
            <stop stop-color="#F61280"/>
            <stop offset="1" stop-color="#EA57DB"/>
        </linearGradient>
    </defs>
</svg>
