<svg xmlns="http://www.w3.org/2000/svg" width="26" height="26" fill="none" viewBox="0 0 26 26">
    <path fill="#01B6FB" fill-rule="evenodd" d="M0 4a4 4 0 0 1 4-4h18a4 4 0 0 1 4 4v18a4 4 0 0 1-4 4H4a4 4 0 0 1-4-4V4zm16.361 14.688v-1.876h-.038c-.952 1.422-2.336 2.133-4.151 2.133-1.606 0-2.962-.537-4.066-1.61-1.11-1.072-1.666-2.409-1.666-4.008 0-1.587.561-2.917 1.685-3.99 1.11-1.06 2.46-1.59 4.047-1.59 1.809 0 3.192.702 4.151 2.105h.038V7.02H13V5.688h3.361V4.252h1.371v1.434h1.21v1.334h-1.21v11.666h-1.37zm1.514 2.437v1.333h-9.75v-1.333h9.75zm-5.703-12.15c1.2 0 2.215.435 3.046 1.305.82.857 1.229 1.885 1.229 3.085s-.41 2.222-1.228 3.066c-.832.857-1.848 1.285-3.047 1.285-1.25 0-2.292-.41-3.123-1.228-.832-.825-1.248-1.86-1.248-3.104 0-1.263.413-2.314 1.238-3.152.825-.837 1.87-1.256 3.133-1.256z" clip-rule="evenodd"/>
</svg>
