<svg width="18" height="18" viewBox="0 0 18 18" fill="none" xmlns="http://www.w3.org/2000/svg">
<path fill-rule="evenodd" clip-rule="evenodd" d="M18 9C18 13.9706 13.9706 18 9 18C4.02944 18 0 13.9706 0 9C0 4.02944 4.02944 0 9 0C13.9706 0 18 4.02944 18 9ZM13.6245 6.11831L7.76557 12.0071L4.35219 8.6167C4.15626 8.4221 3.83968 8.42317 3.64508 8.61909C3.45048 8.81501 3.45155 9.13159 3.64747 9.32619L7.41531 13.0686C7.61111 13.2631 7.92746 13.2622 8.12211 13.0665L14.3334 6.82362C14.5281 6.62786 14.5273 6.31128 14.3316 6.11652C14.1358 5.92175 13.8192 5.92256 13.6245 6.11831Z" fill="white"/>
</svg>
