<svg xmlns="http://www.w3.org/2000/svg" width="86" height="34" fill="none" viewBox="0 0 86 34">
    <mask id="a" width="26" height="25" x="60" y="0" maskUnits="userSpaceOnUse">
        <path fill="#fff" fill-rule="evenodd" d="M60.522 0h24.524v24.528H60.522V0z" clip-rule="evenodd"/>
    </mask>
    <g mask="url(#a)">
        <path fill="#fff" fill-rule="evenodd" d="M65.531 1.579l-5.009 5.016 17.87.057.06 17.876 5.02-5.023a5.382 5.382 0 0 0 1.574-3.822L84.996.398a.35.35 0 0 0-.35-.35L69.357 0a5.382 5.382 0 0 0-3.825 1.579z" clip-rule="evenodd"/>
    </g>
    <mask id="b" width="30" height="21" x="0" y="13" maskUnits="userSpaceOnUse">
        <path fill="#fff" fill-rule="evenodd" d="M0 13.257h29.377v20.196H0V13.257z" clip-rule="evenodd"/>
    </mask>
    <g mask="url(#b)">
        <path fill="#fff" fill-rule="evenodd" d="M0 13.257h4.727l3.945 15.079h.079l3.789-15.08h4.492l3.633 15.08h.079l4.101-15.08h4.532l-6.329 20.197h-4.57l-3.75-15h-.079l-3.71 15H6.25L0 13.257z" clip-rule="evenodd"/>
    </g>
    <mask id="c" width="21" height="22" x="30" y="12" maskUnits="userSpaceOnUse">
        <path fill="#fff" fill-rule="evenodd" d="M30.815 12.71H50.2V34H30.815V12.71z" clip-rule="evenodd"/>
    </mask>
    <g mask="url(#c)">
        <path fill="#fff" fill-rule="evenodd" d="M45.66 21.578a7.189 7.189 0 0 0-.45-2.032 5.433 5.433 0 0 0-1.016-1.7 5.048 5.048 0 0 0-1.562-1.171c-.612-.3-1.296-.45-2.051-.45-.781 0-1.491.137-2.13.41a4.866 4.866 0 0 0-1.64 1.134 5.604 5.604 0 0 0-1.093 1.699 5.916 5.916 0 0 0-.45 2.11h10.391zm-10.392 2.93c0 .78.11 1.536.332 2.265.22.73.553 1.367.996 1.914a4.791 4.791 0 0 0 1.68 1.309c.677.326 1.484.488 2.422.488 1.302 0 2.35-.28 3.145-.84.794-.56 1.386-1.4 1.777-2.52h4.219c-.234 1.095-.639 2.071-1.211 2.93a8.437 8.437 0 0 1-2.07 2.169 8.938 8.938 0 0 1-2.715 1.328 10.952 10.952 0 0 1-3.145.45c-1.589 0-2.995-.261-4.22-.782-1.224-.52-2.259-1.25-3.105-2.188-.846-.937-1.484-2.057-1.914-3.359-.43-1.302-.644-2.735-.644-4.298 0-1.431.227-2.793.683-4.082a10.434 10.434 0 0 1 1.953-3.398 9.329 9.329 0 0 1 3.067-2.325c1.198-.572 2.552-.86 4.063-.86 1.588 0 3.014.333 4.277.997a9.4 9.4 0 0 1 3.145 2.637c.833 1.094 1.439 2.35 1.816 3.77.378 1.42.476 2.884.293 4.395H35.268z" clip-rule="evenodd"/>
    </g>
    <mask id="d" width="20" height="22" x="53" y="12" maskUnits="userSpaceOnUse">
        <path fill="#fff" fill-rule="evenodd" d="M53.108 12.71h19.387V34H53.108V12.71z" clip-rule="evenodd"/>
    </mask>
    <g mask="url(#d)">
        <path fill="#fff" fill-rule="evenodd" d="M67.953 21.578a7.2 7.2 0 0 0-.45-2.032 5.43 5.43 0 0 0-1.015-1.7 5.043 5.043 0 0 0-1.563-1.171c-.612-.3-1.295-.45-2.05-.45-.782 0-1.492.137-2.13.41a4.866 4.866 0 0 0-1.64 1.134 5.613 5.613 0 0 0-1.094 1.699 5.916 5.916 0 0 0-.45 2.11h10.392zm-10.391 2.93c0 .78.11 1.536.332 2.265.22.73.553 1.367.996 1.914a4.794 4.794 0 0 0 1.68 1.309c.676.326 1.484.488 2.422.488 1.301 0 2.35-.28 3.144-.84.794-.56 1.387-1.4 1.778-2.52h4.219c-.234 1.095-.639 2.071-1.211 2.93a8.44 8.44 0 0 1-2.07 2.169 8.935 8.935 0 0 1-2.716 1.328 10.948 10.948 0 0 1-3.144.45c-1.59 0-2.996-.261-4.22-.782-1.224-.52-2.259-1.25-3.105-2.188-.847-.937-1.485-2.057-1.914-3.359-.43-1.302-.645-2.735-.645-4.298 0-1.431.228-2.793.684-4.082a10.439 10.439 0 0 1 1.953-3.398 9.332 9.332 0 0 1 3.067-2.325c1.197-.572 2.552-.86 4.062-.86 1.589 0 3.014.333 4.278.997a9.396 9.396 0 0 1 3.145 2.637c.833 1.094 1.439 2.35 1.816 3.77s.475 2.884.293 4.395H57.562z" clip-rule="evenodd"/>
    </g>
</svg>
