<svg width="14" height="16" viewBox="0 0 14 16" fill="none" xmlns="http://www.w3.org/2000/svg">
<path d="M13.7522 8.69524C13.5502 5.29533 10.7899 2.51817 7.38998 2.26571V0.346945C7.38998 0.0608137 7.05335 -0.107499 6.83455 0.077645L2.9297 3.17459C2.76139 3.30924 2.76139 3.57854 2.9297 3.71319L6.83455 6.79331C7.05335 6.97845 7.38998 6.81014 7.38998 6.52401V4.67257C9.78001 4.94187 11.5978 7.1131 11.3285 9.62096C11.1097 11.6744 9.44339 13.3407 7.38998 13.5595C4.83163 13.8456 2.62674 11.9605 2.40793 9.50314C2.3911 9.28433 2.20595 9.11602 1.98715 9.11602H0.421843C0.169374 9.11602 -0.0157693 9.318 0.0010619 9.57047C0.253531 13.1555 3.23266 16 6.88504 16C10.8067 16 13.9878 12.6842 13.7522 8.69524Z" fill="white"/>
</svg>
